<svg width="246" height="162" viewBox="0 0 246 162" fill="none" xmlns="http://www.w3.org/2000/svg">
<g clip-path="url(#clip0_1_2411)">
<path d="M215.72 0.528564H29.8813C24.5282 0.528564 20.1887 4.86808 20.1887 10.2212V142.287C20.1887 147.64 24.5282 151.979 29.8813 151.979H215.72C221.073 151.979 225.413 147.64 225.413 142.287V10.2212C225.413 4.86808 221.073 0.528564 215.72 0.528564Z" fill="#5C5B5B"/>
<path d="M204.619 13.2065H39.3636C36.6873 13.2065 34.5177 15.3761 34.5177 18.0524V134.455C34.5177 137.131 36.6873 139.301 39.3636 139.301H204.619C207.295 139.301 209.465 137.131 209.465 134.455V18.0524C209.465 15.3761 207.295 13.2065 204.619 13.2065Z" fill="white"/>
<path d="M184.25 34.1069H183.362C182.382 34.1069 181.587 34.9018 181.587 35.8823V38.5453C181.587 39.5258 182.382 40.3207 183.362 40.3207H184.25C185.23 40.3207 186.025 39.5258 186.025 38.5453V35.8823C186.025 34.9018 185.23 34.1069 184.25 34.1069Z" fill="#78C800"/>
<path d="M184.488 28.7115L189.25 34.4264C189.358 34.556 189.427 34.7137 189.449 34.881C189.47 35.0482 189.444 35.2182 189.372 35.371C189.301 35.5237 189.187 35.6529 189.045 35.7435C188.902 35.834 188.737 35.8821 188.569 35.8822H179.044C178.875 35.8821 178.71 35.834 178.568 35.7435C178.425 35.6529 178.312 35.5237 178.24 35.371C178.169 35.2182 178.142 35.0482 178.164 34.881C178.185 34.7137 178.254 34.556 178.362 34.4264L183.124 28.7115C183.208 28.6116 183.312 28.5312 183.43 28.4761C183.548 28.4209 183.676 28.3923 183.806 28.3923C183.936 28.3923 184.065 28.4209 184.183 28.4761C184.3 28.5312 184.405 28.6116 184.488 28.7115Z" fill="#78C800"/>
<path d="M184.25 72.2771H183.362C182.382 72.2771 181.587 71.4822 181.587 70.5017V67.8387C181.587 66.8582 182.382 66.0633 183.362 66.0633H184.25C185.23 66.0633 186.025 66.8582 186.025 67.8387V70.5017C186.025 71.4822 185.23 72.2771 184.25 72.2771Z" fill="#EA2B2B"/>
<path d="M184.488 77.6725L189.25 71.9576C189.358 71.828 189.427 71.6704 189.449 71.5031C189.47 71.3358 189.444 71.1658 189.372 71.0131C189.301 70.8603 189.187 70.7311 189.045 70.6406C188.902 70.55 188.737 70.5019 188.569 70.5018H179.044C178.875 70.5019 178.71 70.55 178.568 70.6406C178.425 70.7311 178.312 70.8603 178.24 71.0131C178.169 71.1658 178.142 71.3358 178.164 71.5031C178.185 71.6704 178.254 71.828 178.362 71.9576L183.124 77.6725C183.208 77.7724 183.312 77.8528 183.43 77.908C183.548 77.9631 183.676 77.9917 183.806 77.9917C183.936 77.9917 184.065 77.9631 184.183 77.908C184.3 77.8528 184.405 77.7724 184.488 77.6725Z" fill="#EA2B2B"/>
<path d="M184.25 111.335H183.362C182.382 111.335 181.587 112.13 181.587 113.111V115.774C181.587 116.754 182.382 117.549 183.362 117.549H184.25C185.23 117.549 186.025 116.754 186.025 115.774V113.111C186.025 112.13 185.23 111.335 184.25 111.335Z" fill="#78C800"/>
<path d="M184.488 105.94L189.25 111.655C189.358 111.784 189.427 111.942 189.449 112.109C189.47 112.277 189.444 112.446 189.372 112.599C189.301 112.752 189.187 112.881 189.045 112.972C188.902 113.062 188.737 113.11 188.569 113.11H179.044C178.875 113.11 178.71 113.062 178.568 112.972C178.425 112.881 178.312 112.752 178.24 112.599C178.169 112.446 178.142 112.277 178.164 112.109C178.185 111.942 178.254 111.784 178.362 111.655L183.124 105.94C183.208 105.84 183.312 105.76 183.43 105.704C183.548 105.649 183.676 105.621 183.806 105.621C183.936 105.621 184.065 105.649 184.183 105.704C184.3 105.76 184.405 105.84 184.488 105.94Z" fill="#78C800"/>
<path d="M65.3469 26.1177C66.7708 26.1178 68.1581 26.5694 69.3092 27.4075C70.4603 28.2457 71.316 29.4273 71.7533 30.7824L75.7283 43.0981C75.8754 43.5542 75.9125 44.0386 75.8368 44.5118C75.761 44.985 75.5744 45.4336 75.2923 45.821C75.0101 46.2084 74.6404 46.5236 74.2133 46.7409C73.7862 46.9582 73.3137 47.0714 72.8345 47.0714H57.6827C57.2012 47.0714 56.7266 46.957 56.298 46.7376C55.8693 46.5183 55.4989 46.2003 55.2172 45.8099C54.9355 45.4194 54.7506 44.9676 54.6777 44.4917C54.6047 44.0157 54.6459 43.5293 54.7977 43.0724L58.8961 30.7691C59.3469 29.4148 60.2126 28.2367 61.3704 27.4018C62.5283 26.5669 63.9195 26.1177 65.3469 26.1177Z" fill="#2D2D2D"/>
<path d="M72.9428 39.4542C74.3601 39.4542 75.509 38.2639 75.509 36.7956C75.509 35.3273 74.3601 34.137 72.9428 34.137C71.5254 34.137 70.3765 35.3273 70.3765 36.7956C70.3765 38.2639 71.5254 39.4542 72.9428 39.4542Z" fill="#8B4824"/>
<path d="M57.5752 39.4542C58.9925 39.4542 60.1415 38.2639 60.1415 36.7956C60.1415 35.3273 58.9925 34.137 57.5752 34.137C56.1579 34.137 55.0089 35.3273 55.0089 36.7956C55.0089 38.2639 56.1579 39.4542 57.5752 39.4542Z" fill="#8B4824"/>
<path d="M65.259 27.6704C67.0136 27.6704 68.6964 28.3674 69.9371 29.6082C71.1778 30.8489 71.8748 32.5317 71.8748 34.2863V38.6448C71.8748 39.5136 71.7037 40.3739 71.3712 41.1766C71.0388 41.9793 70.5514 42.7086 69.9371 43.323C69.3228 43.9373 68.5934 44.4246 67.7907 44.7571C66.9881 45.0896 66.1278 45.2607 65.259 45.2607C64.3901 45.2607 63.5298 45.0896 62.7272 44.7571C61.9245 44.4246 61.1952 43.9373 60.5808 43.323C59.9665 42.7086 59.4792 41.9793 59.1467 41.1766C58.8142 40.3739 58.6431 39.5136 58.6431 38.6448V34.2863C58.6431 32.5317 59.3401 30.8489 60.5808 29.6082C61.8215 28.3674 63.5043 27.6704 65.259 27.6704Z" fill="#A56644"/>
<path d="M67.1764 39.2058C66.1227 39.0798 65.3549 38.9253 64.88 38.746C64.406 38.5667 63.7544 38.1841 62.9324 37.6L62.6918 37.4287L62.4753 38.0474C62.2509 38.6888 62.2859 39.3925 62.573 40.0084C62.86 40.6243 63.3764 41.1036 64.0118 41.3443C64.3175 41.46 64.6429 41.5143 64.9696 41.5042C65.2962 41.4941 65.6177 41.4197 65.9156 41.2854C66.2135 41.151 66.482 40.9593 66.7058 40.7211C66.9296 40.4829 67.1043 40.203 67.2199 39.8974L67.2412 39.8397L67.4516 39.2387L67.1764 39.2058Z" fill="white" stroke="white" stroke-width="0.443841" stroke-linecap="round" stroke-linejoin="round"/>
<path d="M69.1409 27.3613L68.0934 29.7776C67.5321 31.0725 66.6044 32.1751 65.4245 32.9497C64.2447 33.7242 62.8641 34.1369 61.4527 34.137H57.6445L58.7666 30.778C59.2196 29.4209 60.0881 28.2406 61.2489 27.4042C62.4098 26.5679 63.8043 26.1178 65.2351 26.1177C66.6705 26.1177 68.026 26.5704 69.1409 27.3613Z" fill="#2D2D2D"/>
<path d="M57.4004 76.0062C56.2282 76.0062 55.2779 75.0218 55.2779 73.8074C55.2779 72.5931 56.2282 71.6086 57.4004 71.6086C58.5726 71.6086 59.5228 72.5931 59.5228 73.8074C59.5228 75.0218 58.5726 76.0062 57.4004 76.0062Z" fill="#CD7C60"/>
<path d="M65.0086 65.6587C63.1878 65.6587 61.4416 66.382 60.1541 67.6695C58.8666 68.957 58.1433 70.7032 58.1433 72.524V76.1253C58.1433 77.027 58.3209 77.9198 58.6659 78.7528C59.011 79.5858 59.5167 80.3426 60.1542 80.9802C60.7918 81.6177 61.5487 82.1234 62.3817 82.4685C63.2147 82.8135 64.1075 82.9911 65.0091 82.9911C65.9107 82.9911 66.8035 82.8135 67.6365 82.4685C68.4695 82.1234 69.2264 81.6177 69.8639 80.9802C70.5015 80.3426 71.0072 79.5858 71.3522 78.7528C71.6973 77.9198 71.8748 77.027 71.8748 76.1253V72.524C71.8748 71.6224 71.6972 70.7296 71.3522 69.8966C71.0071 69.0636 70.5013 68.3067 69.8637 67.6692C69.2261 67.0317 68.4692 66.526 67.6362 66.181C66.8031 65.8361 65.9103 65.6586 65.0086 65.6587Z" fill="#DB8E73"/>
<path d="M66.1325 74.7129H64.1353V75.7479H66.1325V74.7129Z" fill="#B4654A"/>
<path d="M60.889 72.5799C60.889 71.6146 61.6715 70.832 62.6368 70.832C63.6021 70.832 64.3846 71.6146 64.3846 72.5799V74.5168C64.3846 75.4821 63.6021 76.2646 62.6368 76.2646C61.6715 76.2646 60.889 75.4821 60.889 74.5168V72.5799Z" fill="white"/>
<path d="M62.1371 72.8747C62.1371 72.4609 62.4725 72.1255 62.8863 72.1255C63.3001 72.1255 63.6355 72.4609 63.6355 72.8747V74.2222C63.6355 74.636 63.3001 74.9714 62.8863 74.9714C62.4725 74.9714 62.1371 74.636 62.1371 74.2222V72.8747Z" fill="#4B4B4B"/>
<path d="M69.3787 72.5799C69.3787 71.6146 68.5962 70.832 67.6309 70.832C66.6656 70.832 65.8831 71.6146 65.8831 72.5799V74.5168C65.8831 75.4821 66.6656 76.2646 67.6309 76.2646C68.5962 76.2646 69.3787 75.4821 69.3787 74.5168V72.5799Z" fill="white"/>
<path d="M68.1298 72.8747C68.1298 72.4609 67.7943 72.1255 67.3806 72.1255C66.9668 72.1255 66.6313 72.4609 66.6313 72.8747V74.2222C66.6313 74.636 66.9668 74.9714 67.3806 74.9714C67.7943 74.9714 68.1298 74.636 68.1298 74.2222V72.8747Z" fill="#4B4B4B"/>
<path d="M62.1379 79.6281C60.6211 79.6281 59.3914 78.3539 59.3914 76.7822C59.3914 75.2104 60.6211 73.9363 62.1379 73.9363C63.6548 73.9363 64.8844 75.2104 64.8844 76.7822C64.8844 78.3539 63.6548 79.6281 62.1379 79.6281Z" fill="#DB8E73"/>
<path d="M68.1297 79.6281C66.6129 79.6281 65.3833 78.3539 65.3833 76.7822C65.3833 75.2104 66.6129 73.9363 68.1297 73.9363C69.6466 73.9363 70.8762 75.2104 70.8762 76.7822C70.8762 78.3539 69.6466 79.6281 68.1297 79.6281Z" fill="#DB8E73"/>
<path d="M65.7579 75.9033V73.0041C65.7579 72.8054 65.679 72.6148 65.5385 72.4743C65.398 72.3338 65.2074 72.2549 65.0087 72.2549C64.81 72.2549 64.6195 72.3338 64.479 72.4743C64.3385 72.6148 64.2595 72.8054 64.2595 73.0041V75.9033C64.2595 76.102 64.3385 76.2925 64.479 76.433C64.6195 76.5735 64.81 76.6525 65.0087 76.6525C65.2074 76.6525 65.398 76.5735 65.5385 76.433C65.679 76.2925 65.7579 76.102 65.7579 75.9033Z" fill="#B4654A"/>
<path d="M64.6705 77.0404H65.3478C65.9195 77.0404 66.382 76.5779 66.382 76.0071V76.0053C66.382 75.4337 65.9195 74.9712 65.3478 74.9712H64.6696C64.0989 74.9712 63.6355 75.4337 63.6355 76.0053V76.0071C63.6355 76.5779 64.0998 77.0404 64.6705 77.0404Z" fill="#B4654A"/>
<path d="M60.8153 65.6488C64.0518 63.2928 68.5283 63.5467 71.6281 66.3394C74.7288 69.132 75.5943 73.6894 73.7932 77.3386C73.7575 77.4117 73.7052 77.4754 73.6404 77.5245C73.5756 77.5737 73.5002 77.6069 73.4203 77.6216C73.3403 77.6363 73.258 77.632 73.18 77.609C73.102 77.5861 73.0305 77.5452 72.9712 77.4895L60.7851 66.5142C60.5214 66.2763 60.5365 65.852 60.8153 65.6488Z" fill="#FFD900"/>
<path d="M65.1924 77.8908C64.4592 77.7994 63.9257 77.6893 63.5972 77.5659C63.2706 77.4425 62.8161 77.1807 62.2426 76.7794L62.003 76.6125L61.8405 77.0741C61.6771 77.5398 61.7023 78.0508 61.9108 78.4981C62.1194 78.9453 62.4946 79.2932 62.9563 79.4673C63.1795 79.5514 63.417 79.5907 63.6553 79.583C63.8936 79.5753 64.128 79.5207 64.3452 79.4224C64.5624 79.324 64.7581 79.1839 64.9212 79.0099C65.0842 78.8359 65.2114 78.6315 65.2954 78.4083L65.3096 78.3702L65.4658 77.9245L65.1924 77.8908Z" fill="white" stroke="white" stroke-width="0.443841" stroke-linecap="round" stroke-linejoin="round"/>
<path d="M61.7224 70.1786C60.0003 69.7499 58.7673 68.1556 58.7673 66.3048C58.7673 64.454 60.0012 62.8597 61.7233 62.4319C61.7585 62.4237 61.795 62.4238 61.8302 62.4319C61.8654 62.4401 61.8982 62.4562 61.9262 62.4789C61.9542 62.5017 61.9766 62.5306 61.9918 62.5633C62.0069 62.5961 62.0144 62.6319 62.0136 62.668V69.9425C62.0136 70.0996 61.8716 70.215 61.7233 70.1786H61.7224Z" fill="#FFD900"/>
<path d="M58.0315 76.0062C56.8593 76.0062 55.909 75.0218 55.909 73.8074C55.909 72.5931 56.8593 71.6086 58.0315 71.6086C59.2037 71.6086 60.1539 72.5931 60.1539 73.8074C60.1539 75.0218 59.2037 76.0062 58.0315 76.0062Z" fill="#CD7C60"/>
<path d="M65.0086 65.6587C63.1878 65.6587 61.4416 66.382 60.1541 67.6695C58.8666 68.957 58.1433 70.7032 58.1433 72.524V76.6429C58.1433 78.4638 58.8667 80.2101 60.1542 81.4977C61.4418 82.7853 63.1882 83.5086 65.0091 83.5086C66.83 83.5086 68.5763 82.7853 69.8639 81.4977C71.1515 80.2101 71.8748 78.4638 71.8748 76.6429V72.524C71.8748 71.6224 71.6972 70.7296 71.3522 69.8966C71.0071 69.0636 70.5013 68.3067 69.8637 67.6692C69.2261 67.0317 68.4692 66.526 67.6362 66.181C66.8031 65.8361 65.9103 65.6586 65.0086 65.6587Z" fill="#DB8E73"/>
<path d="M62.1379 79.6281C60.6211 79.6281 59.3914 78.3539 59.3914 76.7822C59.3914 75.2104 60.6211 73.9363 62.1379 73.9363C63.6548 73.9363 64.8844 75.2104 64.8844 76.7822C64.8844 78.3539 63.6548 79.6281 62.1379 79.6281Z" fill="#DB8E73"/>
<path d="M68.1297 79.6281C66.6129 79.6281 65.3833 78.3539 65.3833 76.7822C65.3833 75.2104 66.6129 73.9363 68.1297 73.9363C69.6466 73.9363 70.8762 75.2104 70.8762 76.7822C70.8762 78.3539 69.6466 79.6281 68.1297 79.6281Z" fill="#DB8E73"/>
<path d="M62.762 78.2549C63.0577 78.566 63.4137 78.8136 63.8081 78.9829C64.2026 79.1521 64.6274 79.2394 65.0566 79.2394C65.4859 79.2394 65.9106 79.1521 66.3051 78.9829C66.6996 78.8136 67.0555 78.566 67.3513 78.2549" stroke="#B4654A" stroke-width="1.29246" stroke-linecap="round"/>
<path d="M60.0909 64.936C63.5431 62.4096 68.2993 62.6546 71.5793 65.6097C74.8593 68.5639 75.7558 73.4098 73.8216 77.3031C73.784 77.381 73.7287 77.449 73.6601 77.5017C73.5916 77.5543 73.5116 77.5901 73.4266 77.6063C73.3417 77.6224 73.2542 77.6184 73.1711 77.5946C73.0879 77.5708 73.0116 77.5278 72.9481 77.4691L60.0545 65.8556C59.9891 65.7969 59.9374 65.7245 59.9031 65.6436C59.8689 65.5626 59.8529 65.4751 59.8564 65.3872C59.8599 65.2994 59.8827 65.2134 59.9232 65.1354C59.9638 65.0574 60.021 64.9893 60.0909 64.936Z" fill="#FFD900"/>
<path d="M73.0537 115.172C74.471 115.172 75.62 113.981 75.62 112.513C75.62 111.045 74.471 109.854 73.0537 109.854C71.6364 109.854 70.4874 111.045 70.4874 112.513C70.4874 113.981 71.6364 115.172 73.0537 115.172Z" fill="#A0563C"/>
<path d="M57.2148 115.172C58.6322 115.172 59.7811 113.981 59.7811 112.513C59.7811 111.045 58.6322 109.854 57.2148 109.854C55.7975 109.854 54.6486 111.045 54.6486 112.513C54.6486 113.981 55.7975 115.172 57.2148 115.172Z" fill="#A0563C"/>
<path d="M59.9622 100.024H70.3064C70.578 100.024 70.8469 100.078 71.0979 100.182C71.3488 100.286 71.5768 100.438 71.7689 100.63C71.9609 100.822 72.1133 101.05 72.2172 101.301C72.3212 101.552 72.3747 101.821 72.3747 102.093V109.596H57.8939V102.093C57.8939 101.544 58.1118 101.018 58.4997 100.63C58.8876 100.242 59.4137 100.024 59.9622 100.024Z" fill="#3D3D3D"/>
<path d="M69.2722 105.457H60.9964C60.589 105.457 60.1856 105.537 59.8092 105.693C59.4328 105.849 59.0908 106.077 58.8027 106.365C58.5146 106.653 58.286 106.995 58.1301 107.371C57.9742 107.748 57.8939 108.151 57.8939 108.559V114.129C57.8939 116.014 58.6429 117.822 59.976 119.155C61.3091 120.488 63.1172 121.237 65.0025 121.237H65.2661C67.1514 121.237 68.9595 120.488 70.2926 119.155C71.6257 117.822 72.3747 116.014 72.3747 114.129V108.559C72.3747 108.151 72.2944 107.748 72.1385 107.371C71.9826 106.995 71.754 106.653 71.4659 106.365C71.1778 106.077 70.8358 105.849 70.4594 105.693C70.083 105.537 69.6796 105.457 69.2722 105.457Z" fill="#C6775C"/>
<path d="M67.1737 115.262C66.12 115.137 65.3522 114.983 64.8772 114.803C64.4032 114.623 63.7517 114.241 62.9297 113.657L62.69 113.486L62.4734 114.104C62.249 114.745 62.2839 115.449 62.5708 116.065C62.8577 116.681 63.3738 117.16 64.0091 117.401C64.3147 117.516 64.6401 117.571 64.9667 117.561C65.2933 117.551 65.6147 117.476 65.9126 117.342C66.2105 117.208 66.4791 117.016 66.7029 116.778C66.9267 116.54 67.1015 116.26 67.2172 115.955L67.2385 115.896L67.4489 115.295L67.1737 115.262Z" fill="white" stroke="white" stroke-width="0.443841" stroke-linecap="round" stroke-linejoin="round"/>
<path d="M2.11558 147.384H243.485C243.697 147.384 243.907 147.426 244.103 147.507C244.3 147.588 244.478 147.707 244.628 147.857C244.778 148.007 244.897 148.186 244.978 148.382C245.059 148.578 245.101 148.788 245.101 149V154.658C245.101 158.676 241.846 161.933 237.83 161.933H7.77011C3.75513 161.933 0.5 158.675 0.5 154.658V149C0.499884 148.788 0.541586 148.578 0.622724 148.382C0.703862 148.186 0.822847 148.007 0.972879 147.857C1.12291 147.707 1.30105 147.588 1.49712 147.507C1.69319 147.426 1.90334 147.384 2.11558 147.384Z" fill="#C1C9CB"/>
<path opacity="0.25" d="M272.13 -19.1541V115.294L43.9963 -19.1541H272.13Z" fill="white"/>
<path d="M98.0011 40.7476L108.631 33.3834L119.26 41.369L129.89 28.3369L140.519 37.8351L151.149 31.4438" stroke="#FFC800" stroke-width="1.77536"/>
<path d="M107.466 36.7699C108.691 36.7699 109.685 35.7764 109.685 34.5507C109.685 33.3251 108.691 32.3315 107.466 32.3315C106.24 32.3315 105.246 33.3251 105.246 34.5507C105.246 35.7764 106.24 36.7699 107.466 36.7699Z" fill="white" stroke="#FFC800" stroke-width="1.77536"/>
<path d="M95.9257 42.9838C97.1514 42.9838 98.1449 41.9902 98.1449 40.7646C98.1449 39.539 97.1514 38.5454 95.9257 38.5454C94.7001 38.5454 93.7065 39.539 93.7065 40.7646C93.7065 41.9902 94.7001 42.9838 95.9257 42.9838Z" fill="white" stroke="#FFC800" stroke-width="1.77536"/>
<path d="M118.118 43.8713C119.343 43.8713 120.337 42.8777 120.337 41.6521C120.337 40.4264 119.343 39.4329 118.118 39.4329C116.892 39.4329 115.899 40.4264 115.899 41.6521C115.899 42.8777 116.892 43.8713 118.118 43.8713Z" fill="white" stroke="#FFC800" stroke-width="1.77536"/>
<path d="M129.658 31.4438C130.883 31.4438 131.877 30.4502 131.877 29.2246C131.877 27.9989 130.883 27.0054 129.658 27.0054C128.432 27.0054 127.438 27.9989 127.438 29.2246C127.438 30.4502 128.432 31.4438 129.658 31.4438Z" fill="white" stroke="#FFC800" stroke-width="1.77536"/>
<path d="M140.31 40.3207C141.535 40.3207 142.529 39.3272 142.529 38.1015C142.529 36.8759 141.535 35.8823 140.31 35.8823C139.084 35.8823 138.091 36.8759 138.091 38.1015C138.091 39.3272 139.084 40.3207 140.31 40.3207Z" fill="white" stroke="#FFC800" stroke-width="1.77536"/>
<path d="M151.85 33.2192C153.075 33.2192 154.069 32.2256 154.069 31C154.069 29.7743 153.075 28.7808 151.85 28.7808C150.624 28.7808 149.63 29.7743 149.63 31C149.63 32.2256 150.624 33.2192 151.85 33.2192Z" fill="white" stroke="#FFC800" stroke-width="1.77536"/>
<path d="M98.0011 114.425L108.631 107.061L119.26 115.046L129.89 102.014L140.519 111.513L151.149 105.121" stroke="#FFC800" stroke-width="1.77536"/>
<path d="M107.466 110.447C108.691 110.447 109.685 109.454 109.685 108.228C109.685 107.003 108.691 106.009 107.466 106.009C106.24 106.009 105.246 107.003 105.246 108.228C105.246 109.454 106.24 110.447 107.466 110.447Z" fill="white" stroke="#FFC800" stroke-width="1.77536"/>
<path d="M95.9257 116.661C97.1514 116.661 98.1449 115.668 98.1449 114.442C98.1449 113.216 97.1514 112.223 95.9257 112.223C94.7001 112.223 93.7065 113.216 93.7065 114.442C93.7065 115.668 94.7001 116.661 95.9257 116.661Z" fill="white" stroke="#FFC800" stroke-width="1.77536"/>
<path d="M118.118 117.549C119.343 117.549 120.337 116.555 120.337 115.33C120.337 114.104 119.343 113.111 118.118 113.111C116.892 113.111 115.899 114.104 115.899 115.33C115.899 116.555 116.892 117.549 118.118 117.549Z" fill="white" stroke="#FFC800" stroke-width="1.77536"/>
<path d="M129.658 105.121C130.883 105.121 131.877 104.128 131.877 102.902C131.877 101.676 130.883 100.683 129.658 100.683C128.432 100.683 127.438 101.676 127.438 102.902C127.438 104.128 128.432 105.121 129.658 105.121Z" fill="white" stroke="#FFC800" stroke-width="1.77536"/>
<path d="M140.31 113.998C141.535 113.998 142.529 113.005 142.529 111.779C142.529 110.553 141.535 109.56 140.31 109.56C139.084 109.56 138.091 110.553 138.091 111.779C138.091 113.005 139.084 113.998 140.31 113.998Z" fill="white" stroke="#FFC800" stroke-width="1.77536"/>
<path d="M151.85 106.897C153.075 106.897 154.069 105.903 154.069 104.677C154.069 103.452 153.075 102.458 151.85 102.458C150.624 102.458 149.63 103.452 149.63 104.677C149.63 105.903 150.624 106.897 151.85 106.897Z" fill="white" stroke="#FFC800" stroke-width="1.77536"/>
<path d="M98.0011 68.2656L108.631 70.6659L119.26 74.2131L129.89 70.0579L140.519 75.1176L151.149 77.6031" stroke="#FFC800" stroke-width="1.77536"/>
<path d="M107.466 72.2773C108.691 72.2773 109.685 71.2837 109.685 70.0581C109.685 68.8324 108.691 67.8389 107.466 67.8389C106.24 67.8389 105.246 68.8324 105.246 70.0581C105.246 71.2837 106.24 72.2773 107.466 72.2773Z" fill="white" stroke="#FFC800" stroke-width="1.77536"/>
<path d="M95.9257 68.7265C97.1514 68.7265 98.1449 67.7329 98.1449 66.5073C98.1449 65.2817 97.1514 64.2881 95.9257 64.2881C94.7001 64.2881 93.7065 65.2817 93.7065 66.5073C93.7065 67.7329 94.7001 68.7265 95.9257 68.7265Z" fill="white" stroke="#FFC800" stroke-width="1.77536"/>
<path d="M118.118 76.7155C119.343 76.7155 120.337 75.7219 120.337 74.4963C120.337 73.2707 119.343 72.2771 118.118 72.2771C116.892 72.2771 115.899 73.2707 115.899 74.4963C115.899 75.7219 116.892 76.7155 118.118 76.7155Z" fill="white" stroke="#FFC800" stroke-width="1.77536"/>
<path d="M129.658 72.2773C130.883 72.2773 131.877 71.2837 131.877 70.0581C131.877 68.8324 130.883 67.8389 129.658 67.8389C128.432 67.8389 127.438 68.8324 127.438 70.0581C127.438 71.2837 128.432 72.2773 129.658 72.2773Z" fill="white" stroke="#FFC800" stroke-width="1.77536"/>
<path d="M140.31 77.6032C141.535 77.6032 142.529 76.6096 142.529 75.384C142.529 74.1584 141.535 73.1648 140.31 73.1648C139.084 73.1648 138.091 74.1584 138.091 75.384C138.091 76.6096 139.084 77.6032 140.31 77.6032Z" fill="white" stroke="#FFC800" stroke-width="1.77536"/>
<path d="M151.85 80.2663C153.075 80.2663 154.069 79.2727 154.069 78.0471C154.069 76.8215 153.075 75.8279 151.85 75.8279C150.624 75.8279 149.63 76.8215 149.63 78.0471C149.63 79.2727 150.624 80.2663 151.85 80.2663Z" fill="white" stroke="#FFC800" stroke-width="1.77536"/>
</g>
<defs>
<clipPath id="clip0_1_2411">
<rect width="245" height="161.558" fill="white" transform="translate(0.5 0.375)"/>
</clipPath>
</defs>
</svg>
