<svg width="246" height="163" viewBox="0 0 246 163" fill="none" xmlns="http://www.w3.org/2000/svg">
<g clip-path="url(#clip0_1_2614)">
<path d="M215.72 0.84082H29.8813C24.5282 0.84082 20.1887 5.18034 20.1887 10.5334V142.599C20.1887 147.952 24.5282 152.292 29.8813 152.292H215.72C221.073 152.292 225.413 147.952 225.413 142.599V10.5334C225.413 5.18034 221.073 0.84082 215.72 0.84082Z" fill="#5C5B5B"/>
<path d="M204.619 13.5186H39.3636C36.6873 13.5186 34.5177 15.6881 34.5177 18.3644V134.767C34.5177 137.443 36.6873 139.613 39.3636 139.613H204.619C207.295 139.613 209.465 137.443 209.465 134.767V18.3644C209.465 15.6881 207.295 13.5186 204.619 13.5186Z" fill="white"/>
<path d="M34.5967 110.869H209.919V134.809C209.919 136.094 209.408 137.327 208.499 138.236C207.591 139.145 206.358 139.656 205.072 139.656H39.4434C38.8069 139.656 38.1765 139.53 37.5884 139.287C37.0004 139.043 36.466 138.686 36.0159 138.236C35.5659 137.786 35.2089 137.251 34.9654 136.663C34.7218 136.075 34.5966 135.445 34.5967 134.808V110.867V110.869Z" fill="#70D700"/>
<path d="M72.0098 125.097L75.3368 128.387C75.4531 128.503 75.6103 128.567 75.774 128.567C75.9377 128.567 76.0948 128.503 76.2112 128.387L82.5625 122.103" stroke="white" stroke-width="2.79531" stroke-linecap="round"/>
<path d="M176.395 33.8252H73.4497C71.595 33.8252 70.0916 35.3287 70.0916 37.1833V37.1842C70.0916 39.0388 71.595 40.5423 73.4497 40.5423H176.395C178.25 40.5423 179.753 39.0388 179.753 37.1842V37.1833C179.753 35.3287 178.25 33.8252 176.395 33.8252Z" fill="#D2E4E8"/>
<path d="M106.066 33.8252H73.4497C71.595 33.8252 70.0916 35.3287 70.0916 37.1833V37.1842C70.0916 39.0388 71.595 40.5423 73.4497 40.5423H106.066C107.92 40.5423 109.424 39.0388 109.424 37.1842V37.1833C109.424 35.3287 107.92 33.8252 106.066 33.8252Z" fill="#70D700"/>
<path d="M2.11558 147.696H243.485C243.697 147.696 243.907 147.738 244.103 147.819C244.3 147.901 244.478 148.02 244.628 148.17C244.778 148.32 244.897 148.498 244.978 148.694C245.059 148.89 245.101 149.101 245.101 149.313V154.971C245.101 158.988 241.846 162.245 237.83 162.245H7.77011C3.75513 162.245 0.5 158.988 0.5 154.971V149.313C0.499884 149.101 0.541586 148.89 0.622724 148.694C0.703862 148.498 0.822847 148.32 0.972879 148.17C1.12291 148.02 1.30105 147.901 1.49712 147.819C1.69319 147.738 1.90334 147.696 2.11558 147.696Z" fill="#C1C9CB"/>
<path opacity="0.25" d="M273.721 -39.2583V95.1899L45.588 -39.2583H273.721Z" fill="white"/>
<path opacity="0.4" d="M147.756 121.945H92.115C91.3203 121.945 90.676 122.589 90.676 123.384V123.385C90.676 124.179 91.3203 124.824 92.115 124.824H147.756C148.55 124.824 149.195 124.179 149.195 123.385V123.384C149.195 122.589 148.55 121.945 147.756 121.945Z" fill="white"/>
<path opacity="0.4" d="M119.935 127.702H92.115C91.3203 127.702 90.676 128.346 90.676 129.141V129.142C90.676 129.937 91.3203 130.581 92.115 130.581H119.935C120.73 130.581 121.374 129.937 121.374 129.142V129.141C121.374 128.346 120.73 127.702 119.935 127.702Z" fill="white"/>
<path d="M94.0376 59.894H75.6431C72.9957 59.894 70.8496 62.0402 70.8496 64.6875V85.4877C70.8496 88.135 72.9957 90.2811 75.6431 90.2811H94.0376C96.685 90.2811 98.8311 88.135 98.8311 85.4877V64.6875C98.8311 62.0402 96.685 59.894 94.0376 59.894Z" stroke="#D2E4E8" stroke-width="1.59783"/>
<path d="M134.009 59.894H115.615C112.967 59.894 110.821 62.0402 110.821 64.6875V85.4877C110.821 88.135 112.967 90.2811 115.615 90.2811H134.009C136.656 90.2811 138.803 88.135 138.803 85.4877V64.6875C138.803 62.0402 136.656 59.894 134.009 59.894Z" fill="#D2E4E8" stroke="#D2E4E8" stroke-width="1.59783"/>
<path d="M173.98 59.894H155.586C152.939 59.894 150.792 62.0402 150.792 64.6875V85.4877C150.792 88.135 152.939 90.2811 155.586 90.2811H173.98C176.628 90.2811 178.774 88.135 178.774 85.4877V64.6875C178.774 62.0402 176.628 59.894 173.98 59.894Z" stroke="#D2E4E8" stroke-width="1.59783"/>
</g>
<defs>
<clipPath id="clip0_1_2614">
<rect width="245" height="161.558" fill="white" transform="translate(0.5 0.6875)"/>
</clipPath>
</defs>
</svg>
