<svg width="44" height="43" viewBox="0 0 44 43" fill="none" xmlns="http://www.w3.org/2000/svg">
<path fill-rule="evenodd" clip-rule="evenodd" d="M9.45858 13.0743L13.3828 16.1727C13.6602 16.3917 14.0601 16.3572 14.2958 16.0939L20.1955 9.50561C21.1814 8.40461 22.8732 8.31132 23.9742 9.29725C24.0252 9.34286 24.0744 9.39042 24.1217 9.43981L30.508 16.1077C30.7527 16.3632 31.1539 16.384 31.4237 16.1554L35.0592 13.0743C35.7852 12.459 36.8726 12.5487 37.4879 13.2748C37.8484 13.7002 37.9808 14.2738 37.8431 14.8142L33.4681 31.9874C33.2298 32.923 32.3872 33.5778 31.4217 33.5778H12.7941C11.8286 33.5778 10.9861 32.923 10.7477 31.9874L6.43042 15.0408C6.17055 14.0207 6.78682 12.9831 7.8069 12.7232C8.3821 12.5767 8.99272 12.7064 9.45858 13.0743Z" fill="#FFC800"/>
<path fill-rule="evenodd" clip-rule="evenodd" d="M11.8854 17.4051L13.1299 18.5429C13.5602 18.9364 14.2281 18.9065 14.6216 18.4761C14.6381 18.458 14.654 18.4394 14.6693 18.4202L17.7661 14.5197C18.2256 13.941 19.0673 13.8444 19.646 14.3039C19.9384 14.536 20.1206 14.8799 20.1483 15.2523L21.2461 29.9768C21.3011 30.7137 20.7482 31.3557 20.0113 31.4106C19.9782 31.4131 19.945 31.4143 19.9118 31.4143H14.7224C14.1051 31.4143 13.568 30.992 13.4222 30.3921L10.4708 18.2421C10.3588 17.781 10.6418 17.3163 11.1029 17.2043C11.3809 17.1368 11.6743 17.2121 11.8854 17.4051Z" fill="#FFDE00"/>
</svg>
