<svg width="246" height="163" viewBox="0 0 246 163" fill="none" xmlns="http://www.w3.org/2000/svg">
<g clip-path="url(#clip0_1_2376)">
<path fill-rule="evenodd" clip-rule="evenodd" d="M137.511 162.194H38.8458C36.2607 162.194 34.1064 160.04 34.1064 157.455C34.1064 154.87 36.2607 152.715 38.8458 152.715H137.511C140.096 152.715 142.25 154.87 142.25 157.455C142.25 160.04 140.182 162.194 137.511 162.194Z" fill="#AFAFAF" fill-opacity="0.3"/>
<path fill-rule="evenodd" clip-rule="evenodd" d="M126.395 134.103C124.757 130.828 120.794 129.449 117.519 131.087L108.127 135.654C104.852 137.291 103.473 141.255 105.111 144.529C106.748 147.804 110.712 149.182 113.986 147.545L123.379 142.978C126.653 141.341 128.032 137.377 126.395 134.103Z" fill="#F49000"/>
<path fill-rule="evenodd" clip-rule="evenodd" d="M82.7925 145.994C82.7925 142.289 79.7766 139.359 76.1574 139.359H65.7308C62.0255 139.359 59.0957 142.375 59.0957 145.994C59.0957 149.7 62.1117 152.629 65.7308 152.629H76.1574C79.8627 152.629 82.7925 149.7 82.7925 145.994Z" fill="#F49000"/>
<path fill-rule="evenodd" clip-rule="evenodd" d="M12.3916 45.3474C32.9863 37.6782 45.7395 31.9048 50.7374 28.1995C53.581 26.0452 55.6491 22.5984 56.9416 17.859C59.4405 8.63883 68.9193 3.12394 78.1395 5.62288C81.8448 6.65692 85.2054 8.81118 87.532 11.9133L118.812 53.4473C135.787 76.0239 131.307 108.079 108.73 125.141C86.1533 142.117 54.098 137.636 37.0363 115.059L4.55013 71.9739C-1.22328 64.3048 0.327787 53.5335 7.99694 47.7601C9.28948 46.7261 10.7544 45.9505 12.3916 45.3474Z" fill="#58CC02"/>
<path fill-rule="evenodd" clip-rule="evenodd" d="M56.5106 43.2793C62.8872 44.4857 68.1436 39.4878 68.6606 34.0591C69.5223 25.7006 75.8989 32.508 87.7042 54.3953L70.5564 67.3208C56.8553 50.5176 52.2021 42.5038 56.5106 43.2793Z" fill="#89E219"/>
<path fill-rule="evenodd" clip-rule="evenodd" d="M38.3286 48.1049L39.3626 47.3293C47.8073 40.9528 59.8712 42.6762 66.2478 51.1208L73.2275 60.3411C79.6041 68.7857 77.8807 80.8496 69.4361 87.2262L68.402 88.0017C59.9573 94.3783 47.8935 92.6549 41.5169 84.2102L34.5371 74.99C28.1605 66.5453 29.8839 54.4815 38.3286 48.1049Z" fill="#89E219"/>
<path fill-rule="evenodd" clip-rule="evenodd" d="M36.5191 39.6601L59.0957 43.7962C60.3021 44.0547 60.9053 45.3473 60.3021 46.3813C57.4585 51.4654 51.5989 54.2228 45.7393 53.1026C39.8797 51.9824 35.3989 47.1569 34.7095 41.3835C34.5372 40.1771 35.3989 39.4016 36.5191 39.6601Z" fill="#89E219"/>
<path fill-rule="evenodd" clip-rule="evenodd" d="M32.8138 47.5015L55.1318 51.81C56.3382 52.0685 56.9414 53.3611 56.3382 54.3951C53.4946 59.4792 47.635 62.2366 41.7755 61.1164C35.9159 59.9962 31.435 55.1706 30.7457 49.3972C30.5733 48.277 31.6074 47.243 32.8138 47.5015Z" fill="#89E219"/>
<path fill-rule="evenodd" clip-rule="evenodd" d="M70.6426 14.4984L68.7469 33.025C68.6607 33.9728 69.7809 34.8346 70.9873 34.576C76.5883 33.6282 80.8107 29.6643 81.2415 24.8388C81.6724 20.0133 78.2256 15.4463 72.883 13.4643C71.6766 13.1197 70.7288 13.5505 70.6426 14.4984Z" fill="#89E219"/>
<path fill-rule="evenodd" clip-rule="evenodd" d="M79.2595 14.5846L77.3638 33.1112C77.2776 34.059 78.3978 34.9207 79.6042 34.6622C85.2053 33.7143 89.4276 29.7505 89.8585 24.925C90.2893 20.0995 86.8425 15.5324 81.5 13.5505C80.2936 13.2058 79.3457 13.6367 79.2595 14.5846Z" fill="#89E219"/>
<path fill-rule="evenodd" clip-rule="evenodd" d="M75.1233 20.3581C81.7584 15.3602 91.2371 16.6528 96.235 23.2879L108.213 39.1432C113.211 45.7783 111.918 55.257 105.283 60.2549C98.6478 65.2528 89.1691 63.9602 84.1712 57.3251L72.1935 41.4698C67.1957 34.8347 68.4882 25.3559 75.1233 20.3581Z" fill="#89E219"/>
<path fill-rule="evenodd" clip-rule="evenodd" d="M43.3266 52.758C49.5308 48.1048 58.4063 49.3112 63.0595 55.5155L68.3159 62.4953C72.9691 68.6995 71.7627 77.575 65.5585 82.2282C59.3542 86.8814 50.4787 85.675 45.8255 79.4708L40.5691 72.491C35.8298 66.2867 37.1223 57.4112 43.3266 52.758Z" fill="white"/>
<path fill-rule="evenodd" clip-rule="evenodd" d="M48.4969 59.1347C51.4267 56.9804 55.5628 57.4974 57.7171 60.4272L62.1979 66.3729C64.3522 69.3027 63.8352 73.4389 60.9054 75.5932C57.9756 77.7474 53.8394 77.2304 51.6852 74.3006L47.2043 68.3549C45.0501 65.5112 45.6533 61.3751 48.4969 59.1347Z" fill="#4B4B4B"/>
<path fill-rule="evenodd" clip-rule="evenodd" d="M50.9095 65.7697C50.9095 68.1492 48.9805 70.0782 46.601 70.0782C44.2215 70.0782 42.2925 68.1492 42.2925 65.7697C42.2925 63.3902 44.2215 61.4612 46.601 61.4612C48.9805 61.4612 50.9095 63.3902 50.9095 65.7697Z" fill="white"/>
<path fill-rule="evenodd" clip-rule="evenodd" d="M77.881 27.2515C82.8789 23.5462 89.9448 24.4941 93.6501 29.492L102.009 40.6079C105.714 45.6058 104.766 52.6718 99.7682 56.3771C94.7703 60.0824 87.7044 59.1345 83.9991 54.1367L75.6406 43.0207C71.8491 38.0228 72.8831 30.9569 77.881 27.2515Z" fill="white"/>
<path fill-rule="evenodd" clip-rule="evenodd" d="M82.6201 33.542C85.0329 31.7324 88.4797 32.2495 90.2892 34.5761L96.235 42.4175C98.0446 44.8303 97.5275 48.2771 95.2009 50.0867C92.7882 51.8963 89.3414 51.3792 87.5318 49.0526L81.4999 41.125C79.6903 38.7122 80.2073 35.3516 82.6201 33.542Z" fill="#4B4B4B"/>
<path fill-rule="evenodd" clip-rule="evenodd" d="M83.568 43.8825C85.4638 42.4176 85.8085 39.7463 84.4297 37.8506C83.051 35.9549 80.2936 35.524 78.3978 36.9889C76.5021 38.4538 76.1574 41.1251 77.5361 43.0208C78.9148 44.9166 81.6723 45.2612 83.568 43.8825Z" fill="white"/>
<path fill-rule="evenodd" clip-rule="evenodd" d="M51.2543 90.5868L44.7915 82.3144C45.3947 81.7974 60.5606 69.9921 76.5021 73.3527L75.899 76.1102C75.1234 79.9017 72.0213 82.9176 68.1436 83.3485C59.1819 84.3825 51.3404 90.5006 51.2543 90.5868Z" fill="#89E219"/>
<path fill-rule="evenodd" clip-rule="evenodd" d="M91.2373 61.7197L90.0309 60.0824C87.4458 56.5495 82.5341 55.8601 79.0011 58.4452C75.4682 61.0303 74.7788 65.942 77.3639 69.475L78.5703 71.1122C81.1554 74.6452 86.0671 75.3346 89.6001 72.7495C93.0469 70.0782 93.8224 65.1665 91.2373 61.7197Z" fill="#F49000"/>
<path fill-rule="evenodd" clip-rule="evenodd" d="M75.2095 70.1644C72.9691 65.8559 74.2616 60.5133 78.2255 57.4974C82.1893 54.5676 87.7042 54.9123 91.151 58.2729L91.4095 58.5314L88.4797 62.8399L75.2957 70.4229L75.2095 70.1644Z" fill="#FFC200"/>
<path fill-rule="evenodd" clip-rule="evenodd" d="M78.915 62.7536C78.4842 62.8398 78.0533 62.7536 77.7086 62.5813C77.0193 62.1504 76.9331 61.2026 77.3639 60.5994C78.4842 59.0483 79.949 57.9281 81.7586 57.3249C82.5342 57.0664 83.3097 57.4972 83.5682 58.2728C83.8267 59.0483 83.3959 59.8238 82.6203 60.0824C81.4139 60.5132 80.3799 61.2026 79.6905 62.2366C79.5182 62.4951 79.2597 62.6675 78.915 62.7536Z" fill="#FFDE00"/>
<mask id="mask0_1_2376" style="mask-type:luminance" maskUnits="userSpaceOnUse" x="62" y="3" width="103" height="103">
<path d="M119.734 4.97328L125.539 10.0413C126.299 10.7023 127.304 11.0096 128.304 10.8867L135.949 9.93006C139.276 9.51186 142.439 11.4874 143.523 14.6604L146.015 21.9513C146.343 22.9037 147.06 23.6723 147.987 24.0658L155.086 27.0602C158.176 28.3623 159.927 31.6561 159.277 34.9458L157.791 42.5057C157.596 43.4917 157.831 44.5139 158.435 45.3165L163.088 51.4613C165.11 54.1336 164.98 57.8573 162.777 60.3821L157.707 66.1873C157.044 66.9466 156.737 67.9526 156.863 68.9524L157.818 76.5975C158.237 79.9245 156.261 83.0883 153.088 84.1717L145.797 86.6635C144.845 86.9905 144.077 87.7055 143.682 88.6312L140.688 95.7347C139.386 98.8248 136.092 100.575 132.802 99.9251L125.242 98.4396C124.254 98.244 123.229 98.4799 122.425 99.0879L116.282 103.741C113.61 105.762 109.886 105.632 107.362 103.429L101.559 98.3551C100.799 97.6925 99.7933 97.3856 98.7935 97.5117L91.1484 98.4663C87.8214 98.8854 84.6576 96.9095 83.5743 93.736L81.0887 86.4454C80.7608 85.4929 80.0441 84.7243 79.1168 84.3308L72.0175 81.3365C68.9279 80.0337 67.1778 76.7403 67.8271 73.4508L69.3147 65.891C69.507 64.9021 69.2706 63.8782 68.6643 63.0737L64.0133 56.9352C61.9895 54.2637 62.1196 50.5384 64.3248 48.0145L69.393 42.2071C70.0539 41.4469 70.3612 40.4419 70.2384 39.442L69.2817 31.7969C68.8635 28.47 70.839 25.3068 74.012 24.2227L81.3027 21.7372C82.2551 21.4093 83.0237 20.6926 83.4172 19.7653L86.4116 12.666C87.7143 9.57636 91.0077 7.82629 94.2972 8.47554L101.857 9.9632C102.844 10.1535 103.865 9.91713 104.668 9.31252L110.813 4.66176C113.484 2.63799 117.21 2.76809 119.734 4.97328Z" fill="url(#paint0_linear_1_2376)"/>
</mask>
<g mask="url(#mask0_1_2376)">
<path fill-rule="evenodd" clip-rule="evenodd" d="M60.8035 103.385L162.736 106.944L166.296 5.01147L64.363 1.4519L60.8035 103.385Z" fill="url(#paint1_linear_1_2376)"/>
</g>
<path fill-rule="evenodd" clip-rule="evenodd" d="M133.5 48.0601C137.054 56.749 133.935 66.7374 126.068 71.8596C118.201 76.9818 107.805 75.7935 101.296 69.0282C94.0507 71.3585 86.1913 68.8668 81.7112 62.9268C81.2649 62.334 81.1293 61.5633 81.3465 60.8538C81.5637 60.1442 82.1074 59.5815 82.8091 59.3402L92.4169 56.0298L87.8513 49.0033C86.6453 47.1469 86.45 44.8096 87.3312 42.7787C88.2124 40.7479 90.0529 39.294 92.2326 38.9068C97.6838 37.9426 101.205 36.9457 102.796 35.9164C104.386 34.8871 106.689 32.122 109.703 27.6213C110.938 25.7811 113.015 24.6842 115.231 24.7018C117.447 24.7194 119.506 25.8491 120.711 27.7087L125.233 34.6731L132.056 27.3561C132.562 26.8129 133.298 26.5448 134.035 26.6351C134.772 26.7254 135.421 27.1631 135.78 27.8124C139.356 34.2731 138.476 42.3938 133.5 48.0601ZM115.404 79.8833L110.351 78.9873C108.592 78.7068 106.934 79.8903 106.627 81.6448C106.321 83.3993 107.479 85.0748 109.229 85.4073L114.285 86.3013C116.044 86.5819 117.702 85.3984 118.009 83.6438C118.315 81.8893 117.156 80.2136 115.407 79.8813L115.404 79.8833ZM142.882 58.0535C142.044 57.8434 141.157 57.9754 140.417 58.4205C139.676 58.8657 139.143 59.5872 138.936 60.4258L137.697 65.4027C137.318 67.1252 138.377 68.8373 140.088 69.2657C141.8 69.6941 143.541 68.6834 144.018 66.9851L145.254 62.0082C145.691 60.2611 144.629 58.4907 142.882 58.0535Z" fill="white"/>
<path fill-rule="evenodd" clip-rule="evenodd" d="M98.9924 53.3611L36.6914 98.6005C33.3307 101.013 33.3307 106.011 36.6914 108.424C52.719 120.057 74.7786 120.143 91.2371 108.165C107.696 96.1877 114.417 75.2484 108.299 56.3771C107.006 52.4994 102.267 50.9484 98.9924 53.3611Z" fill="#58CC02"/>
<path fill-rule="evenodd" clip-rule="evenodd" d="M133.547 25.0973L145.955 15.7047C148.627 13.7228 152.418 14.2398 154.4 16.9111L161.638 26.5622C163.62 29.2335 163.103 33.025 160.432 35.0069L156.899 37.6781C152.073 41.2973 145.352 40.9526 140.957 36.7303L133.202 29.3196C132.082 28.2856 131.996 26.476 133.116 25.3558C133.288 25.2696 133.374 25.1835 133.547 25.0973Z" fill="#58CC02"/>
</g>
<defs>
<linearGradient id="paint0_linear_1_2376" x1="1606.98" y1="1655.77" x2="8359.4" y2="8896.56" gradientUnits="userSpaceOnUse">
<stop stop-color="#FFC100"/>
<stop offset="1" stop-color="#FFA300"/>
</linearGradient>
<linearGradient id="paint1_linear_1_2376" x1="1606.97" y1="1655.69" x2="8359.07" y2="8896.43" gradientUnits="userSpaceOnUse">
<stop stop-color="#FFC100"/>
<stop offset="1" stop-color="#FFA300"/>
</linearGradient>
<clipPath id="clip0_1_2376">
<rect width="167.17" height="162" fill="white" transform="translate(0.5 0.625)"/>
</clipPath>
</defs>
</svg>
