<svg width="186" height="165" viewBox="0 0 186 165" fill="none" xmlns="http://www.w3.org/2000/svg">
<g clip-path="url(#clip0_1_2307)">
<mask id="mask0_1_2307" style="mask-type:alpha" maskUnits="userSpaceOnUse" x="78" y="4" width="104" height="89">
<path d="M181.273 4.56689H78.0277V92.1199H181.273V4.56689Z" fill="white"/>
</mask>
<g mask="url(#mask0_1_2307)">
<path d="M174.303 -1.77197H84.997C81.1477 -1.77197 78.0277 1.34836 78.0277 5.19748V78.8114C78.0277 82.6608 81.1477 85.7807 84.997 85.7807H174.303C178.152 85.7807 181.273 82.6603 181.273 78.8114V5.19748C181.273 1.34835 178.152 -1.77197 174.303 -1.77197Z" fill="#F7F7F7"/>
<path d="M103.359 71.7177C144.823 71.7177 155.245 38.2948 159.844 23.1887" stroke="#B5E2F7" stroke-width="1.94466" stroke-linecap="round" stroke-linejoin="round"/>
<path fill-rule="evenodd" clip-rule="evenodd" d="M156.386 24.066C155.971 23.9548 155.724 23.5281 155.836 23.113C155.871 22.9792 155.942 22.8575 156.041 22.7603L160.56 18.3101C160.867 18.0083 161.36 18.0117 161.662 18.3177C161.756 18.4123 161.823 18.5292 161.859 18.6574L163.543 24.767C163.657 25.1813 163.414 25.6098 162.998 25.7239C162.865 25.7607 162.724 25.7612 162.59 25.7254" fill="#B5E2F7"/>
<path d="M96.6245 74.866H167.146C167.577 74.866 167.925 75.2147 167.925 75.6446C167.925 76.0741 167.577 76.4227 167.146 76.4227H95.8451C95.4148 76.4227 95.0662 76.0741 95.0662 75.6446V16.0583C95.0662 15.6285 95.4148 15.28 95.8451 15.28C96.2754 15.28 96.6245 15.6285 96.6245 16.0583V74.866Z" fill="#E5E5E5"/>
</g>
<path d="M181.994 0.875H77.5798C75.6432 0.875 74.073 2.44295 74.073 4.37712V5.15535C74.073 7.08952 75.6432 8.65747 77.5798 8.65747H181.994C183.93 8.65747 185.5 7.08952 185.5 5.15535V4.37712C185.5 2.44295 183.93 0.875 181.994 0.875Z" fill="#1CB0F6"/>
<path d="M47.7489 132.891C47.7489 130.941 46.1745 129.432 44.286 129.432H38.8711C36.9822 129.432 35.4082 131.004 35.4082 132.891C35.4082 134.84 36.9822 136.35 38.8711 136.35H44.286C46.1745 136.412 47.7489 134.84 47.7489 132.891Z" fill="#F49000"/>
<path d="M61.7895 136.35C63.4898 136.35 64.9378 135.155 65.1897 133.457C65.5043 131.57 64.245 129.747 62.3564 129.432C61.9786 129.37 61.4749 128.93 60.908 128.238C59.7119 126.728 57.571 126.414 55.9971 127.609C54.4859 128.804 54.1713 130.942 55.3674 132.514C57.0673 134.652 59.0194 135.973 61.1599 136.287C61.4117 136.35 61.6008 136.35 61.7895 136.35Z" fill="#F49000"/>
<path d="M5.6903 112.768L29.8676 80.5715C31.1898 78.8737 33.7713 78.8737 35.0305 80.6347C41.0119 89.1237 40.823 100.631 34.4009 109.184C27.9788 117.736 16.9605 121.069 7.13843 117.673C5.12361 116.982 4.36809 114.529 5.6903 112.768Z" fill="#4B4B4B"/>
<path fill-rule="evenodd" clip-rule="evenodd" d="M7.45375 110.379L13.9388 118.931C11.6722 118.868 9.40556 118.428 7.13892 117.673C5.12414 116.982 4.3686 114.466 5.62783 112.768L7.45375 110.379Z" fill="#58CC02"/>
<path d="M47.3715 95.5383L82.1893 75.0378C84.0782 73.906 86.4709 74.975 86.9115 77.113C89.1782 87.2375 84.5819 97.865 75.3894 103.336C66.1972 108.807 54.6751 107.675 46.8678 100.758C45.2307 99.2482 45.4825 96.6701 47.3715 95.5383Z" fill="#4B4B4B"/>
<path d="M78.8875 82.7938L108.277 49.0869" stroke="#A56644" stroke-width="2.00674" stroke-linecap="round"/>
<path d="M52.7861 59.568C46.5532 63.9699 42.146 66.4224 39.5643 66.9885C37.0459 67.5546 32.0719 67.0513 24.7053 65.6049C19.7943 64.6619 15.0722 67.806 14.1277 72.7108C13.8759 73.9057 13.8759 75.1634 14.1277 76.2955L19.9832 103.776C23.0683 118.302 37.3607 127.609 51.905 124.528C66.4491 121.446 75.7044 107.172 72.6193 92.5825L66.7637 65.0392C65.7566 60.1341 60.9085 57.0527 56.0604 58.0589C54.8642 58.3735 53.7936 58.8136 52.7861 59.568Z" fill="#58CC02"/>
<path d="M34.7788 73.2768L26.7826 67.4286C26.279 67.0512 25.5234 67.3031 25.3345 67.8687C24.8308 69.3783 24.8938 70.9501 25.3975 72.3965L22.6901 70.51C22.1864 70.1326 21.4309 70.3841 21.242 70.9501C20.8013 72.3965 20.8013 73.9688 21.242 75.352C19.0383 77.8046 18.031 81.2002 18.7235 84.7218L19.9198 90.1926C21.1161 95.9153 26.7826 99.6255 32.5122 98.3679L32.764 98.3047C36.9825 97.4244 40.0676 94.0916 40.949 90.1298C41.7677 89.9412 42.9639 89.6897 44.5378 89.3751C45.2306 89.2496 46.3636 88.9981 47.9379 88.6835C50.3302 91.9536 54.486 93.7142 58.7045 92.8339L59.0191 92.7711C64.7487 91.5762 68.4003 85.9167 67.2042 80.194L66.0081 74.7232C65.2525 71.2016 62.8598 68.4976 59.8374 67.1771C59.6487 65.7308 59.0822 64.2844 58.0748 63.2154C57.6338 62.7125 56.8782 62.838 56.5636 63.4041L54.8638 66.2968C54.7378 64.7877 54.1082 63.2782 53.1007 62.1464C52.6602 61.6435 52.0933 61.7063 51.7786 62.2724L46.3636 71.4535C46.3008 71.5162 46.3008 71.579 46.2377 71.6417C43.9081 74.9119 38.9972 75.8553 35.2825 73.7169C35.0936 73.4655 34.9677 73.4027 34.7788 73.2768Z" fill="#89E219"/>
<path d="M53.668 70.3213C49.7013 71.1388 47.1199 75.1005 48.0015 79.0622L48.9457 83.4013C49.7645 87.489 53.668 90.0043 57.6346 89.1868C61.6012 88.3693 64.1826 84.4076 63.3011 80.4458L62.3568 76.1068C61.538 72.0191 57.6346 69.5038 53.668 70.3213Z" fill="white"/>
<path d="M53.5424 75.3525C51.6535 75.7295 50.4573 77.616 50.8351 79.5025L51.6535 83.2128C52.0313 85.0993 53.9202 86.2942 55.8092 85.9168C57.6978 85.5394 58.8943 83.6529 58.5165 81.7664L57.6978 78.0566C57.2572 76.1069 55.4314 74.912 53.5424 75.3525Z" fill="#4B4B4B"/>
<path d="M51.5144 80.3564C50.2625 80.3564 49.2477 79.3428 49.2477 78.0925C49.2477 76.8422 50.2625 75.8286 51.5144 75.8286C52.7664 75.8286 53.7812 76.8422 53.7812 78.0925C53.7812 79.3428 52.7664 80.3564 51.5144 80.3564Z" fill="white"/>
<path d="M28.295 75.7296C24.3283 76.5471 21.7469 80.5088 22.6284 84.4705L23.5728 88.8096C24.4543 92.8341 28.3579 95.3494 32.3245 94.5323C36.2911 93.7148 38.8725 89.753 37.9911 85.7913L37.0467 81.4523C36.1652 77.4278 32.2616 74.8493 28.295 75.7296Z" fill="white"/>
<path d="M30.4355 80.2572C28.5467 80.6345 27.3504 82.521 27.7282 84.4076L28.5467 88.1178C28.9244 90.0043 30.8133 91.1992 32.7022 90.8218C34.591 90.4445 35.7873 88.558 35.4095 86.6714L34.591 82.9612C34.1503 81.0119 32.3244 79.817 30.4355 80.2572Z" fill="#4B4B4B"/>
<path d="M28.476 85.2075C27.2242 85.2075 26.2094 84.1939 26.2094 82.9436C26.2094 81.6933 27.2242 80.6797 28.476 80.6797C29.7278 80.6797 30.7426 81.6933 30.7426 82.9436C30.7426 84.1939 29.7278 85.2075 28.476 85.2075Z" fill="white"/>
<path d="M56.8787 90.8847C58.6417 89.7526 60.7825 88.7463 63.4267 87.9292C64.8751 87.4887 65.7566 85.9796 65.3788 84.4704L64.1823 79.8799C58.2011 81.389 53.4789 83.6529 50.2047 86.5456L53.7308 90.5073C54.4864 91.4504 55.8716 91.5763 56.8787 90.8847Z" fill="#8EE000"/>
<path d="M36.7943 94.7205L38.5572 89.0609C34.3388 87.7401 29.1129 87.6146 23.0686 88.6208L24.013 94.0289C24.2019 95.1606 25.2723 95.9154 26.4056 95.7895C29.6796 95.3493 32.5129 95.4121 34.9054 95.9154C35.724 96.0409 36.5424 95.538 36.7943 94.7205Z" fill="#8EE000"/>
<path d="M43.0894 83.4014C41.0747 83.8415 39.7525 85.854 40.1933 87.8664L40.4451 89.0609C40.8858 91.0734 42.9007 92.3938 44.9152 91.9536C46.9301 91.5135 48.2522 89.5011 47.8116 87.489L47.5598 86.2941C47.1192 84.2817 45.1043 82.9612 43.0894 83.4014Z" fill="#F49000"/>
<path d="M49.071 86.2315C48.1267 84.0303 45.6081 82.8354 43.0894 83.4015C40.697 83.9048 38.9341 86.0428 38.997 88.3694L39.06 88.5581C39.1229 88.7468 39.1859 88.7468 39.3118 88.7468L44.2228 88.5581C44.3487 88.5581 44.3487 88.5581 44.4119 88.4954L49.0078 86.6716C49.1969 86.6716 49.1969 86.6088 49.1969 86.4202L49.071 86.2315Z" fill="#FFC200"/>
<path d="M42.3966 86.0423C42.5225 86.0423 42.6484 85.9795 42.7744 85.9167C43.3413 85.5394 43.9077 85.4134 44.5374 85.5394C44.9784 85.6021 45.3557 85.3507 45.4189 84.9105C45.4817 84.4704 45.2302 84.093 44.7893 84.0302C43.845 83.8415 42.9003 84.0302 42.0188 84.5963C41.6414 84.7846 41.5782 85.2879 41.7673 85.6021C41.8933 85.9167 42.1447 86.0423 42.3966 86.0423Z" fill="#FFDE00"/>
<path d="M70.1137 88.885L73.255 103.647L23.3729 114.236L20.2313 99.4747L70.1137 88.885Z" fill="white"/>
<path fill-rule="evenodd" clip-rule="evenodd" d="M49.1968 93.3369L41.2006 95.0347C41.5154 96.4183 42.8375 97.2359 44.16 96.9844L47.2451 96.3556C48.6299 96.041 49.4487 94.7205 49.1968 93.3369Z" fill="#4B4B4B"/>
<path fill-rule="evenodd" clip-rule="evenodd" d="M46.8669 94.469L43.7817 95.0978L43.2153 100.883C43.0262 102.769 44.4114 104.467 46.3631 104.656C46.7409 104.719 47.0555 104.656 47.4333 104.593C49.3223 104.216 50.5184 102.329 50.0779 100.505C50.0151 100.191 49.8892 99.8139 49.7001 99.4997L46.8669 94.469Z" fill="#4B4B4B"/>
<path fill-rule="evenodd" clip-rule="evenodd" d="M70.8558 81.7036L47.2451 102.392L18.4716 96.3555C18.1568 96.2923 17.779 96.481 17.7161 96.8584C17.7161 96.9216 17.7161 96.9843 17.7161 97.1098L21.6197 123.333C21.8086 124.716 23.1308 125.659 24.453 125.471C24.5159 125.471 24.5159 125.471 24.5789 125.471L72.9966 115.661C74.2559 115.409 75.1374 114.214 75.0115 112.957L71.9264 82.1437C71.8632 81.8291 71.6114 81.5149 71.2336 81.5776C71.1076 81.5776 70.9817 81.6404 70.8558 81.7036Z" fill="#4B4B4B"/>
<path fill-rule="evenodd" clip-rule="evenodd" d="M68.1485 104.656L59.8374 105.977C59.7746 105.977 59.7115 105.977 59.6487 105.977C58.9559 105.977 58.3894 105.411 58.3894 104.719L58.6413 92.4567L69.5337 82.8982C69.5337 82.961 69.5965 83.0241 69.5965 83.0869L69.2818 103.398C69.2187 104.027 68.7781 104.53 68.1485 104.656Z" fill="#1899D6"/>
<path fill-rule="evenodd" clip-rule="evenodd" d="M32.1968 112.831C32.1968 113.46 31.6931 113.963 31.0635 114.026L23.0044 114.843C22.3118 114.906 21.6822 114.403 21.6193 113.711C21.6193 113.648 21.6193 113.586 21.6193 113.586L21.8711 97.0471L32.5117 99.2478L32.1968 112.831Z" fill="#1899D6"/>
<path fill-rule="evenodd" clip-rule="evenodd" d="M42.5631 48.541L30.2226 51.1819C29.9078 51.2451 29.656 51.5593 29.7189 51.9367L33.1189 67.909C33.1818 68.2236 33.4966 68.4751 33.8744 68.4123L46.2151 65.771C46.5297 65.7083 46.7816 65.3937 46.7188 65.0167L43.3187 49.0439C43.2559 48.7297 42.9409 48.4779 42.5631 48.541Z" fill="#4B4B4B"/>
<path fill-rule="evenodd" clip-rule="evenodd" d="M35.5748 47.4724L26.6343 49.3589C26.1305 49.4844 25.8157 49.9877 25.8787 50.4907C26.0046 50.994 26.5083 51.3082 27.012 51.2454L35.9526 49.3589C36.4563 49.233 36.7711 48.7301 36.7081 48.2268C36.6452 47.6611 36.1415 47.3465 35.5748 47.4724Z" fill="#FFD900"/>
<path fill-rule="evenodd" clip-rule="evenodd" d="M49.4262 45.837L22.3524 51.5592C21.471 51.7479 20.9673 52.5655 21.1562 53.4458C21.3451 54.326 22.1636 54.8294 23.045 54.6407L50.1186 48.9184C51.0001 48.7297 51.5038 47.9122 51.3147 47.0319C51.1261 46.2144 50.2445 45.6483 49.4262 45.837Z" fill="#4B4B4B"/>
<path fill-rule="evenodd" clip-rule="evenodd" d="M35.1973 45.6483C34.3158 45.837 33.8122 46.6545 34.001 47.5348L34.2529 48.7925C34.4418 49.6728 35.2603 50.1761 36.1417 49.9874C37.0232 49.7987 37.5269 48.9812 37.338 48.1009L37.0862 46.8432C36.8973 45.9629 36.0788 45.4596 35.1973 45.6483Z" fill="#4B4B4B"/>
<path fill-rule="evenodd" clip-rule="evenodd" d="M26.4551 54.0673C24.8974 53.2908 23.037 53.8889 22.2128 55.4074L19.9567 59.8954C19.8077 60.1797 19.8938 60.5731 20.2268 60.7622L24.7136 63.0207C24.9977 63.1696 25.3912 63.0839 25.5798 62.7508L27.836 58.2628C28.5717 56.7537 28.0128 54.8434 26.4551 54.0673Z" fill="#FFD900"/>
<path d="M24.0998 62.7675L22.9626 62.1715L24.3356 59.479C24.4848 59.1951 24.8693 59.0203 25.2025 59.209C25.4868 59.3579 25.6616 59.7419 25.4727 60.075L24.0998 62.7675Z" fill="#FFC800"/>
<path d="M21.3059 61.3171L23.8327 56.4017C23.9819 56.1179 24.3664 55.9435 24.6997 56.1322C24.984 56.2811 25.1587 56.6651 24.9699 56.9977L22.443 61.9132L21.3059 61.3171Z" fill="#FFC800"/>
<path fill-rule="evenodd" clip-rule="evenodd" d="M27.8303 50.2387L25.9415 50.05L24.6193 55.5213L26.4452 55.9614L27.8303 50.2387Z" fill="#FFD900"/>
<path d="M19.1407 58.9169C20.5889 58.9169 21.911 58.0362 23.1073 56.3384C23.2962 56.0242 23.2332 55.6468 22.9814 55.4581C22.6666 55.2694 22.2888 55.3322 22.0999 55.5841C21.1555 56.9673 20.1481 57.6593 19.1407 57.6593C18.763 57.6593 18.5111 57.9107 18.5111 58.2881C18.5111 58.6651 18.8259 58.9169 19.1407 58.9169Z" fill="#FFD900"/>
<path fill-rule="evenodd" clip-rule="evenodd" d="M86.3059 72.6816L83.4345 72.5955C82.199 72.5586 81.1674 73.5234 81.13 74.7507C81.1227 74.9944 81.1555 75.238 81.2281 75.4714L83.5391 82.9379C83.8776 84.0302 85.0438 84.6439 86.1439 84.3075C86.9344 84.0663 87.5066 83.3829 87.6014 82.5662L88.4615 75.1584C88.6031 73.9385 87.7224 72.8359 86.4946 72.6952C86.4319 72.6878 86.3687 72.6833 86.3059 72.6816Z" fill="#58CC02"/>
<path d="M84.6157 158.082H23.4052C22.0735 158.082 20.9939 159.161 20.9939 160.493C20.9939 161.825 22.0735 162.904 23.4052 162.904H84.6157C85.9474 162.904 87.027 161.825 87.027 160.493C87.027 159.161 85.9474 158.082 84.6157 158.082Z" fill="#E5E5E5"/>
<path d="M20.9939 148.936V155.312C20.9939 156.842 19.7541 158.082 18.2247 158.082H-16.6122C-18.1416 158.082 -19.3814 156.842 -19.3814 155.312V148.936C-19.3814 147.407 -18.1416 146.167 -16.6122 146.167H18.2247C19.7541 146.167 20.9939 147.407 20.9939 148.936Z" fill="#A560E8"/>
<mask id="mask1_1_2307" style="mask-type:alpha" maskUnits="userSpaceOnUse" x="35" y="136" width="41" height="13">
<path d="M75.3807 139.174V145.55C75.3807 147.08 74.1409 148.32 72.6115 148.32H37.7747C36.2452 148.32 35.0054 147.08 35.0054 145.55V139.174C35.0054 137.645 36.2452 136.405 37.7747 136.405H72.6115C74.1409 136.405 75.3807 137.645 75.3807 139.174Z" fill="white"/>
</mask>
<g mask="url(#mask1_1_2307)">
<path d="M46.7062 141.905C47.0858 141.905 47.3936 142.212 47.3936 142.592C47.3936 142.972 47.0858 143.279 46.7062 143.279H38.4459C38.0663 143.279 37.7585 142.972 37.7585 142.592C37.7585 142.212 38.0663 141.905 38.4459 141.905H46.7062Z" fill="#B77FEC"/>
<path d="M51.2943 141.905C51.6739 141.905 51.9817 142.212 51.9817 142.592C51.9817 142.972 51.6739 143.279 51.2943 143.279H49.4574C49.0778 143.279 48.77 142.972 48.77 142.592C48.77 142.212 49.0778 141.905 49.4574 141.905H51.2943Z" fill="#B77FEC"/>
<path d="M70.5642 141.904C70.9438 141.904 71.2516 142.212 71.2516 142.591C71.2516 142.971 70.9438 143.279 70.5642 143.279H65.5156C65.136 143.279 64.8282 142.971 64.8282 142.591C64.8282 142.212 65.136 141.904 65.5156 141.904H70.5642Z" fill="#B77FEC"/>
</g>
<path d="M34.9568 128.471V133.472C34.9568 135.001 33.717 136.241 32.1875 136.241H-14.5785C-16.1079 136.241 -17.3478 135.001 -17.3478 133.472V128.471C-17.3478 126.941 -16.1079 125.701 -14.5785 125.701H32.1875C33.717 125.701 34.9568 126.941 34.9568 128.471Z" fill="#00A0F5"/>
<path opacity="0.25" d="M37.9884 147.632V158.172H33.8591V147.632H37.9884Z" fill="white"/>
<path opacity="0.25" d="M74.2346 147.632V158.172H65.5172V147.632H74.2346Z" fill="white"/>
</g>
<defs>
<clipPath id="clip0_1_2307">
<rect width="185" height="162.029" fill="white" transform="translate(0.5 0.875)"/>
</clipPath>
</defs>
</svg>
