<svg width="186" height="145" viewBox="0 0 186 145" fill="none" xmlns="http://www.w3.org/2000/svg">
<path fill-rule="evenodd" clip-rule="evenodd" d="M63.463 137.267C63.463 133.185 66.7926 129.855 70.8741 129.855H82.4741C86.5556 129.855 89.8852 133.185 89.8852 137.267C89.8852 141.348 86.5556 144.678 82.4741 144.678H70.8741C66.7926 144.678 63.463 141.348 63.463 137.267Z" fill="#F49000"/>
<path fill-rule="evenodd" clip-rule="evenodd" d="M95.4705 137.267C95.4705 133.185 98.8001 129.855 102.882 129.855H114.482C118.563 129.855 121.893 133.185 121.893 137.267C121.893 141.348 118.563 144.678 114.482 144.678H102.882C98.8001 144.678 95.4705 141.348 95.4705 137.267Z" fill="#F49000"/>
<path d="M13.5185 109.233L55.3 33.6186C57.5556 29.6446 63.0334 29.0001 66.1482 32.3297C81.2926 48.5483 84.3 73.1445 73.3445 93.1223C62.3889 113.1 39.9408 123.519 18.1371 119.222C13.626 118.363 11.263 113.315 13.5185 109.233Z" fill="#58CC02"/>
<path d="M171.837 109.233L130.056 33.6187C127.8 29.5372 122.322 28.8928 119.1 32.2224C103.956 48.4409 100.948 73.0372 111.904 93.015C122.859 112.993 145.307 123.411 167.111 119.115C171.73 118.363 174.093 113.315 171.837 109.233Z" fill="#58CC02"/>
<path fill-rule="evenodd" clip-rule="evenodd" d="M61.8519 2.14824C76.8889 8.48527 87.2 11.7075 92.7852 11.7075C98.3704 11.7075 108.467 8.59268 123.289 2.25564C133.063 -1.93325 144.448 2.68527 148.637 12.4593C149.604 14.8223 150.141 17.4001 150.141 19.9779V80.0186C150.141 111.811 124.363 137.589 92.5704 137.589C60.7778 137.482 35 111.811 35 80.0186V19.8705C35 9.23712 43.5926 0.644531 54.3333 0.644531C56.9111 0.644531 59.3815 1.18157 61.8519 2.14824Z" fill="#58CC02"/>
<path d="M88.274 98.2776C88.4888 97.5258 87.9518 96.8813 87.1999 96.8813H72.6999C71.9481 96.8813 71.411 97.6332 71.6259 98.2776C72.8073 101.607 76.137 103.97 79.8962 103.97C83.6555 103.97 87.0925 101.607 88.274 98.2776ZM112.441 96.8813H97.9407C97.1888 96.8813 96.6518 97.6332 96.8666 98.2776C98.0481 101.607 101.378 103.97 105.137 103.97C108.896 103.97 112.333 101.607 113.515 98.2776C113.73 97.6332 113.193 96.8813 112.441 96.8813ZM99.7666 109.018H85.2666C84.5148 109.018 83.9777 109.77 84.1925 110.415C85.374 113.744 88.7036 116.107 92.4629 116.107C96.2222 116.107 99.6592 113.744 100.841 110.415C101.163 109.77 100.626 109.018 99.7666 109.018Z" fill="#89E219"/>
<path d="M65.1814 11.1706L82.5814 30.0743C83.5481 31.0409 83.1184 32.6521 81.9369 33.2965C75.9221 35.9817 68.8332 34.478 64.3221 29.4298C59.811 24.3817 59.0592 17.1854 62.2814 11.4928C63.0332 10.3113 64.2147 10.2039 65.1814 11.1706Z" fill="#89E219"/>
<path fill-rule="evenodd" clip-rule="evenodd" d="M80.2184 27.7114C86.5555 34.1559 97.7258 34.1559 104.707 27.7114C111.689 21.267 103.633 65.0892 103.633 64.8744C103.633 64.8744 99.874 64.767 92.3555 64.8744C90.3147 64.8744 86.6629 64.8744 81.5073 64.8744C76.4592 35.8744 76.0295 23.4151 80.2184 27.7114Z" fill="#89E219"/>
<path d="M55.6222 15.6816L72.5925 34.6927C73.5592 35.6594 73.1296 37.2705 71.9481 37.9149C65.9333 40.6001 58.8444 39.0964 54.3333 34.0483C49.8222 29.0001 49.0703 21.8038 52.4 16.1112C53.0444 14.8223 54.6555 14.7149 55.6222 15.6816Z" fill="#89E219"/>
<path fill-rule="evenodd" clip-rule="evenodd" d="M63.5703 20.9448H64.2148C76.7814 20.9448 86.8777 31.1485 86.8777 43.6078V55.6374C86.8777 68.2041 76.674 78.3004 64.2148 78.3004H63.5703C51.0036 78.3004 40.9073 68.0967 40.9073 55.6374V43.7152C40.9073 31.1485 51.0036 20.9448 63.5703 20.9448Z" fill="#89E219"/>
<path d="M119.744 11.1706L102.667 30.0743C101.7 31.0409 102.13 32.6521 103.311 33.2965C109.326 35.9817 116.415 34.478 120.926 29.4298C125.437 24.3817 126.189 17.1854 122.859 11.4928C122.215 10.3113 120.604 10.2039 119.744 11.1706Z" fill="#89E219"/>
<path d="M129.626 15.6816L112.548 34.6927C111.581 35.6594 112.011 37.2705 113.193 37.9149C119.207 40.6001 126.296 39.0964 130.807 34.0483C135.318 29.0001 136.07 21.8038 132.741 16.1112C132.204 14.8223 130.593 14.7149 129.626 15.6816Z" fill="#89E219"/>
<path fill-rule="evenodd" clip-rule="evenodd" d="M120.818 20.9448H121.463C134.03 20.9448 144.126 31.1485 144.126 43.6078V55.6374C144.126 68.2041 133.922 78.3004 121.463 78.3004H120.926C108.467 78.3004 98.3703 68.2041 98.2629 55.7448L98.1555 43.7152C98.0481 31.1485 108.144 20.9448 120.818 20.9448Z" fill="#89E219"/>
<path fill-rule="evenodd" clip-rule="evenodd" d="M92.6777 55.7446C97.0815 55.7446 100.733 59.3965 100.733 63.8002V66.378C100.733 70.7817 97.0815 74.4335 92.6777 74.4335C88.274 74.4335 84.6222 70.7817 84.6222 66.378V63.8002C84.6222 59.3965 88.274 55.7446 92.6777 55.7446Z" fill="#F49000"/>
<path d="M81.5073 64.3372C82.474 59.3965 87.1999 55.7446 92.7851 55.7446C98.0481 55.7446 102.667 59.5039 103.633 64.3372V64.7668C103.633 65.0891 103.526 65.3039 103.204 65.1965L92.7851 67.0224C92.5703 67.0224 92.5703 67.0224 92.3555 67.0224L81.9369 65.1965C81.6147 65.1965 81.5073 65.0891 81.5073 64.7668V64.3372Z" fill="#FFC200"/>
<path d="M95.0406 61.0078C94.8258 61.0078 94.7184 61.0078 94.5036 60.9004C93.1073 60.3634 91.8184 60.3634 90.6369 60.9004C89.7776 61.2226 88.9184 60.793 88.5962 60.0412C88.2739 59.1819 88.7036 58.3226 89.4554 58.0004C91.3887 57.2486 93.4295 57.2486 95.5776 58.0004C96.4369 58.3226 96.8665 59.1819 96.5443 60.0412C96.3295 60.5782 95.685 61.0078 95.0406 61.0078Z" fill="#FFDE00"/>
<path fill-rule="evenodd" clip-rule="evenodd" d="M64.7518 29.1074C73.4518 29.1074 80.5407 36.1963 80.5407 44.8963V54.4556C80.5407 63.1556 73.4518 70.2445 64.7518 70.2445C56.0518 70.2445 48.9629 63.1556 48.9629 54.4556V44.8963C48.9629 36.1963 56.0518 29.1074 64.7518 29.1074Z" fill="white"/>
<path fill-rule="evenodd" clip-rule="evenodd" d="M67.2221 38.1299C71.3036 38.1299 74.6333 41.4595 74.6333 45.541V53.704C74.6333 57.7854 71.3036 61.1151 67.2221 61.1151C63.1407 61.1151 59.811 57.7854 59.811 53.704V45.541C59.811 41.4595 63.1407 38.1299 67.2221 38.1299Z" fill="#4B4B4B"/>
<path d="M60.9925 47.3669C63.6619 47.3669 65.8258 45.2029 65.8258 42.5335C65.8258 39.8642 63.6619 37.7002 60.9925 37.7002C58.3231 37.7002 56.1592 39.8642 56.1592 42.5335C56.1592 45.2029 58.3231 47.3669 60.9925 47.3669Z" fill="white"/>
<path fill-rule="evenodd" clip-rule="evenodd" d="M120.281 29.1074C128.981 29.1074 136.07 36.1963 136.07 44.8963V54.4556C136.07 63.1556 128.981 70.2445 120.281 70.2445C111.581 70.2445 104.493 63.1556 104.493 54.4556V44.8963C104.493 36.1963 111.581 29.1074 120.281 29.1074Z" fill="white"/>
<path fill-rule="evenodd" clip-rule="evenodd" d="M117.811 38.1299C121.893 38.1299 125.222 41.4595 125.222 45.541V53.704C125.222 57.7854 121.893 61.1151 117.811 61.1151C113.73 61.1151 110.4 57.7854 110.4 53.704V45.541C110.4 41.4595 113.73 38.1299 117.811 38.1299Z" fill="#4B4B4B"/>
<path d="M110.722 47.3669C113.392 47.3669 115.556 45.2029 115.556 42.5335C115.556 39.8642 113.392 37.7002 110.722 37.7002C108.053 37.7002 105.889 39.8642 105.889 42.5335C105.889 45.2029 108.053 47.3669 110.722 47.3669Z" fill="white"/>
</svg>
