<svg width="184" height="220" viewBox="0 0 184 220" fill="none" xmlns="http://www.w3.org/2000/svg">
<path d="M144.321 43.8792C133.526 43.8792 124.774 52.6315 124.774 63.4271V93.5093C124.774 104.306 133.526 113.057 144.321 113.057H158.062C159.602 113.057 161.079 112.445 162.168 111.356C163.257 110.267 163.869 108.789 163.869 107.249V63.4271C163.869 52.6315 155.118 43.8792 144.321 43.8792Z" fill="#EA2B2B"/>
<path d="M91.4974 197.394C92.2042 200.511 91.4177 203.486 89.137 206.321" stroke="#F49000" stroke-width="11.979" stroke-linecap="round" stroke-linejoin="round"/>
<path d="M40.7334 43.8379H133.3C143.725 43.8379 152.176 52.289 152.176 62.7139V158.195C152.176 168.62 143.725 177.071 133.3 177.071H40.7334C30.3085 177.071 21.8574 168.62 21.8574 158.195V62.7139C21.8574 52.289 30.3085 43.8379 40.7334 43.8379Z" fill="#FF4B4B"/>
<path d="M85.289 43.8379H39.1513C28.6005 43.8379 20.048 52.8707 20.048 64.0137V156.896C20.048 168.039 28.6005 177.072 39.1513 177.072H85.289C95.8398 177.072 104.392 168.039 104.392 156.896V64.0137C104.392 52.8707 95.8398 43.8379 85.289 43.8379Z" fill="#FF4B4B"/>
<path d="M25.3544 53.5865L32.8619 50.7026C33.7519 50.395 34.7265 50.4452 35.5802 50.8427C36.4338 51.2402 37.0996 51.9538 37.437 52.833L43.651 69.0396C43.996 69.9384 43.9698 70.9375 43.5782 71.8169C43.1866 72.6964 42.4617 73.3843 41.5629 73.7293L22.2258 81.158V64.0136C22.2258 60.2149 23.3331 56.6032 25.3544 53.5865Z" fill="#1CB0F6" stroke="#FFDE00" stroke-width="4.356"/>
<path d="M72.0779 76.8845L72.0816 76.8808C76.4293 73.3627 82.8066 74.0346 86.3257 78.3823C89.8475 82.7338 89.1765 89.1165 84.8269 92.6402L77.7961 98.3363L77.7915 98.34C73.4438 101.859 67.0665 101.187 63.5483 96.8394C60.0265 92.488 60.6975 86.1053 65.0471 82.5807L72.0779 76.8845Z" fill="white" stroke="#F49000" stroke-width="4.356"/>
<path d="M121.406 61.3948C121.406 51.6984 129.267 43.8379 138.963 43.8379C148.66 43.8379 156.52 51.6984 156.52 61.3948V159.514C156.52 169.21 148.66 177.071 138.963 177.071C129.267 177.071 121.406 169.21 121.406 159.514V61.3948Z" fill="#EA2B2B"/>
<path d="M149.152 109.633L160.751 112.311C164.853 113.258 167.41 117.351 166.463 121.453L158.487 156.004C157.54 160.107 153.446 162.664 149.344 161.717L137.745 159.04C133.643 158.092 131.086 153.999 132.033 149.897L140.009 115.346C140.956 111.243 145.05 108.686 149.152 109.633Z" fill="#CCF8F7"/>
<path d="M162.94 121.231C155.347 124.52 150.268 126.481 147.704 127.112C145.509 127.654 143.543 126.857 141.804 124.72C141.675 124.562 141.505 124.443 141.312 124.377C141.119 124.311 140.911 124.301 140.712 124.347C140.514 124.393 140.332 124.494 140.188 124.639C140.044 124.783 139.944 124.965 139.898 125.164L134.373 149.34C133.923 151.308 134.272 153.374 135.344 155.085C136.416 156.796 138.122 158.012 140.09 158.466L147.836 160.254C149.804 160.709 151.872 160.363 153.586 159.294C155.3 158.225 156.519 156.52 156.976 154.552L164.433 122.477C164.479 122.281 164.469 122.076 164.405 121.884C164.341 121.693 164.225 121.524 164.07 121.395C163.915 121.265 163.727 121.182 163.528 121.153C163.328 121.124 163.125 121.151 162.94 121.231Z" fill="#47D7FF"/>
<path d="M151.408 100.026L164.097 102.956C165.073 103.181 165.682 104.156 165.457 105.132L164.644 108.653C164.419 109.63 163.444 110.239 162.467 110.014L149.779 107.084C148.802 106.859 148.193 105.884 148.419 104.907L149.232 101.387C149.457 100.41 150.432 99.8009 151.408 100.026Z" fill="#1899D6"/>
<path d="M148.78 106.814L162.533 109.989C163.508 110.214 164.115 111.187 163.89 112.161C163.666 113.136 162.693 113.743 161.718 113.518L147.965 110.343C146.99 110.118 146.383 109.146 146.608 108.171C146.833 107.197 147.805 106.589 148.78 106.814Z" fill="#CCF8F7"/>
<path d="M16.0659 178.041C7.46911 178.041 0.500011 170.877 0.500011 162.04C0.500011 153.203 7.46911 146.04 16.0659 146.04C24.6627 146.04 31.6318 153.203 31.6318 162.04C31.6318 170.877 24.6627 178.041 16.0659 178.041Z" fill="#78C800"/>
<path d="M28.0203 141.214H42.4834C51.2848 141.214 58.4197 148.349 58.4197 157.151C58.4197 165.952 51.2848 173.087 42.4834 173.087H28.0203C19.2189 173.087 12.084 165.952 12.084 157.151C12.084 148.349 19.2189 141.214 28.0203 141.214Z" stroke="#FF4B4B" stroke-width="6.897"/>
<path d="M87.2908 87.793C68.2938 93.4241 55.9757 96.2392 50.3354 96.2392C47.1234 96.2392 43.7785 94.878 40.3006 92.1545C33.5292 86.8525 23.7411 88.0442 18.4391 94.8165C16.2939 97.5565 15.1282 100.936 15.1281 104.416V151.178C15.1281 176.627 35.7586 197.258 61.2089 197.258C86.6574 197.258 107.289 176.627 107.289 151.177V102.724C107.289 94.1235 100.317 87.1514 91.7156 87.1514C90.2177 87.1514 88.7272 87.3677 87.2908 87.793Z" fill="#78C800"/>
<path fill-rule="evenodd" clip-rule="evenodd" d="M54.4366 110.211C50.472 114.535 43.9985 113.816 40.6792 110.169C35.5367 104.638 34.6485 112.94 38.0172 135.075H57.3149C58.0391 115.616 57.0802 107.328 54.4366 110.211Z" fill="#8EE000"/>
<path fill-rule="evenodd" clip-rule="evenodd" d="M70.1199 103.847H68.9713C59.4233 103.847 51.683 111.587 51.683 121.136V131.533C51.683 141.081 59.4233 148.821 68.9713 148.821H70.1199C79.6679 148.821 87.4082 141.081 87.4082 131.533V121.136C87.4082 111.588 79.6679 103.847 70.1199 103.847Z" fill="#8EE000"/>
<path d="M66.7769 96.7964L52.8051 111.981C52.0717 112.795 52.3449 114.086 53.3441 114.529C58.1446 116.665 63.8729 115.461 67.4855 111.449C71.099 107.437 71.6985 101.616 69.0722 97.0669C68.5259 96.1181 67.5102 95.9834 66.7769 96.7964Z" fill="#8EE000"/>
<path d="M73.7315 100.406L60.0558 115.59C59.3225 116.404 59.5956 117.695 60.5948 118.138C65.3954 120.274 71.1236 119.07 74.7362 115.058C78.3497 111.046 78.9492 105.225 76.323 100.675C76.1956 100.455 76.018 100.268 75.8048 100.13C75.5915 99.9921 75.3486 99.9064 75.0959 99.8802C74.8432 99.8539 74.5878 99.8878 74.3507 99.979C74.1136 100.07 73.9014 100.217 73.7315 100.406ZM28.4546 97.3556L39.8085 109.635C40.4025 110.295 40.0358 111.472 39.0843 111.96C34.5092 114.307 29.3942 113.757 26.4655 110.505C23.5367 107.254 23.523 102.11 26.3344 97.8075C26.9201 96.911 27.8597 96.6965 28.4546 97.3556Z" fill="#8EE000"/>
<path fill-rule="evenodd" clip-rule="evenodd" d="M28.5821 103.847C21.0846 103.847 15.0071 109.925 15.0071 117.421V135.246C15.0071 142.743 21.0846 148.821 28.5821 148.821C36.0795 148.821 42.157 142.743 42.157 135.246V117.421C42.157 109.925 36.0795 103.846 28.5821 103.846V103.847Z" fill="#8EE000"/>
<path d="M69.0271 109.865C62.022 109.865 56.3423 115.545 56.3423 122.55V130.377C56.3423 137.383 62.022 143.061 69.0271 143.061C76.0332 143.061 81.7129 137.383 81.7129 130.377V122.55C81.7129 115.545 76.0332 109.865 69.0271 109.865Z" fill="white"/>
<mask id="mask0_1_2502" style="mask-type:luminance" maskUnits="userSpaceOnUse" x="52" y="106" width="34" height="41">
<path d="M69.0271 109.865C62.0219 109.865 56.3422 115.545 56.3422 122.55V130.377C56.3422 137.382 62.0219 143.061 69.0271 143.061C76.0332 143.061 81.7119 137.382 81.7119 130.377V122.55C81.7119 115.545 76.0332 109.865 69.0271 109.865Z" stroke="#8EE000" stroke-width="7.623"/>
</mask>
<g mask="url(#mask0_1_2502)">
<path d="M82.6689 137.6C74.0339 137.482 66.0709 140.258 58.7769 145.927" stroke="#8EE000" stroke-width="7.623"/>
</g>
<path d="M30.3513 110.228C24.7477 110.228 20.2047 114.771 20.2047 120.375V132.915C20.2047 138.519 24.7477 143.063 30.3522 143.063C35.9558 143.063 40.4988 138.519 40.4988 132.915V120.375C40.4988 114.771 35.9558 110.228 30.3513 110.228Z" fill="white"/>
<path d="M30.3513 110.228C24.7477 110.228 20.2047 114.771 20.2047 120.375V132.915C20.2047 138.519 24.7477 143.063 30.3522 143.063C35.9558 143.063 40.4988 138.519 40.4988 132.915V120.375C40.4988 114.771 35.9558 110.228 30.3513 110.228Z" fill="white"/>
<path fill-rule="evenodd" clip-rule="evenodd" d="M29.5784 114.781C28.9366 114.78 28.301 114.907 27.708 115.152C27.115 115.398 26.5762 115.758 26.1223 116.212C25.6685 116.665 25.3084 117.204 25.0628 117.797C24.8172 118.39 24.6907 119.025 24.6907 119.667V128.728C24.6907 129.369 24.8171 130.005 25.0627 130.598C25.3083 131.191 25.6682 131.729 26.122 132.183C26.5758 132.637 27.1145 132.997 27.7074 133.242C28.3003 133.488 28.9357 133.614 29.5775 133.614C30.2192 133.614 30.8547 133.488 31.4476 133.242C32.0404 132.997 32.5792 132.637 33.0329 132.183C33.4867 131.729 33.8467 131.191 34.0922 130.598C34.3378 130.005 34.4642 129.369 34.4642 128.728V119.667C34.464 118.372 33.9491 117.129 33.0329 116.213C32.1167 115.297 30.8741 114.781 29.5784 114.781ZM64.6913 114.418C63.1072 114.418 61.5879 115.048 60.4678 116.168C59.3476 117.288 58.7183 118.807 58.7183 120.391V127.279C58.7183 128.863 59.3476 130.383 60.4678 131.503C61.5879 132.623 63.1072 133.252 64.6913 133.252C66.2754 133.252 67.7947 132.623 68.9149 131.503C70.035 130.383 70.6643 128.863 70.6643 127.279V120.391C70.6643 118.807 70.035 117.288 68.9149 116.168C67.7947 115.048 66.2754 114.418 64.6913 114.418Z" fill="#4B4B4B"/>
<path fill-rule="evenodd" clip-rule="evenodd" d="M46.8145 132.062C45.0981 132.062 43.452 132.744 42.2383 133.958C41.0246 135.172 40.3428 136.818 40.3428 138.534V146.597C40.3428 148.314 41.0246 149.96 42.2383 151.173C43.452 152.387 45.0981 153.069 46.8145 153.069C48.5309 153.069 50.177 152.387 51.3906 151.173C52.6043 149.96 53.2861 148.314 53.2861 146.597V138.534C53.2861 136.818 52.6043 135.172 51.3906 133.958C50.177 132.744 48.5309 132.062 46.8145 132.062Z" fill="#F49000"/>
<path d="M46.0905 134.959C44.8423 134.959 43.6453 135.455 42.7627 136.337C41.8801 137.22 41.3843 138.417 41.3843 139.665V145.465C41.3843 146.713 41.8801 147.91 42.7627 148.793C43.6453 149.675 44.8423 150.171 46.0905 150.171C47.3386 150.171 48.5357 149.675 49.4182 148.793C50.3008 147.91 50.7966 146.713 50.7966 145.465V139.665C50.7966 138.417 50.3008 137.22 49.4182 136.337C48.5357 135.455 47.3386 134.959 46.0905 134.959Z" fill="#CD7900"/>
<mask id="mask1_1_2502" style="mask-type:luminance" maskUnits="userSpaceOnUse" x="41" y="134" width="10" height="17">
<path d="M46.0905 134.959C45.4724 134.959 44.8605 135.081 44.2895 135.317C43.7185 135.554 43.1997 135.9 42.7627 136.337C42.3257 136.774 41.979 137.293 41.7425 137.864C41.506 138.435 41.3843 139.047 41.3843 139.665V145.465C41.3843 146.713 41.8801 147.91 42.7627 148.793C43.6453 149.675 44.8423 150.171 46.0905 150.171C47.3386 150.171 48.5356 149.675 49.4182 148.793C50.3008 147.91 50.7966 146.713 50.7966 145.465V139.665C50.7966 138.417 50.3008 137.22 49.4182 136.337C48.5356 135.455 47.3386 134.959 46.0905 134.959V134.959Z" fill="#FFBABA"/>
</mask>
<g mask="url(#mask1_1_2502)">
<path d="M50.9012 156.92C46.8025 156.92 43.4798 153.595 43.4798 149.495C43.4798 145.394 46.8025 142.07 50.9012 142.07C54.9999 142.07 58.3225 145.394 58.3225 149.495C58.3225 153.595 54.9999 156.92 50.9012 156.92Z" fill="#FFBABA"/>
</g>
<path d="M55.3093 138.536C54.5971 134.23 50.7902 131.025 46.2967 131.025C41.8032 131.025 37.9972 134.23 37.2858 138.536L37.2363 138.832L41.6886 140.361L55.3579 138.832L55.3093 138.536Z" fill="#FFC200"/>
<path d="M48.1089 133.963C46.7663 133.503 45.3091 133.503 43.9665 133.963" stroke="#FFDE00" stroke-width="2.59508" stroke-linecap="round" stroke-linejoin="round"/>
<path d="M69.6927 122.016C67.5482 122.016 65.8097 120.274 65.8097 118.125C65.8097 115.977 67.5482 114.235 69.6927 114.235C71.8372 114.235 73.5757 115.977 73.5757 118.125C73.5757 120.274 71.8372 122.016 69.6927 122.016Z" fill="white"/>
<path fill-rule="evenodd" clip-rule="evenodd" d="M34.4817 122.74C33.9713 122.74 33.4659 122.639 32.9944 122.443C32.5229 122.247 32.0946 121.961 31.7339 121.599C31.3733 121.238 31.0873 120.809 30.8924 120.337C30.6974 119.866 30.5973 119.36 30.5978 118.85C30.5973 118.339 30.6974 117.834 30.8924 117.362C31.0873 116.89 31.3733 116.461 31.7339 116.1C32.0946 115.739 32.5229 115.452 32.9944 115.256C33.4659 115.061 33.9713 114.96 34.4817 114.959C34.9921 114.96 35.4975 115.061 35.9688 115.256C36.4402 115.452 36.8684 115.739 37.229 116.1C37.5895 116.461 37.8754 116.89 38.0703 117.362C38.2652 117.834 38.3652 118.339 38.3647 118.85C38.3652 119.36 38.2652 119.865 38.0703 120.337C37.8754 120.809 37.5895 121.238 37.229 121.599C36.8684 121.96 36.4402 122.247 35.9688 122.443C35.4975 122.638 34.9921 122.739 34.4817 122.74Z" fill="white"/>
<path fill-rule="evenodd" clip-rule="evenodd" d="M15.5499 139.217C15.8241 140.225 16.1997 141.202 16.671 142.134C20.7227 144.074 29.0854 146.164 35.8807 146.164C38.3007 146.164 38.8837 143.101 37.7296 142.541C30.8637 139.213 23.7687 138.05 16.4455 139.052C16.1054 139.098 15.8075 139.154 15.5499 139.217Z" fill="#8EE000"/>
<path d="M63.2935 164.399L51.6775 164.395C51.0542 164.395 50.6142 164.969 50.8067 165.53C51.7307 168.224 54.4184 170.086 57.4874 170.086C60.5564 170.088 63.244 168.229 64.1662 165.534C64.3587 164.974 63.9159 164.399 63.2935 164.399ZM44.1077 164.399L32.4917 164.395C31.8684 164.395 31.4284 164.969 31.6209 165.53C32.5449 168.224 35.2325 170.086 38.3015 170.086C41.3705 170.088 44.0582 168.229 44.9804 165.534C45.1729 164.974 44.7301 164.399 44.1077 164.399ZM53.1579 174.178L41.541 174.174C40.9186 174.174 40.4777 174.749 40.6702 175.309C41.5951 178.004 44.2828 179.865 47.3518 179.865C50.4208 179.867 53.1075 178.008 54.0297 175.314C54.2222 174.753 53.7804 174.178 53.1579 174.178Z" fill="#8EE000"/>
<path d="M26.8771 197.97C28.1348 200.907 30.5199 202.851 34.0308 203.803" stroke="#F49000" stroke-width="11.979" stroke-linecap="round" stroke-linejoin="round"/>
<path d="M50.7691 0.375H41.816C32.1929 0.375 24.392 8.17583 24.392 17.799V26.4138C24.392 36.037 32.1929 43.8378 41.816 43.8378H68.1931V17.799C68.194 8.17767 60.3932 0.375 50.7691 0.375Z" fill="#1CB0F6"/>
<path d="M62.8068 3.27271H102.54C111.16 3.27271 118.149 10.2611 118.149 18.8817V28.229C118.149 36.8496 111.16 43.838 102.54 43.838H62.8068C54.1861 43.838 47.1978 36.8496 47.1978 28.229V18.8817C47.1978 10.2611 54.1861 3.27271 62.8068 3.27271Z" fill="#AA572A"/>
<path d="M73.3117 0.375H98.1891C108.213 0.375 116.339 8.50103 116.339 18.525V25.6878C116.339 35.7118 108.213 43.8378 98.1891 43.8378H73.3117C63.2877 43.8378 55.1617 35.7118 55.1617 25.6878V18.525C55.1617 8.50103 63.2877 0.375 73.3117 0.375Z" fill="#1CB0F6"/>
<path d="M107.332 3.27271H133.309C141.93 3.27271 148.918 10.2611 148.918 18.8817V28.229C148.918 36.8496 141.93 43.838 133.309 43.838H107.332C98.7114 43.838 91.723 36.8496 91.723 28.229V18.8817C91.723 10.2611 98.7114 3.27271 107.332 3.27271Z" fill="#AA572A"/>
<path d="M118.198 0.375H139.819C149.643 0.375 157.606 8.33851 157.606 18.162V26.0508C157.606 35.8743 149.643 43.8378 139.819 43.8378H118.198C108.375 43.8378 100.411 35.8743 100.411 26.0508V18.162C100.411 8.33851 108.375 0.375 118.198 0.375Z" fill="#1CB0F6"/>
<path d="M141.724 0.375H144.167C153.189 0.375 160.502 7.68843 160.502 16.71V27.5028C160.502 36.5244 153.189 43.8378 144.167 43.8378H141.724C132.702 43.8378 125.389 36.5244 125.389 27.5028V16.71C125.389 7.68843 132.702 0.375 141.724 0.375Z" fill="#0190D3"/>
<path d="M159.766 145.198H121.769V177.071H159.766C160.921 177.071 162.029 176.612 162.846 175.795C163.663 174.979 164.122 173.871 164.122 172.716V149.554C164.122 148.399 163.663 147.291 162.846 146.474C162.03 145.657 160.922 145.198 159.766 145.198Z" fill="#EA2B2B"/>
<path d="M153.986 150.631C152.973 150.631 152.139 151.428 152.092 152.44L151.57 163.675C151.554 164.001 151.606 164.328 151.72 164.634C151.835 164.941 152.01 165.22 152.236 165.457C152.462 165.694 152.734 165.882 153.034 166.011C153.335 166.139 153.659 166.206 153.986 166.206C154.313 166.206 154.637 166.139 154.937 166.011C155.238 165.882 155.51 165.694 155.735 165.457C155.961 165.22 156.137 164.941 156.251 164.634C156.366 164.328 156.417 164.001 156.402 163.675L155.88 152.44C155.857 151.953 155.648 151.493 155.295 151.156C154.943 150.819 154.474 150.631 153.986 150.631ZM132.019 87.3008C131.007 87.3008 130.173 88.0964 130.126 89.1084L129.603 100.344C129.588 100.671 129.64 100.997 129.755 101.303C129.869 101.609 130.045 101.889 130.271 102.126C130.496 102.362 130.768 102.55 131.069 102.679C131.369 102.808 131.693 102.874 132.02 102.874C132.347 102.874 132.67 102.808 132.971 102.679C133.272 102.55 133.543 102.362 133.769 102.126C133.995 101.889 134.17 101.609 134.285 101.303C134.4 100.997 134.451 100.671 134.436 100.344L133.914 89.1084C133.891 88.6214 133.682 88.1618 133.329 87.8252C132.976 87.4885 132.506 87.3007 132.019 87.3008Z" fill="#DF8A8A"/>
<path opacity="0.551" d="M155.793 81.1433H131.184C130.582 81.1433 130.095 81.631 130.095 82.2323V84.0381C130.095 84.6395 130.582 85.1271 131.184 85.1271H155.793C156.082 85.1271 156.359 85.0124 156.563 84.8082C156.768 84.604 156.882 84.327 156.882 84.0381V82.2323C156.882 81.631 156.395 81.1433 155.793 81.1433Z" fill="#D8D8D8"/>
<path d="M91.5506 140.49H99.8583C108.96 140.49 116.338 147.868 116.338 156.97C116.338 166.071 108.96 173.449 99.8583 173.449H91.5506C82.449 173.449 75.0707 166.071 75.0707 156.97C75.0707 147.868 82.449 140.49 91.5506 140.49Z" stroke="#EA2B2B" stroke-width="6.897"/>
<path d="M96.9717 180.87C86.2759 180.87 77.6053 172.035 77.6053 161.135C77.6053 150.236 86.2759 141.4 96.9717 141.4C107.667 141.4 116.338 150.236 116.338 161.135C116.338 172.035 107.667 180.87 96.9717 180.87Z" fill="#78C800"/>
<path d="M110.173 215.685H19.0964" stroke="#E2E2E2" stroke-width="7.26733" stroke-linecap="round" stroke-linejoin="round"/>
</svg>
