<svg width="44" height="43" viewBox="0 0 44 43" fill="none" xmlns="http://www.w3.org/2000/svg">
<path d="M22.4388 35.1022C28.2547 35.1022 32.9694 30.4292 32.9694 24.6646C32.9694 18.9001 28.2547 14.2271 22.4388 14.2271C16.6229 14.2271 11.9082 18.9001 11.9082 24.6646C11.9082 30.4292 16.6229 35.1022 22.4388 35.1022Z" fill="#FF9600"/>
<path fill-rule="evenodd" clip-rule="evenodd" d="M23.9886 9.56799L30.6615 18.1294C30.8727 18.4003 31.0036 18.7252 31.0392 19.0669C31.0748 19.4086 31.0137 19.7535 30.8629 20.0622C30.7121 20.3709 30.4776 20.631 30.1861 20.8129C29.8947 20.9948 29.558 21.0912 29.2144 21.0911H15.6641C15.3206 21.0913 14.984 20.9949 14.6926 20.8131C14.4011 20.6313 14.1666 20.3713 14.0157 20.0628C13.8648 19.7542 13.8036 19.4094 13.839 19.0678C13.8745 18.7261 14.0051 18.4013 14.2162 18.1303L20.8891 9.56799C21.0729 9.33239 21.308 9.14181 21.5766 9.01073C21.8451 8.87965 22.14 8.81152 22.4388 8.81152C22.7376 8.81152 23.0325 8.87965 23.3011 9.01073C23.5696 9.14181 23.8047 9.33239 23.9886 9.56799Z" fill="#FF9600"/>
<path fill-rule="evenodd" clip-rule="evenodd" d="M14.9375 13.1192L28.4228 21.8026C28.745 22.0102 28.9941 22.3135 29.1351 22.6699C29.2761 23.0263 29.3018 23.4179 29.2088 23.7897C29.1157 24.1615 28.9086 24.4949 28.6163 24.7429C28.3241 24.9909 27.9615 25.1411 27.5795 25.1724L13.8923 26.2957C13.6398 26.3164 13.3858 26.2846 13.1462 26.2022C12.9066 26.1199 12.6866 25.9888 12.5002 25.8172C12.3138 25.6457 12.165 25.4373 12.0631 25.2054C11.9612 24.9734 11.9084 24.7228 11.9082 24.4695V14.7717C11.9083 14.4186 12.0035 14.0722 12.1838 13.7686C12.364 13.4651 12.6227 13.2157 12.9326 13.0467C13.2425 12.8776 13.5922 12.7952 13.945 12.8079C14.2978 12.8207 14.6406 12.9282 14.9375 13.1192Z" fill="#FF9600"/>
<path d="M22.4388 30.8465C24.9207 30.8465 26.9327 28.8639 26.9327 26.4184C26.9327 23.9728 24.9207 21.9902 22.4388 21.9902C19.9568 21.9902 17.9448 23.9728 17.9448 26.4184C17.9448 28.8639 19.9568 30.8465 22.4388 30.8465Z" fill="#FFC800"/>
<path fill-rule="evenodd" clip-rule="evenodd" d="M23.1013 20.015L25.9366 23.6323C26.0277 23.7481 26.0843 23.8873 26.1 24.0339C26.1157 24.1804 26.0899 24.3284 26.0255 24.461C25.961 24.5935 25.8606 24.7052 25.7356 24.7834C25.6107 24.8616 25.4662 24.903 25.3189 24.9029H19.5586C19.4112 24.903 19.2668 24.8616 19.1418 24.7834C19.0169 24.7052 18.9165 24.5935 18.852 24.461C18.7876 24.3284 18.7617 24.1804 18.7774 24.0339C18.7931 23.8873 18.8497 23.7481 18.9408 23.6323L21.7762 20.015C21.855 19.9146 21.9556 19.8335 22.0704 19.7777C22.1852 19.7219 22.3111 19.6929 22.4387 19.6929C22.5664 19.6929 22.6923 19.7219 22.8071 19.7777C22.9219 19.8335 23.0225 19.9146 23.1013 20.015Z" fill="#FFC800"/>
</svg>
