<svg width="361" height="361" viewBox="0 0 361 361" fill="none" xmlns="http://www.w3.org/2000/svg">
<g clip-path="url(#clip0_1_2885)">
<path d="M180.344 360.5C279.755 360.5 360.344 279.911 360.344 180.5C360.344 81.0887 279.755 0.5 180.344 0.5C80.9324 0.5 0.34375 81.0887 0.34375 180.5C0.34375 279.911 80.9324 360.5 180.344 360.5Z" fill="#24D4DE" fill-opacity="0.04"/>
<path d="M180.726 331.898C264.13 331.898 331.742 264.286 331.742 180.882C331.742 97.4779 264.13 29.8657 180.726 29.8657C97.3217 29.8657 29.7095 97.4779 29.7095 180.882C29.7095 264.286 97.3217 331.898 180.726 331.898Z" fill="#24D4DE" fill-opacity="0.06"/>
<path d="M180.822 307.074C250.463 307.074 306.919 250.619 306.919 180.978C306.919 111.336 250.463 54.8809 180.822 54.8809C111.18 54.8809 54.7245 111.336 54.7245 180.978C54.7245 250.619 111.18 307.074 180.822 307.074Z" fill="#49C0F8"/>
<path opacity="0.732096" fill-rule="evenodd" clip-rule="evenodd" d="M95.6749 196.235C118.485 196.235 136.977 214.726 136.977 237.537C136.977 258.578 121.242 275.944 100.898 278.511L100.895 278.513C76.7718 258.722 60.1223 230.157 55.8224 197.694L55.8238 197.692C59.3003 196.742 62.9597 196.235 66.7375 196.235H95.6749Z" fill="#58A700"/>
<path opacity="0.732096" fill-rule="evenodd" clip-rule="evenodd" d="M162.934 91.7975C162.934 111.999 148.429 128.814 129.266 132.395L128.685 132.499L128.726 132.796C128.963 134.588 129.086 136.416 129.086 138.273C129.086 161.083 110.594 179.574 87.7839 179.574H58.8465C57.5198 179.574 56.2077 179.512 54.913 179.389L54.9103 179.388C55.6178 122.117 94.5049 74.0407 147.295 59.4346L147.297 59.4362C156.824 67.0022 162.934 78.6864 162.934 91.7975Z" fill="#58A700"/>
<path opacity="0.732096" fill-rule="evenodd" clip-rule="evenodd" d="M249.658 153.618C272.468 153.618 290.959 172.11 290.959 194.92C290.959 201.994 289.181 208.653 286.046 214.474L295.385 216.268C297.455 216.665 299.464 217.245 301.395 217.991L301.399 217.992C295.196 238.223 284.041 256.288 269.349 270.774L249.833 270.771C230.656 270.771 215.083 255.343 214.848 236.222L211.601 236.221C188.79 236.221 170.299 217.73 170.299 194.92C170.299 172.11 188.79 153.618 211.601 153.618H249.658Z" fill="#58A700"/>
<path opacity="0.732096" fill-rule="evenodd" clip-rule="evenodd" d="M241.377 70.3457C264.04 82.7766 282.467 101.968 293.945 125.206L274.557 125.208C271.302 135.77 261.464 143.446 249.833 143.446H236.855C222.568 143.446 210.986 131.865 210.986 117.578C210.986 103.84 221.696 92.6025 235.223 91.7605C235.2 91.25 235.189 90.7359 235.189 90.2192C235.189 82.8763 237.45 76.0618 241.316 70.4344L241.377 70.3457Z" fill="#58A700"/>
<path fill-rule="evenodd" clip-rule="evenodd" d="M259.479 253.935C266.617 253.935 272.712 258.4 275.123 264.689C267.343 273.449 258.36 281.117 248.434 287.434L210.373 287.432C201.123 287.432 193.624 279.933 193.624 270.683C193.624 261.433 201.123 253.935 210.373 253.935H259.479Z" fill="#BBF3F6"/>
<path d="M185.118 75.0488H165.125C155.875 75.0488 148.376 82.5475 148.376 91.7975C148.376 101.047 155.875 108.546 165.125 108.546H185.118C194.368 108.546 201.867 101.047 201.867 91.7975C201.867 82.5475 194.368 75.0488 185.118 75.0488Z" fill="#BBF3F6"/>
<path fill-rule="evenodd" clip-rule="evenodd" d="M95.9938 87.6768L107.323 87.6785C116.573 87.6785 124.072 95.1771 124.072 104.427C124.072 106.694 123.621 108.856 122.805 110.829L128.193 110.828C137.443 110.828 144.942 118.327 144.942 127.577C144.942 136.827 137.443 144.326 128.193 144.326H108.2C98.9498 144.326 91.4512 136.827 91.4512 127.577C91.4512 125.31 91.9017 123.148 92.718 121.175H69.7792C76.5175 108.689 85.3002 97.4699 95.6788 87.9644L95.9938 87.6768Z" fill="#BBF3F6"/>
</g>
<defs>
<clipPath id="clip0_1_2885">
<rect width="360" height="360" fill="white" transform="translate(0.34375 0.5)"/>
</clipPath>
</defs>
</svg>
