<svg width="44" height="44" viewBox="0 0 44 44" fill="none" xmlns="http://www.w3.org/2000/svg">
<path fill-rule="evenodd" clip-rule="evenodd" d="M10.979 20.8055C10.979 14.5907 16.017 9.55273 22.2317 9.55273C28.4464 9.55273 33.4844 14.5907 33.4844 20.8055V21.1465C35.5157 22.1384 36.915 24.2244 36.915 26.6372C36.915 30.0097 34.1809 32.7438 30.8084 32.7438H13.5177C10.145 32.7438 7.41101 30.0097 7.41101 26.6372C7.41101 24.1703 8.87367 22.0451 10.979 21.0815V20.8055Z" fill="#9069CD"/>
<path fill-rule="evenodd" clip-rule="evenodd" d="M13.5281 26.3667C11.9131 26.0485 10.6949 24.6246 10.6949 22.9162C10.6949 21.1784 11.9554 19.735 13.612 19.4503C14.256 15.4341 17.7372 12.3657 21.935 12.3657C26.1328 12.3657 29.614 15.4341 30.2579 19.4505C31.9141 19.7355 33.1742 21.1787 33.1742 22.9162C33.1742 24.6243 31.9565 26.048 30.3418 26.3665C30.0214 30.7297 26.3799 34.1701 21.935 34.1701C17.49 34.1701 13.8486 30.7298 13.5281 26.3667Z" fill="#F3AD6D"/>
<path fill-rule="evenodd" clip-rule="evenodd" d="M19.0745 20.1875C19.0745 19.619 19.5353 19.1582 20.1037 19.1582C20.6721 19.1582 21.1329 19.619 21.1329 20.1875V22.932C21.1329 23.5004 20.6721 23.9612 20.1037 23.9612C19.5353 23.9612 19.0745 23.5004 19.0745 22.932V20.1875Z" fill="#BF8034"/>
<path fill-rule="evenodd" clip-rule="evenodd" d="M22.6426 20.1875C22.6426 19.619 23.1034 19.1582 23.6718 19.1582C24.2402 19.1582 24.701 19.619 24.701 20.1875V22.932C24.701 23.5004 24.2402 23.9612 23.6718 23.9612C23.1034 23.9612 22.6426 23.5004 22.6426 22.932V20.1875Z" fill="#BF8034"/>
<path d="M19.0743 25.5088H24.8528C25.2106 25.5088 25.5007 25.7988 25.5007 26.1567V26.4927C25.5007 28.4462 23.9171 30.0298 21.9636 30.0298C20.0101 30.0298 18.4264 28.4462 18.4264 26.4927V26.1567C18.4264 25.7988 18.7165 25.5088 19.0743 25.5088Z" fill="white"/>
<path fill-rule="evenodd" clip-rule="evenodd" d="M24.5788 12.1464L25.0621 12.7181V14.6522L22.5594 17.246L19.0468 19.0922L15.1393 19.7516H12.9003V18.5648L14.1735 15.949L15.9297 13.6852L19.7494 11.7949H23.0423L24.5788 12.1464Z" fill="#9069CD"/>
<path d="M11.3348 20.1186H14.2694C17.9072 20.0938 23.6972 19.5766 25.5836 12.9191C25.6801 12.5283 25.7729 12.0764 25.862 11.5635" stroke="#9069CD" stroke-width="1.85712"/>
</svg>
