<svg width="193" height="77" viewBox="0 0 193 77" fill="none" xmlns="http://www.w3.org/2000/svg">
<g filter="url(#filter0_d_1_2492)">
<rect x="0.5" y="0.84668" width="192" height="68.5781" rx="16" fill="white"/>
<rect x="1.5" y="1.84668" width="190" height="66.5781" rx="15" stroke="#E5E5E5" stroke-width="2"/>
</g>
<g clip-path="url(#clip0_1_2492)">
<path fill-rule="evenodd" clip-rule="evenodd" d="M35.0474 18.8168C35.0474 18.6103 35.0638 18.417 35.0952 18.2377L47.9603 31.8195L35.0746 45.423C35.0566 45.283 35.0474 45.1353 35.0474 44.98V18.8168ZM36.4652 47.0894C36.9386 47.1659 37.4999 47.0507 38.1004 46.7153L53.7673 37.95L49.4449 33.3867L36.4652 47.0894ZM50.9294 31.8195L55.7086 36.8649L61.5311 33.6078C63.2097 32.6674 63.2097 31.1295 61.5311 30.1913L55.6097 26.8785L50.9294 31.8195ZM53.6691 25.7927L38.1004 17.0825C37.6174 16.8116 37.1596 16.6838 36.7535 16.6838C36.701 16.6838 36.6492 16.686 36.5984 16.6902L49.4449 30.2523L53.6691 25.7927Z" fill="#4B4B4B"/>
</g>
<path d="M84.2953 21.4326C84.2406 21.2425 84.1638 21.0745 84.0648 20.9287C83.9659 20.7803 83.8448 20.6553 83.7015 20.5537C83.5609 20.4495 83.3995 20.3701 83.2172 20.3154C83.0375 20.2607 82.8383 20.2334 82.6195 20.2334C82.2107 20.2334 81.8513 20.335 81.5414 20.5381C81.2341 20.7412 80.9945 21.0368 80.8226 21.4248C80.6508 21.8102 80.5648 22.2816 80.5648 22.8389C80.5648 23.3962 80.6495 23.8701 80.8187 24.2607C80.988 24.6514 81.2276 24.9495 81.5375 25.1553C81.8474 25.3584 82.2133 25.46 82.6351 25.46C83.0179 25.46 83.3448 25.3923 83.6156 25.2568C83.889 25.1188 84.0974 24.9248 84.2406 24.6748C84.3864 24.4248 84.4594 24.1292 84.4594 23.7881L84.8031 23.8389H82.7406V22.5654H86.0883V23.5732C86.0883 24.2764 85.9398 24.8805 85.6429 25.3857C85.3461 25.8883 84.9372 26.2764 84.4164 26.5498C83.8955 26.8206 83.2992 26.9561 82.6273 26.9561C81.8773 26.9561 81.2185 26.7907 80.6508 26.46C80.083 26.1266 79.6403 25.654 79.3226 25.042C79.0075 24.4274 78.85 23.6982 78.85 22.8545C78.85 22.2061 78.9437 21.6279 79.1312 21.1201C79.3213 20.6097 79.587 20.1774 79.9281 19.8232C80.2692 19.4691 80.6664 19.1995 81.1195 19.0146C81.5726 18.8298 82.0635 18.7373 82.5922 18.7373C83.0453 18.7373 83.4672 18.8037 83.8578 18.9365C84.2484 19.0667 84.5948 19.2516 84.8969 19.4912C85.2015 19.7308 85.4502 20.016 85.6429 20.3467C85.8357 20.6748 85.9594 21.0368 86.014 21.4326H84.2953ZM90.0619 26.9639C89.4447 26.9639 88.9135 26.8389 88.4681 26.5889C88.0254 26.3363 87.6843 25.9795 87.4447 25.5186C87.2051 25.055 87.0853 24.5068 87.0853 23.874C87.0853 23.2568 87.2051 22.7152 87.4447 22.249C87.6843 21.7829 88.0215 21.4196 88.4564 21.1592C88.8939 20.8988 89.4069 20.7686 89.9955 20.7686C90.3913 20.7686 90.7598 20.8324 91.101 20.96C91.4447 21.085 91.7442 21.2738 91.9994 21.5264C92.2572 21.779 92.4577 22.0967 92.601 22.4795C92.7442 22.8597 92.8158 23.305 92.8158 23.8154V24.2725H87.7494V23.2412H91.2494C91.2494 23.0016 91.1973 22.7894 91.0931 22.6045C90.989 22.4196 90.8444 22.2751 90.6595 22.1709C90.4773 22.0641 90.265 22.0107 90.0228 22.0107C89.7702 22.0107 89.5463 22.0693 89.351 22.1865C89.1582 22.3011 89.0072 22.4561 88.8978 22.6514C88.7885 22.8441 88.7325 23.0589 88.7299 23.2959V24.2764C88.7299 24.5732 88.7845 24.8298 88.8939 25.0459C89.0059 25.262 89.1635 25.4287 89.3666 25.5459C89.5697 25.6631 89.8106 25.7217 90.0892 25.7217C90.2741 25.7217 90.4434 25.6956 90.597 25.6436C90.7507 25.5915 90.8822 25.5133 90.9916 25.4092C91.101 25.305 91.1843 25.1774 91.2416 25.0264L92.7806 25.1279C92.7025 25.4977 92.5424 25.8206 92.3002 26.0967C92.0606 26.3701 91.7507 26.5837 91.3705 26.7373C90.9929 26.8883 90.5567 26.9639 90.0619 26.9639ZM97.0931 20.8467V22.0967H93.4799V20.8467H97.0931ZM94.3002 19.4092H95.9642V25.0029C95.9642 25.1566 95.9877 25.2764 96.0345 25.3623C96.0814 25.4456 96.1465 25.5042 96.2299 25.5381C96.3158 25.5719 96.4148 25.5889 96.5267 25.5889C96.6049 25.5889 96.683 25.5824 96.7611 25.5693C96.8392 25.5537 96.8991 25.542 96.9408 25.5342L97.2025 26.7725C97.1192 26.7985 97.002 26.8285 96.851 26.8623C96.6999 26.8988 96.5163 26.9209 96.3002 26.9287C95.8991 26.9443 95.5476 26.891 95.2455 26.7686C94.946 26.6462 94.7129 26.4561 94.5463 26.1982C94.3796 25.9404 94.2976 25.6149 94.3002 25.2217V19.4092ZM100.723 26.8467V20.8467H102.387V26.8467H100.723ZM101.559 20.0732C101.312 20.0732 101.099 19.9912 100.922 19.8271C100.748 19.6605 100.661 19.4613 100.661 19.2295C100.661 19.0003 100.748 18.8037 100.922 18.6396C101.099 18.473 101.312 18.3896 101.559 18.3896C101.806 18.3896 102.017 18.473 102.192 18.6396C102.369 18.8037 102.457 19.0003 102.457 19.2295C102.457 19.4613 102.369 19.6605 102.192 19.8271C102.017 19.9912 101.806 20.0732 101.559 20.0732ZM106.911 20.8467V22.0967H103.298V20.8467H106.911ZM104.119 19.4092H105.783V25.0029C105.783 25.1566 105.806 25.2764 105.853 25.3623C105.9 25.4456 105.965 25.5042 106.048 25.5381C106.134 25.5719 106.233 25.5889 106.345 25.5889C106.423 25.5889 106.501 25.5824 106.579 25.5693C106.658 25.5537 106.717 25.542 106.759 25.5342L107.021 26.7725C106.938 26.7985 106.82 26.8285 106.669 26.8623C106.518 26.8988 106.335 26.9209 106.119 26.9287C105.717 26.9443 105.366 26.891 105.064 26.7686C104.764 26.6462 104.531 26.4561 104.365 26.1982C104.198 25.9404 104.116 25.6149 104.119 25.2217V19.4092ZM113.252 26.9639C112.646 26.9639 112.121 26.835 111.678 26.5771C111.238 26.3167 110.898 25.9548 110.659 25.4912C110.419 25.0251 110.299 24.4847 110.299 23.8701C110.299 23.2503 110.419 22.7087 110.659 22.2451C110.898 21.779 111.238 21.417 111.678 21.1592C112.121 20.8988 112.646 20.7686 113.252 20.7686C113.859 20.7686 114.383 20.8988 114.823 21.1592C115.265 21.417 115.606 21.779 115.846 22.2451C116.086 22.7087 116.205 23.2503 116.205 23.8701C116.205 24.4847 116.086 25.0251 115.846 25.4912C115.606 25.9548 115.265 26.3167 114.823 26.5771C114.383 26.835 113.859 26.9639 113.252 26.9639ZM113.26 25.6748C113.536 25.6748 113.767 25.5967 113.952 25.4404C114.136 25.2816 114.276 25.0654 114.37 24.792C114.466 24.5186 114.514 24.2074 114.514 23.8584C114.514 23.5094 114.466 23.1982 114.37 22.9248C114.276 22.6514 114.136 22.4352 113.952 22.2764C113.767 22.1175 113.536 22.0381 113.26 22.0381C112.981 22.0381 112.747 22.1175 112.557 22.2764C112.37 22.4352 112.228 22.6514 112.131 22.9248C112.037 23.1982 111.991 23.5094 111.991 23.8584C111.991 24.2074 112.037 24.5186 112.131 24.792C112.228 25.0654 112.37 25.2816 112.557 25.4404C112.747 25.5967 112.981 25.6748 113.26 25.6748ZM118.952 23.3779V26.8467H117.287V20.8467H118.873V21.9053H118.944C119.077 21.5563 119.299 21.2803 119.612 21.0771C119.924 20.8714 120.303 20.7686 120.748 20.7686C121.165 20.7686 121.528 20.8597 121.838 21.042C122.148 21.2243 122.389 21.4847 122.561 21.8232C122.733 22.1592 122.819 22.5602 122.819 23.0264V26.8467H121.155V23.3232C121.157 22.9561 121.064 22.6696 120.873 22.4639C120.683 22.2555 120.422 22.1514 120.088 22.1514C119.864 22.1514 119.666 22.1995 119.495 22.2959C119.325 22.3923 119.192 22.5329 119.096 22.7178C119.002 22.9001 118.954 23.1201 118.952 23.3779Z" fill="#4B4B4B"/>
<path d="M86.2285 41.1436C86.1589 40.9016 86.0612 40.6878 85.9352 40.5022C85.8093 40.3133 85.6551 40.1542 85.4728 40.0249C85.2939 39.8924 85.0884 39.7913 84.8564 39.7217C84.6277 39.6521 84.3741 39.6173 84.0957 39.6173C83.5754 39.6173 83.118 39.7465 82.7236 40.0051C82.3325 40.2636 82.0275 40.6398 81.8088 41.1336C81.59 41.6241 81.4807 42.224 81.4807 42.9333C81.4807 43.6426 81.5884 44.2458 81.8038 44.743C82.0192 45.2401 82.3242 45.6196 82.7186 45.8815C83.113 46.14 83.5787 46.2693 84.1156 46.2693C84.6028 46.2693 85.0188 46.1831 85.3635 46.0107C85.7115 45.8351 85.9766 45.5882 86.1589 45.27C86.3445 44.9518 86.4373 44.5756 86.4373 44.1414L86.8748 44.2061H84.2498V42.5853H88.5105V43.868C88.5105 44.7629 88.3216 45.5318 87.9437 46.1748C87.5659 46.8145 87.0455 47.3083 86.3826 47.6563C85.7198 48.001 84.9608 48.1734 84.1057 48.1734C83.1511 48.1734 82.3126 47.9629 81.59 47.542C80.8675 47.1177 80.304 46.5162 79.8997 45.7373C79.4986 44.9551 79.2981 44.0271 79.2981 42.9532C79.2981 42.1279 79.4174 41.3921 79.6561 40.7458C79.898 40.0962 80.2361 39.546 80.6703 39.0953C81.1045 38.6445 81.6099 38.3015 82.1866 38.0661C82.7633 37.8308 83.3881 37.7132 84.0609 37.7132C84.6376 37.7132 85.1745 37.7977 85.6717 37.9667C86.1689 38.1324 86.6097 38.3677 86.9942 38.6727C87.3819 38.9776 87.6985 39.3405 87.9437 39.7615C88.189 40.1791 88.3464 40.6398 88.416 41.1436H86.2285ZM93.538 48.1833C92.7658 48.1833 92.0979 48.0193 91.5345 47.6911C90.9743 47.3597 90.5418 46.899 90.2369 46.309C89.9319 45.7158 89.7795 45.028 89.7795 44.2458C89.7795 43.457 89.9319 42.7676 90.2369 42.1776C90.5418 41.5844 90.9743 41.1237 91.5345 40.7955C92.0979 40.4641 92.7658 40.2984 93.538 40.2984C94.3103 40.2984 94.9765 40.4641 95.5366 40.7955C96.1 41.1237 96.5342 41.5844 96.8391 42.1776C97.1441 42.7676 97.2965 43.457 97.2965 44.2458C97.2965 45.028 97.1441 45.7158 96.8391 46.309C96.5342 46.899 96.1 47.3597 95.5366 47.6911C94.9765 48.0193 94.3103 48.1833 93.538 48.1833ZM93.548 46.5427C93.8993 46.5427 94.1926 46.4433 94.4279 46.2444C94.6632 46.0422 94.8406 45.7671 94.9599 45.4191C95.0825 45.0711 95.1438 44.675 95.1438 44.2309C95.1438 43.7868 95.0825 43.3907 94.9599 43.0427C94.8406 42.6947 94.6632 42.4196 94.4279 42.2174C94.1926 42.0152 93.8993 41.9142 93.548 41.9142C93.1933 41.9142 92.895 42.0152 92.6531 42.2174C92.4144 42.4196 92.2338 42.6947 92.1112 43.0427C91.9918 43.3907 91.9322 43.7868 91.9322 44.2309C91.9322 44.675 91.9918 45.0711 92.1112 45.4191C92.2338 45.7671 92.4144 46.0422 92.6531 46.2444C92.895 46.4433 93.1933 46.5427 93.548 46.5427ZM102.124 48.1833C101.352 48.1833 100.684 48.0193 100.12 47.6911C99.5603 47.3597 99.1277 46.899 98.8228 46.309C98.5179 45.7158 98.3654 45.028 98.3654 44.2458C98.3654 43.457 98.5179 42.7676 98.8228 42.1776C99.1277 41.5844 99.5603 41.1237 100.12 40.7955C100.684 40.4641 101.352 40.2984 102.124 40.2984C102.896 40.2984 103.562 40.4641 104.123 40.7955C104.686 41.1237 105.12 41.5844 105.425 42.1776C105.73 42.7676 105.882 43.457 105.882 44.2458C105.882 45.028 105.73 45.7158 105.425 46.309C105.12 46.899 104.686 47.3597 104.123 47.6911C103.562 48.0193 102.896 48.1833 102.124 48.1833ZM102.134 46.5427C102.485 46.5427 102.779 46.4433 103.014 46.2444C103.249 46.0422 103.427 45.7671 103.546 45.4191C103.668 45.0711 103.73 44.675 103.73 44.2309C103.73 43.7868 103.668 43.3907 103.546 43.0427C103.427 42.6947 103.249 42.4196 103.014 42.2174C102.779 42.0152 102.485 41.9142 102.134 41.9142C101.779 41.9142 101.481 42.0152 101.239 42.2174C101 42.4196 100.82 42.6947 100.697 43.0427C100.578 43.3907 100.518 43.7868 100.518 44.2309C100.518 44.675 100.578 45.0711 100.697 45.4191C100.82 45.7671 101 46.0422 101.239 46.2444C101.481 46.4433 101.779 46.5427 102.134 46.5427ZM110.7 51.0569C110.014 51.0569 109.426 50.9624 108.935 50.7735C108.448 50.5879 108.06 50.3344 107.772 50.0129C107.483 49.6914 107.296 49.3301 107.21 48.9291L109.169 48.6656C109.228 48.818 109.323 48.9606 109.452 49.0931C109.581 49.2257 109.752 49.3318 109.964 49.4113C110.18 49.4942 110.441 49.5356 110.75 49.5356C111.21 49.5356 111.59 49.4229 111.888 49.1975C112.19 48.9755 112.341 48.6026 112.341 48.0789V46.6819H112.251C112.158 46.894 112.019 47.0945 111.833 47.2835C111.648 47.4724 111.409 47.6265 111.118 47.7458C110.826 47.8651 110.478 47.9248 110.074 47.9248C109.5 47.9248 108.978 47.7922 108.507 47.5271C108.04 47.2586 107.667 46.8493 107.389 46.2991C107.114 45.7456 106.976 45.0463 106.976 44.2011C106.976 43.336 107.117 42.6135 107.399 42.0335C107.681 41.4535 108.055 41.0193 108.522 40.7309C108.993 40.4426 109.508 40.2984 110.069 40.2984C110.496 40.2984 110.854 40.3713 111.142 40.5171C111.431 40.6597 111.663 40.8386 111.838 41.0541C112.017 41.2662 112.155 41.475 112.251 41.6805H112.331V40.3978H114.434V48.1088C114.434 48.7584 114.275 49.3019 113.956 49.7394C113.638 50.1769 113.197 50.5051 112.634 50.7238C112.074 50.9459 111.429 51.0569 110.7 51.0569ZM110.745 46.3339C111.086 46.3339 111.374 46.2494 111.61 46.0803C111.848 45.908 112.031 45.6627 112.157 45.3445C112.286 45.0231 112.351 44.6386 112.351 44.1911C112.351 43.7437 112.288 43.3559 112.162 43.0278C112.036 42.6963 111.853 42.4395 111.615 42.2572C111.376 42.0749 111.086 41.9838 110.745 41.9838C110.397 41.9838 110.103 42.0782 109.865 42.2671C109.626 42.4527 109.445 42.7113 109.323 43.0427C109.2 43.3741 109.139 43.757 109.139 44.1911C109.139 44.632 109.2 45.0131 109.323 45.3346C109.449 45.6528 109.629 45.8997 109.865 46.0754C110.103 46.2477 110.397 46.3339 110.745 46.3339ZM118.237 37.8524V48.0342H116.119V37.8524H118.237ZM123.414 48.1833C122.628 48.1833 121.952 48.0242 121.385 47.7061C120.822 47.3846 120.387 46.9305 120.083 46.3438C119.778 45.7539 119.625 45.0562 119.625 44.2508C119.625 43.4653 119.778 42.7759 120.083 42.1826C120.387 41.5893 120.817 41.127 121.37 40.7955C121.927 40.4641 122.58 40.2984 123.329 40.2984C123.833 40.2984 124.302 40.3796 124.736 40.542C125.173 40.7011 125.555 40.9414 125.879 41.2629C126.208 41.5844 126.463 41.9887 126.645 42.4759C126.827 42.9598 126.919 43.5266 126.919 44.1762V44.7579H120.47V43.4454H124.925C124.925 43.1405 124.859 42.8704 124.726 42.635C124.593 42.3997 124.41 42.2158 124.174 42.0832C123.942 41.9473 123.672 41.8794 123.364 41.8794C123.042 41.8794 122.757 41.9539 122.509 42.1031C122.263 42.2489 122.071 42.4461 121.932 42.6947C121.793 42.94 121.722 43.2134 121.718 43.515V44.7629C121.718 45.1407 121.788 45.4672 121.927 45.7423C122.07 46.0174 122.27 46.2295 122.529 46.3786C122.787 46.5278 123.094 46.6024 123.448 46.6024C123.684 46.6024 123.899 46.5692 124.095 46.5029C124.29 46.4366 124.458 46.3372 124.597 46.2046C124.736 46.0721 124.842 45.9097 124.915 45.7174L126.874 45.8467C126.774 46.3173 126.571 46.7283 126.262 47.0796C125.957 47.4276 125.563 47.6994 125.079 47.895C124.598 48.0872 124.043 48.1833 123.414 48.1833ZM131.581 48.0342V37.8524H135.598C136.37 37.8524 137.028 37.9999 137.571 38.2948C138.115 38.5865 138.529 38.9925 138.814 39.5129C139.103 40.0299 139.247 40.6265 139.247 41.3026C139.247 41.9788 139.101 42.5754 138.809 43.0924C138.518 43.6095 138.095 44.0122 137.542 44.3005C136.991 44.5889 136.325 44.733 135.543 44.733H132.983V43.0079H135.195C135.609 43.0079 135.951 42.9366 136.219 42.7941C136.491 42.6483 136.693 42.4478 136.826 42.1926C136.962 41.934 137.029 41.6374 137.029 41.3026C137.029 40.9646 136.962 40.6696 136.826 40.4177C136.693 40.1625 136.491 39.9653 136.219 39.8261C135.947 39.6836 135.603 39.6123 135.185 39.6123H133.733V48.0342H131.581ZM142.723 37.8524V48.0342H140.605V37.8524H142.723ZM146.597 48.1784C146.11 48.1784 145.676 48.0938 145.295 47.9248C144.914 47.7525 144.612 47.4989 144.39 47.1642C144.171 46.8261 144.062 46.4052 144.062 45.9014C144.062 45.4771 144.14 45.1208 144.295 44.8325C144.451 44.5441 144.663 44.3121 144.932 44.1365C145.2 43.9608 145.505 43.8282 145.847 43.7387C146.191 43.6492 146.553 43.5863 146.93 43.5498C147.375 43.5034 147.732 43.4603 148.004 43.4205C148.276 43.3775 148.473 43.3145 148.596 43.2316C148.719 43.1488 148.78 43.0261 148.78 42.8637V42.8339C148.78 42.519 148.68 42.2754 148.482 42.1031C148.286 41.9307 148.008 41.8445 147.646 41.8445C147.265 41.8445 146.962 41.9291 146.737 42.0981C146.511 42.2638 146.362 42.4726 146.289 42.7245L144.33 42.5654C144.43 42.1014 144.625 41.7004 144.917 41.3623C145.209 41.0209 145.585 40.7591 146.045 40.5768C146.509 40.3912 147.046 40.2984 147.656 40.2984C148.081 40.2984 148.487 40.3481 148.874 40.4475C149.265 40.547 149.612 40.7011 149.913 40.9099C150.218 41.1187 150.459 41.3872 150.634 41.7153C150.81 42.0401 150.898 42.4295 150.898 42.8836V48.0342H148.889V46.9752H148.83C148.707 47.2139 148.543 47.4243 148.337 47.6066C148.132 47.7856 147.885 47.9265 147.597 48.0292C147.308 48.1286 146.975 48.1784 146.597 48.1784ZM147.204 46.7167C147.515 46.7167 147.79 46.6554 148.029 46.5328C148.268 46.4068 148.455 46.2378 148.591 46.0257C148.727 45.8135 148.795 45.5732 148.795 45.3048V44.4944C148.728 44.5375 148.637 44.5773 148.521 44.6137C148.409 44.6469 148.281 44.6784 148.139 44.7082C147.996 44.7347 147.853 44.7596 147.711 44.7828C147.568 44.8026 147.439 44.8209 147.323 44.8374C147.075 44.8739 146.857 44.9319 146.672 45.0115C146.486 45.091 146.342 45.1987 146.239 45.3346C146.137 45.4672 146.085 45.6329 146.085 45.8318C146.085 46.1201 146.19 46.3405 146.398 46.493C146.611 46.6421 146.879 46.7167 147.204 46.7167ZM153.575 50.8978C153.306 50.8978 153.055 50.8763 152.819 50.8332C152.587 50.7934 152.395 50.742 152.243 50.6791L152.72 49.0981C152.968 49.1743 153.192 49.2158 153.391 49.2224C153.593 49.229 153.767 49.1826 153.913 49.0832C154.062 48.9838 154.183 48.8147 154.276 48.5761L154.4 48.2529L151.661 40.3978H153.888L155.469 46.0058H155.549L157.145 40.3978H159.387L156.419 48.8595C156.276 49.2704 156.082 49.6284 155.837 49.9333C155.595 50.2416 155.288 50.4785 154.917 50.6443C154.546 50.8133 154.099 50.8978 153.575 50.8978Z" fill="#4B4B4B"/>
<defs>
<filter id="filter0_d_1_2492" x="0.5" y="0.84668" width="192" height="70.5781" filterUnits="userSpaceOnUse" color-interpolation-filters="sRGB">
<feFlood flood-opacity="0" result="BackgroundImageFix"/>
<feColorMatrix in="SourceAlpha" type="matrix" values="0 0 0 0 0 0 0 0 0 0 0 0 0 0 0 0 0 0 127 0" result="hardAlpha"/>
<feOffset dy="2"/>
<feComposite in2="hardAlpha" operator="out"/>
<feColorMatrix type="matrix" values="0 0 0 0 0.898039 0 0 0 0 0.898039 0 0 0 0 0.898039 0 0 0 1 0"/>
<feBlend mode="normal" in2="BackgroundImageFix" result="effect1_dropShadow_1_2492"/>
<feBlend mode="normal" in="SourceGraphic" in2="effect1_dropShadow_1_2492" result="shape"/>
</filter>
<clipPath id="clip0_1_2492">
<rect width="34" height="34" fill="white" transform="translate(31.5469 14.8467)"/>
</clipPath>
</defs>
</svg>
