<svg width="1440" height="711" viewBox="0 0 1440 711" fill="none" xmlns="http://www.w3.org/2000/svg">
<path d="M547.3 407.4C548.294 407.4 549.1 406.594 549.1 405.6C549.1 404.606 548.294 403.8 547.3 403.8C546.306 403.8 545.5 404.606 545.5 405.6C545.5 406.594 546.306 407.4 547.3 407.4Z" fill="#A7BAD3"/>
<path d="M747.2 362.4C747.863 362.4 748.4 361.863 748.4 361.2C748.4 360.537 747.863 360 747.2 360C746.537 360 746 360.537 746 361.2C746 361.863 746.537 362.4 747.2 362.4Z" fill="#A7BAD3"/>
<path d="M747.2 701.697C747.863 701.697 748.4 701.16 748.4 700.497C748.4 699.834 747.863 699.297 747.2 699.297C746.537 699.297 746 699.834 746 700.497C746 701.16 746.537 701.697 747.2 701.697Z" fill="#A7BAD3"/>
<path d="M648.898 343.703C649.727 343.703 650.398 343.032 650.398 342.203C650.398 341.375 649.727 340.703 648.898 340.703C648.07 340.703 647.398 341.375 647.398 342.203C647.398 343.032 648.07 343.703 648.898 343.703Z" fill="#A7BAD3"/>
<path d="M648.898 683C649.727 683 650.398 682.328 650.398 681.5C650.398 680.672 649.727 680 648.898 680C648.07 680 647.398 680.672 647.398 681.5C647.398 682.328 648.07 683 648.898 683Z" fill="#A7BAD3"/>
<path d="M601.199 343.602C602.304 343.602 603.199 342.706 603.199 341.602C603.199 340.497 602.304 339.602 601.199 339.602C600.095 339.602 599.199 340.497 599.199 341.602C599.199 342.706 600.095 343.602 601.199 343.602Z" fill="#A7BAD3"/>
<path d="M601.199 682.898C602.304 682.898 603.199 682.003 603.199 680.898C603.199 679.794 602.304 678.898 601.199 678.898C600.095 678.898 599.199 679.794 599.199 680.898C599.199 682.003 600.095 682.898 601.199 682.898Z" fill="#A7BAD3"/>
<path d="M576.401 256.997C577.284 256.997 578.001 256.281 578.001 255.397C578.001 254.513 577.284 253.797 576.401 253.797C575.517 253.797 574.801 254.513 574.801 255.397C574.801 256.281 575.517 256.997 576.401 256.997Z" fill="#A7BAD3"/>
<path d="M576.401 596.294C577.284 596.294 578.001 595.577 578.001 594.694C578.001 593.81 577.284 593.094 576.401 593.094C575.517 593.094 574.801 593.81 574.801 594.694C574.801 595.577 575.517 596.294 576.401 596.294Z" fill="#A7BAD3"/>
<path d="M631.202 243.302C632.085 243.302 632.802 242.585 632.802 241.702C632.802 240.818 632.085 240.102 631.202 240.102C630.318 240.102 629.602 240.818 629.602 241.702C629.602 242.585 630.318 243.302 631.202 243.302Z" fill="#A7BAD3"/>
<path d="M631.202 582.598C632.085 582.598 632.802 581.882 632.802 580.998C632.802 580.115 632.085 579.398 631.202 579.398C630.318 579.398 629.602 580.115 629.602 580.998C629.602 581.882 630.318 582.598 631.202 582.598Z" fill="#A7BAD3"/>
<path d="M570.501 191.9C571.164 191.9 571.701 191.363 571.701 190.7C571.701 190.037 571.164 189.5 570.501 189.5C569.838 189.5 569.301 190.037 569.301 190.7C569.301 191.363 569.838 191.9 570.501 191.9Z" fill="#A7BAD3"/>
<path d="M570.501 531.197C571.164 531.197 571.701 530.66 571.701 529.997C571.701 529.334 571.164 528.797 570.501 528.797C569.838 528.797 569.301 529.334 569.301 529.997C569.301 530.66 569.838 531.197 570.501 531.197Z" fill="#A7BAD3"/>
<path d="M460.098 294.502C460.761 294.502 461.298 293.964 461.298 293.302C461.298 292.639 460.761 292.102 460.098 292.102C459.436 292.102 458.898 292.639 458.898 293.302C458.898 293.964 459.436 294.502 460.098 294.502Z" fill="#A7BAD3"/>
<path d="M460.098 633.798C460.761 633.798 461.298 633.261 461.298 632.598C461.298 631.936 460.761 631.398 460.098 631.398C459.436 631.398 458.898 631.936 458.898 632.598C458.898 633.261 459.436 633.798 460.098 633.798Z" fill="#A7BAD3"/>
<path d="M468.001 366.298C468.664 366.298 469.201 365.761 469.201 365.098C469.201 364.436 468.664 363.898 468.001 363.898C467.338 363.898 466.801 364.436 466.801 365.098C466.801 365.761 467.338 366.298 468.001 366.298Z" fill="#A7BAD3"/>
<path d="M468.001 705.595C468.664 705.595 469.201 705.058 469.201 704.395C469.201 703.733 468.664 703.195 468.001 703.195C467.338 703.195 466.801 703.733 466.801 704.395C466.801 705.058 467.338 705.595 468.001 705.595Z" fill="#A7BAD3"/>
<path d="M470.6 487.8C471.263 487.8 471.8 487.263 471.8 486.6C471.8 485.937 471.263 485.4 470.6 485.4C469.937 485.4 469.4 485.937 469.4 486.6C469.4 487.263 469.937 487.8 470.6 487.8Z" fill="#A7BAD3"/>
<path d="M565.9 466.9C566.563 466.9 567.1 466.363 567.1 465.7C567.1 465.037 566.563 464.5 565.9 464.5C565.237 464.5 564.7 465.037 564.7 465.7C564.7 466.363 565.237 466.9 565.9 466.9Z" fill="#A7BAD3"/>
<path d="M347.9 484.3C348.563 484.3 349.1 483.763 349.1 483.1C349.1 482.437 348.563 481.9 347.9 481.9C347.237 481.9 346.7 482.437 346.7 483.1C346.7 483.763 347.237 484.3 347.9 484.3Z" fill="#A7BAD3"/>
<path d="M145.5 457C146.384 457 147.1 456.283 147.1 455.4C147.1 454.516 146.384 453.8 145.5 453.8C144.616 453.8 143.9 454.516 143.9 455.4C143.9 456.283 144.616 457 145.5 457Z" fill="#A7BAD3"/>
<path d="M74.3 432.2C75.1836 432.2 75.9 431.484 75.9 430.6C75.9 429.716 75.1836 429 74.3 429C73.4163 429 72.7 429.716 72.7 430.6C72.7 431.484 73.4163 432.2 74.3 432.2Z" fill="#A7BAD3"/>
<path d="M81.5 450.7C82.1075 450.7 82.6 450.208 82.6 449.6C82.6 448.992 82.1075 448.5 81.5 448.5C80.8925 448.5 80.4 448.992 80.4 449.6C80.4 450.208 80.8925 450.7 81.5 450.7Z" fill="#A7BAD3"/>
<path d="M35.1 364.497C35.7075 364.497 36.2 364.004 36.2 363.397C36.2 362.789 35.7075 362.297 35.1 362.297C34.4925 362.297 34 362.789 34 363.397C34 364.004 34.4925 364.497 35.1 364.497Z" fill="#A7BAD3"/>
<path d="M35.1 703.794C35.7075 703.794 36.2 703.301 36.2 702.694C36.2 702.086 35.7075 701.594 35.1 701.594C34.4925 701.594 34 702.086 34 702.694C34 703.301 34.4925 703.794 35.1 703.794Z" fill="#A7BAD3"/>
<path d="M142.202 360.497C142.809 360.497 143.302 360.004 143.302 359.397C143.302 358.789 142.809 358.297 142.202 358.297C141.594 358.297 141.102 358.789 141.102 359.397C141.102 360.004 141.594 360.497 142.202 360.497Z" fill="#A7BAD3"/>
<path d="M142.202 699.794C142.809 699.794 143.302 699.301 143.302 698.694C143.302 698.086 142.809 697.594 142.202 697.594C141.594 697.594 141.102 698.086 141.102 698.694C141.102 699.301 141.594 699.794 142.202 699.794Z" fill="#A7BAD3"/>
<path d="M104.301 293C105.129 293 105.801 292.328 105.801 291.5C105.801 290.672 105.129 290 104.301 290C103.472 290 102.801 290.672 102.801 291.5C102.801 292.328 103.472 293 104.301 293Z" fill="#A7BAD3"/>
<path d="M104.301 632.297C105.129 632.297 105.801 631.625 105.801 630.797C105.801 629.968 105.129 629.297 104.301 629.297C103.472 629.297 102.801 629.968 102.801 630.797C102.801 631.625 103.472 632.297 104.301 632.297Z" fill="#A7BAD3"/>
<path d="M76.2016 291.997C76.8091 291.997 77.3016 291.504 77.3016 290.897C77.3016 290.289 76.8091 289.797 76.2016 289.797C75.594 289.797 75.1016 290.289 75.1016 290.897C75.1016 291.504 75.594 291.997 76.2016 291.997Z" fill="#A7BAD3"/>
<path d="M76.2016 631.294C76.8091 631.294 77.3016 630.801 77.3016 630.194C77.3016 629.586 76.8091 629.094 76.2016 629.094C75.594 629.094 75.1016 629.586 75.1016 630.194C75.1016 630.801 75.594 631.294 76.2016 631.294Z" fill="#A7BAD3"/>
<path d="M91.9008 218.2C92.5083 218.2 93.0008 217.708 93.0008 217.1C93.0008 216.492 92.5083 216 91.9008 216C91.2933 216 90.8008 216.492 90.8008 217.1C90.8008 217.708 91.2933 218.2 91.9008 218.2Z" fill="#A7BAD3"/>
<path d="M91.9008 557.497C92.5083 557.497 93.0008 557.004 93.0008 556.397C93.0008 555.789 92.5083 555.297 91.9008 555.297C91.2933 555.297 90.8008 555.789 90.8008 556.397C90.8008 557.004 91.2933 557.497 91.9008 557.497Z" fill="#A7BAD3"/>
<path d="M157.202 229.903C157.809 229.903 158.302 229.411 158.302 228.803C158.302 228.196 157.809 227.703 157.202 227.703C156.594 227.703 156.102 228.196 156.102 228.803C156.102 229.411 156.594 229.903 157.202 229.903Z" fill="#A7BAD3"/>
<path d="M157.202 569.2C157.809 569.2 158.302 568.708 158.302 568.1C158.302 567.492 157.809 567 157.202 567C156.594 567 156.102 567.492 156.102 568.1C156.102 568.708 156.594 569.2 157.202 569.2Z" fill="#A7BAD3"/>
<path d="M47.4984 224.7C48.1059 224.7 48.5984 224.208 48.5984 223.6C48.5984 222.992 48.1059 222.5 47.4984 222.5C46.8909 222.5 46.3984 222.992 46.3984 223.6C46.3984 224.208 46.8909 224.7 47.4984 224.7Z" fill="#A7BAD3"/>
<path d="M47.4984 563.997C48.1059 563.997 48.5984 563.504 48.5984 562.897C48.5984 562.289 48.1059 561.797 47.4984 561.797C46.8909 561.797 46.3984 562.289 46.3984 562.897C46.3984 563.504 46.8909 563.997 47.4984 563.997Z" fill="#A7BAD3"/>
<path d="M223.799 361.802C224.407 361.802 224.899 361.309 224.899 360.702C224.899 360.094 224.407 359.602 223.799 359.602C223.192 359.602 222.699 360.094 222.699 360.702C222.699 361.309 223.192 361.802 223.799 361.802Z" fill="#A7BAD3"/>
<path d="M223.799 701.098C224.407 701.098 224.899 700.606 224.899 699.998C224.899 699.391 224.407 698.898 223.799 698.898C223.192 698.898 222.699 699.391 222.699 699.998C222.699 700.606 223.192 701.098 223.799 701.098Z" fill="#A7BAD3"/>
<path d="M302.202 270.403C302.809 270.403 303.302 269.911 303.302 269.303C303.302 268.696 302.809 268.203 302.202 268.203C301.594 268.203 301.102 268.696 301.102 269.303C301.102 269.911 301.594 270.403 302.202 270.403Z" fill="#A7BAD3"/>
<path d="M302.202 609.7C302.809 609.7 303.302 609.207 303.302 608.6C303.302 607.992 302.809 607.5 302.202 607.5C301.594 607.5 301.102 607.992 301.102 608.6C301.102 609.207 301.594 609.7 302.202 609.7Z" fill="#A7BAD3"/>
<path d="M315.299 252.098C315.907 252.098 316.399 251.606 316.399 250.998C316.399 250.391 315.907 249.898 315.299 249.898C314.692 249.898 314.199 250.391 314.199 250.998C314.199 251.606 314.692 252.098 315.299 252.098Z" fill="#A7BAD3"/>
<path d="M315.299 591.395C315.907 591.395 316.399 590.903 316.399 590.295C316.399 589.688 315.907 589.195 315.299 589.195C314.692 589.195 314.199 589.688 314.199 590.295C314.199 590.903 314.692 591.395 315.299 591.395Z" fill="#A7BAD3"/>
<path d="M387.1 199.903C387.708 199.903 388.2 199.411 388.2 198.803C388.2 198.196 387.708 197.703 387.1 197.703C386.492 197.703 386 198.196 386 198.803C386 199.411 386.492 199.903 387.1 199.903Z" fill="#A7BAD3"/>
<path d="M387.1 539.2C387.708 539.2 388.2 538.708 388.2 538.1C388.2 537.492 387.708 537 387.1 537C386.492 537 386 537.492 386 538.1C386 538.708 386.492 539.2 387.1 539.2Z" fill="#A7BAD3"/>
<path d="M485.1 259.302C485.708 259.302 486.2 258.809 486.2 258.202C486.2 257.594 485.708 257.102 485.1 257.102C484.492 257.102 484 257.594 484 258.202C484 258.809 484.492 259.302 485.1 259.302Z" fill="#A7BAD3"/>
<path d="M485.1 598.598C485.708 598.598 486.2 598.106 486.2 597.498C486.2 596.891 485.708 596.398 485.1 596.398C484.492 596.398 484 596.891 484 597.498C484 598.106 484.492 598.598 485.1 598.598Z" fill="#A7BAD3"/>
<path d="M929.7 52.7999C930.363 52.7999 930.9 52.2626 930.9 51.5999C930.9 50.9372 930.363 50.3999 929.7 50.3999C929.037 50.3999 928.5 50.9372 928.5 51.5999C928.5 52.2626 929.037 52.7999 929.7 52.7999Z" fill="#A7BAD3"/>
<path d="M937.501 124.603C938.164 124.603 938.701 124.066 938.701 123.403C938.701 122.74 938.164 122.203 937.501 122.203C936.838 122.203 936.301 122.74 936.301 123.403C936.301 124.066 936.838 124.603 937.501 124.603Z" fill="#A7BAD3"/>
<path d="M937.501 463.9C938.164 463.9 938.701 463.363 938.701 462.7C938.701 462.037 938.164 461.5 937.501 461.5C936.838 461.5 936.301 462.037 936.301 462.7C936.301 463.363 936.838 463.9 937.501 463.9Z" fill="#A7BAD3"/>
<path d="M940.098 246.103C940.761 246.103 941.298 245.566 941.298 244.903C941.298 244.24 940.761 243.703 940.098 243.703C939.436 243.703 938.898 244.24 938.898 244.903C938.898 245.566 939.436 246.103 940.098 246.103Z" fill="#A7BAD3"/>
<path d="M940.098 585.4C940.761 585.4 941.298 584.863 941.298 584.2C941.298 583.537 940.761 583 940.098 583C939.436 583 938.898 583.537 938.898 584.2C938.898 584.863 939.436 585.4 940.098 585.4Z" fill="#A7BAD3"/>
<path d="M817.399 242.603C818.062 242.603 818.599 242.066 818.599 241.403C818.599 240.74 818.062 240.203 817.399 240.203C816.736 240.203 816.199 240.74 816.199 241.403C816.199 242.066 816.736 242.603 817.399 242.603Z" fill="#A7BAD3"/>
<path d="M817.399 581.9C818.062 581.9 818.599 581.363 818.599 580.7C818.599 580.037 818.062 579.5 817.399 579.5C816.736 579.5 816.199 580.037 816.199 580.7C816.199 581.363 816.736 581.9 817.399 581.9Z" fill="#A7BAD3"/>
<path d="M614.998 215.403C615.882 215.403 616.598 214.687 616.598 213.803C616.598 212.919 615.882 212.203 614.998 212.203C614.115 212.203 613.398 212.919 613.398 213.803C613.398 214.687 614.115 215.403 614.998 215.403Z" fill="#A7BAD3"/>
<path d="M614.998 554.7C615.882 554.7 616.598 553.984 616.598 553.1C616.598 552.216 615.882 551.5 614.998 551.5C614.115 551.5 613.398 552.216 613.398 553.1C613.398 553.984 614.115 554.7 614.998 554.7Z" fill="#A7BAD3"/>
<path d="M543.799 190.497C544.683 190.497 545.399 189.781 545.399 188.897C545.399 188.013 544.683 187.297 543.799 187.297C542.916 187.297 542.199 188.013 542.199 188.897C542.199 189.781 542.916 190.497 543.799 190.497Z" fill="#A7BAD3"/>
<path d="M543.799 529.794C544.683 529.794 545.399 529.077 545.399 528.194C545.399 527.31 544.683 526.594 543.799 526.594C542.916 526.594 542.199 527.31 542.199 528.194C542.199 529.077 542.916 529.794 543.799 529.794Z" fill="#A7BAD3"/>
<path d="M550.998 208.997C551.606 208.997 552.098 208.504 552.098 207.897C552.098 207.289 551.606 206.797 550.998 206.797C550.391 206.797 549.898 207.289 549.898 207.897C549.898 208.504 550.391 208.997 550.998 208.997Z" fill="#A7BAD3"/>
<path d="M550.998 548.294C551.606 548.294 552.098 547.801 552.098 547.194C552.098 546.586 551.606 546.094 550.998 546.094C550.391 546.094 549.898 546.586 549.898 547.194C549.898 547.801 550.391 548.294 550.998 548.294Z" fill="#A7BAD3"/>
<path d="M611.702 118.903C612.309 118.903 612.802 118.411 612.802 117.803C612.802 117.196 612.309 116.703 611.702 116.703C611.094 116.703 610.602 117.196 610.602 117.803C610.602 118.411 611.094 118.903 611.702 118.903Z" fill="#A7BAD3"/>
<path d="M611.702 458.2C612.309 458.2 612.802 457.708 612.802 457.1C612.802 456.492 612.309 456 611.702 456C611.094 456 610.602 456.492 610.602 457.1C610.602 457.708 611.094 458.2 611.702 458.2Z" fill="#A7BAD3"/>
<path d="M573.8 51.2998C574.628 51.2998 575.3 50.6282 575.3 49.7998C575.3 48.9714 574.628 48.2998 573.8 48.2998C572.972 48.2998 572.3 48.9714 572.3 49.7998C572.3 50.6282 572.972 51.2998 573.8 51.2998Z" fill="#A7BAD3"/>
<path d="M545.8 50.3001C546.407 50.3001 546.9 49.8076 546.9 49.2001C546.9 48.5926 546.407 48.1001 545.8 48.1001C545.192 48.1001 544.7 48.5926 544.7 49.2001C544.7 49.8076 545.192 50.3001 545.8 50.3001Z" fill="#A7BAD3"/>
<path d="M693.401 120.2C694.008 120.2 694.501 119.708 694.501 119.1C694.501 118.492 694.008 118 693.401 118C692.793 118 692.301 118.492 692.301 119.1C692.301 119.708 692.793 120.2 693.401 120.2Z" fill="#A7BAD3"/>
<path d="M693.401 459.497C694.008 459.497 694.501 459.004 694.501 458.397C694.501 457.789 694.008 457.297 693.401 457.297C692.793 457.297 692.301 457.789 692.301 458.397C692.301 459.004 692.793 459.497 693.401 459.497Z" fill="#A7BAD3"/>
<path d="M771.7 28.7C772.308 28.7 772.8 28.2075 772.8 27.6C772.8 26.9925 772.308 26.5 771.7 26.5C771.092 26.5 770.6 26.9925 770.6 27.6C770.6 28.2075 771.092 28.7 771.7 28.7Z" fill="#A7BAD3"/>
<path d="M954.6 17.5999C955.207 17.5999 955.7 17.1074 955.7 16.4999C955.7 15.8924 955.207 15.3999 954.6 15.3999C953.992 15.3999 953.5 15.8924 953.5 16.4999C953.5 17.1074 953.992 17.5999 954.6 17.5999Z" fill="#A7BAD3"/>
<path d="M557.6 301.802C558.207 301.802 558.7 301.309 558.7 300.702C558.7 300.094 558.207 299.602 557.6 299.602C556.992 299.602 556.5 300.094 556.5 300.702C556.5 301.309 556.992 301.802 557.6 301.802Z" fill="#A7BAD3"/>
<path d="M557.6 641.098C558.207 641.098 558.7 640.606 558.7 639.998C558.7 639.391 558.207 638.898 557.6 638.898C556.992 638.898 556.5 639.391 556.5 639.998C556.5 640.606 556.992 641.098 557.6 641.098Z" fill="#A7BAD3"/>
<path d="M674.3 470.1C674.963 470.1 675.5 469.563 675.5 468.9C675.5 468.237 674.963 467.7 674.3 467.7C673.637 467.7 673.1 468.237 673.1 468.9C673.1 469.563 673.637 470.1 674.3 470.1Z" fill="#A7BAD3"/>
<path d="M750.1 478C750.763 478 751.3 477.463 751.3 476.8C751.3 476.137 750.763 475.6 750.1 475.6C749.437 475.6 748.9 476.137 748.9 476.8C748.9 477.463 749.437 478 750.1 478Z" fill="#A7BAD3"/>
<path d="M837.6 481.9C838.263 481.9 838.8 481.363 838.8 480.7C838.8 480.037 838.263 479.5 837.6 479.5C836.937 479.5 836.4 480.037 836.4 480.7C836.4 481.363 836.937 481.9 837.6 481.9Z" fill="#A7BAD3"/>
<path d="M833.7 451.9C834.363 451.9 834.9 451.363 834.9 450.7C834.9 450.037 834.363 449.5 833.7 449.5C833.037 449.5 832.5 450.037 832.5 450.7C832.5 451.363 833.037 451.9 833.7 451.9Z" fill="#A7BAD3"/>
<path d="M858.5 436.2C859.163 436.2 859.7 435.663 859.7 435C859.7 434.337 859.163 433.8 858.5 433.8C857.837 433.8 857.3 434.337 857.3 435C857.3 435.663 857.837 436.2 858.5 436.2Z" fill="#A7BAD3"/>
<path d="M919.199 334.102C919.752 334.102 920.199 333.654 920.199 333.102C920.199 332.549 919.752 332.102 919.199 332.102C918.647 332.102 918.199 332.549 918.199 333.102C918.199 333.654 918.647 334.102 919.199 334.102Z" fill="#A7BAD3"/>
<path d="M919.199 673.398C919.752 673.398 920.199 672.951 920.199 672.398C920.199 671.846 919.752 671.398 919.199 671.398C918.647 671.398 918.199 671.846 918.199 672.398C918.199 672.951 918.647 673.398 919.199 673.398Z" fill="#A7BAD3"/>
<path d="M1027 396.6C1028.16 396.6 1029.1 395.66 1029.1 394.5C1029.1 393.34 1028.16 392.4 1027 392.4C1025.84 392.4 1024.9 393.34 1024.9 394.5C1024.9 395.66 1025.84 396.6 1027 396.6Z" fill="#A7BAD3"/>
<path d="M1032.9 383.5C1033.34 383.5 1033.7 383.142 1033.7 382.7C1033.7 382.258 1033.34 381.9 1032.9 381.9C1032.46 381.9 1032.1 382.258 1032.1 382.7C1032.1 383.142 1032.46 383.5 1032.9 383.5Z" fill="#A7BAD3"/>
<path d="M1036.1 282.998C1036.54 282.998 1036.9 282.64 1036.9 282.198C1036.9 281.757 1036.54 281.398 1036.1 281.398C1035.66 281.398 1035.3 281.757 1035.3 282.198C1035.3 282.64 1035.66 282.998 1036.1 282.998Z" fill="#A7BAD3"/>
<path d="M1036.1 622.295C1036.54 622.295 1036.9 621.937 1036.9 621.495C1036.9 621.054 1036.54 620.695 1036.1 620.695C1035.66 620.695 1035.3 621.054 1035.3 621.495C1035.3 621.937 1035.66 622.295 1036.1 622.295Z" fill="#A7BAD3"/>
<path d="M1079.9 209.803C1080.34 209.803 1080.7 209.445 1080.7 209.003C1080.7 208.561 1080.34 208.203 1079.9 208.203C1079.46 208.203 1079.1 208.561 1079.1 209.003C1079.1 209.445 1079.46 209.803 1079.9 209.803Z" fill="#A7BAD3"/>
<path d="M1079.9 549.1C1080.34 549.1 1080.7 548.742 1080.7 548.3C1080.7 547.858 1080.34 547.5 1079.9 547.5C1079.46 547.5 1079.1 547.858 1079.1 548.3C1079.1 548.742 1079.46 549.1 1079.9 549.1Z" fill="#A7BAD3"/>
<path d="M1003.5 214.998C1003.94 214.998 1004.3 214.64 1004.3 214.198C1004.3 213.757 1003.94 213.398 1003.5 213.398C1003.06 213.398 1002.7 213.757 1002.7 214.198C1002.7 214.64 1003.06 214.998 1003.5 214.998Z" fill="#A7BAD3"/>
<path d="M1003.5 554.295C1003.94 554.295 1004.3 553.937 1004.3 553.495C1004.3 553.053 1003.94 552.695 1003.5 552.695C1003.06 552.695 1002.7 553.053 1002.7 553.495C1002.7 553.937 1003.06 554.295 1003.5 554.295Z" fill="#A7BAD3"/>
<path d="M1072.2 480.4C1072.75 480.4 1073.2 479.952 1073.2 479.4C1073.2 478.848 1072.75 478.4 1072.2 478.4C1071.65 478.4 1071.2 478.848 1071.2 479.4C1071.2 479.952 1071.65 480.4 1072.2 480.4Z" fill="#A7BAD3"/>
<path d="M999.7 458.8C1000.25 458.8 1000.7 458.352 1000.7 457.8C1000.7 457.248 1000.25 456.8 999.7 456.8C999.148 456.8 998.7 457.248 998.7 457.8C998.7 458.352 999.148 458.8 999.7 458.8Z" fill="#A7BAD3"/>
<path d="M982.7 504.5C983.252 504.5 983.7 504.052 983.7 503.5C983.7 502.948 983.252 502.5 982.7 502.5C982.148 502.5 981.7 502.948 981.7 503.5C981.7 504.052 982.148 504.5 982.7 504.5Z" fill="#A7BAD3"/>
<path d="M953.898 331.797C954.451 331.797 954.898 331.349 954.898 330.797C954.898 330.245 954.451 329.797 953.898 329.797C953.346 329.797 952.898 330.245 952.898 330.797C952.898 331.349 953.346 331.797 953.898 331.797Z" fill="#A7BAD3"/>
<path d="M953.898 671.094C954.451 671.094 954.898 670.646 954.898 670.094C954.898 669.541 954.451 669.094 953.898 669.094C953.346 669.094 952.898 669.541 952.898 670.094C952.898 670.646 953.346 671.094 953.898 671.094Z" fill="#A7BAD3"/>
<path d="M950.301 287.703C950.853 287.703 951.301 287.255 951.301 286.703C951.301 286.151 950.853 285.703 950.301 285.703C949.748 285.703 949.301 286.151 949.301 286.703C949.301 287.255 949.748 287.703 950.301 287.703Z" fill="#A7BAD3"/>
<path d="M950.301 627C950.853 627 951.301 626.552 951.301 626C951.301 625.448 950.853 625 950.301 625C949.748 625 949.301 625.448 949.301 626C949.301 626.552 949.748 627 950.301 627Z" fill="#A7BAD3"/>
<path d="M837.301 280.203C837.853 280.203 838.301 279.755 838.301 279.203C838.301 278.651 837.853 278.203 837.301 278.203C836.748 278.203 836.301 278.651 836.301 279.203C836.301 279.755 836.748 280.203 837.301 280.203Z" fill="#A7BAD3"/>
<path d="M837.301 619.5C837.853 619.5 838.301 619.052 838.301 618.5C838.301 617.948 837.853 617.5 837.301 617.5C836.748 617.5 836.301 617.948 836.301 618.5C836.301 619.052 836.748 619.5 837.301 619.5Z" fill="#A7BAD3"/>
<path d="M876.5 244.297C877.052 244.297 877.5 243.849 877.5 243.297C877.5 242.745 877.052 242.297 876.5 242.297C875.948 242.297 875.5 242.745 875.5 243.297C875.5 243.849 875.948 244.297 876.5 244.297Z" fill="#A7BAD3"/>
<path d="M876.5 583.594C877.052 583.594 877.5 583.146 877.5 582.594C877.5 582.041 877.052 581.594 876.5 581.594C875.948 581.594 875.5 582.041 875.5 582.594C875.5 583.146 875.948 583.594 876.5 583.594Z" fill="#A7BAD3"/>
<path d="M728.898 239.102C729.451 239.102 729.898 238.654 729.898 238.102C729.898 237.549 729.451 237.102 728.898 237.102C728.346 237.102 727.898 237.549 727.898 238.102C727.898 238.654 728.346 239.102 728.898 239.102Z" fill="#A7BAD3"/>
<path d="M728.898 578.398C729.451 578.398 729.898 577.951 729.898 577.398C729.898 576.846 729.451 576.398 728.898 576.398C728.346 576.398 727.898 576.846 727.898 577.398C727.898 577.951 728.346 578.398 728.898 578.398Z" fill="#A7BAD3"/>
<path d="M669.1 448.6C669.763 448.6 670.3 448.063 670.3 447.4C670.3 446.737 669.763 446.2 669.1 446.2C668.437 446.2 667.9 446.737 667.9 447.4C667.9 448.063 668.437 448.6 669.1 448.6Z" fill="#A7BAD3"/>
<path d="M1161.5 208.298C1162.16 208.298 1162.7 207.761 1162.7 207.098C1162.7 206.436 1162.16 205.898 1161.5 205.898C1160.84 205.898 1160.3 206.436 1160.3 207.098C1160.3 207.761 1160.84 208.298 1161.5 208.298Z" fill="#A7BAD3"/>
<path d="M1161.5 547.595C1162.16 547.595 1162.7 547.058 1162.7 546.395C1162.7 545.733 1162.16 545.195 1161.5 545.195C1160.84 545.195 1160.3 545.733 1160.3 546.395C1160.3 547.058 1160.84 547.595 1161.5 547.595Z" fill="#A7BAD3"/>
<path d="M1063.2 189.703C1064.03 189.703 1064.7 189.032 1064.7 188.203C1064.7 187.375 1064.03 186.703 1063.2 186.703C1062.37 186.703 1061.7 187.375 1061.7 188.203C1061.7 189.032 1062.37 189.703 1063.2 189.703Z" fill="#A7BAD3"/>
<path d="M1063.2 529C1064.03 529 1064.7 528.328 1064.7 527.5C1064.7 526.672 1064.03 526 1063.2 526C1062.37 526 1061.7 526.672 1061.7 527.5C1061.7 528.328 1062.37 529 1063.2 529Z" fill="#A7BAD3"/>
<path d="M1045.5 89.2C1046.38 89.2 1047.1 88.4837 1047.1 87.6C1047.1 86.7163 1046.38 86 1045.5 86C1044.62 86 1043.9 86.7163 1043.9 87.6C1043.9 88.4837 1044.62 89.2 1045.5 89.2Z" fill="#A7BAD3"/>
<path d="M1427.8 342.002C1428.46 342.002 1429 341.464 1429 340.802C1429 340.139 1428.46 339.602 1427.8 339.602C1427.14 339.602 1426.6 340.139 1426.6 340.802C1426.6 341.464 1427.14 342.002 1427.8 342.002Z" fill="#A7BAD3"/>
<path d="M1427.8 681.298C1428.46 681.298 1429 680.761 1429 680.098C1429 679.436 1428.46 678.898 1427.8 678.898C1427.14 678.898 1426.6 679.436 1426.6 680.098C1426.6 680.761 1427.14 681.298 1427.8 681.298Z" fill="#A7BAD3"/>
<path d="M1435.6 413.9C1436.26 413.9 1436.8 413.363 1436.8 412.7C1436.8 412.037 1436.26 411.5 1435.6 411.5C1434.94 411.5 1434.4 412.037 1434.4 412.7C1434.4 413.363 1434.94 413.9 1435.6 413.9Z" fill="#A7BAD3"/>
<path d="M1354.4 92.0001C1355.06 92.0001 1355.6 91.4628 1355.6 90.8001C1355.6 90.1374 1355.06 89.6001 1354.4 89.6001C1353.74 89.6001 1353.2 90.1374 1353.2 90.8001C1353.2 91.4628 1353.74 92.0001 1354.4 92.0001Z" fill="#A7BAD3"/>
<path d="M1231.7 88.5001C1232.36 88.5001 1232.9 87.9628 1232.9 87.3001C1232.9 86.6374 1232.36 86.1001 1231.7 86.1001C1231.04 86.1001 1230.5 86.6374 1230.5 87.3001C1230.5 87.9628 1231.04 88.5001 1231.7 88.5001Z" fill="#A7BAD3"/>
<path d="M1029.3 61.3001C1030.18 61.3001 1030.9 60.5838 1030.9 59.7001C1030.9 58.8164 1030.18 58.1001 1029.3 58.1001C1028.42 58.1001 1027.7 58.8164 1027.7 59.7001C1027.7 60.5838 1028.42 61.3001 1029.3 61.3001Z" fill="#A7BAD3"/>
<path d="M1109.9 408.1C1110.51 408.1 1111 407.607 1111 407C1111 406.392 1110.51 405.9 1109.9 405.9C1109.29 405.9 1108.8 406.392 1108.8 407C1108.8 407.607 1109.29 408.1 1109.9 408.1Z" fill="#A7BAD3"/>
<path d="M1191.5 409.4C1192.11 409.4 1192.6 408.908 1192.6 408.3C1192.6 407.693 1192.11 407.2 1191.5 407.2C1190.89 407.2 1190.4 407.693 1190.4 408.3C1190.4 408.908 1190.89 409.4 1191.5 409.4Z" fill="#A7BAD3"/>
<path d="M180.302 283.798C180.964 283.798 181.502 283.261 181.502 282.598C181.502 281.936 180.964 281.398 180.302 281.398C179.639 281.398 179.102 281.936 179.102 282.598C179.102 283.261 179.639 283.798 180.302 283.798Z" fill="#A7BAD3"/>
<path d="M180.302 623.095C180.964 623.095 181.502 622.558 181.502 621.895C181.502 621.233 180.964 620.695 180.302 620.695C179.639 620.695 179.102 621.233 179.102 621.895C179.102 622.558 179.639 623.095 180.302 623.095Z" fill="#A7BAD3"/>
<path d="M1280.4 460.3C1281.01 460.3 1281.5 459.808 1281.5 459.2C1281.5 458.593 1281.01 458.1 1280.4 458.1C1279.79 458.1 1279.3 458.593 1279.3 459.2C1279.3 459.808 1279.79 460.3 1280.4 460.3Z" fill="#A7BAD3"/>
<path d="M1362.1 461.6C1362.71 461.6 1363.2 461.107 1363.2 460.5C1363.2 459.892 1362.71 459.4 1362.1 459.4C1361.49 459.4 1361 459.892 1361 460.5C1361 461.107 1361.49 461.6 1362.1 461.6Z" fill="#A7BAD3"/>
<path d="M1088.6 316.103C1089.26 316.103 1089.8 315.566 1089.8 314.903C1089.8 314.24 1089.26 313.703 1088.6 313.703C1087.94 313.703 1087.4 314.24 1087.4 314.903C1087.4 315.566 1087.94 316.103 1088.6 316.103Z" fill="#A7BAD3"/>
<path d="M1088.6 655.4C1089.26 655.4 1089.8 654.863 1089.8 654.2C1089.8 653.537 1089.26 653 1088.6 653C1087.94 653 1087.4 653.537 1087.4 654.2C1087.4 654.863 1087.94 655.4 1088.6 655.4Z" fill="#A7BAD3"/>
<path d="M1164.4 323.9C1165.06 323.9 1165.6 323.363 1165.6 322.7C1165.6 322.037 1165.06 321.5 1164.4 321.5C1163.74 321.5 1163.2 322.037 1163.2 322.7C1163.2 323.363 1163.74 323.9 1164.4 323.9Z" fill="#A7BAD3"/>
<path d="M1164.4 663.197C1165.06 663.197 1165.6 662.66 1165.6 661.997C1165.6 661.334 1165.06 660.797 1164.4 660.797C1163.74 660.797 1163.2 661.334 1163.2 661.997C1163.2 662.66 1163.74 663.197 1164.4 663.197Z" fill="#A7BAD3"/>
<path d="M1251.9 327.798C1252.56 327.798 1253.1 327.261 1253.1 326.598C1253.1 325.936 1252.56 325.398 1251.9 325.398C1251.24 325.398 1250.7 325.936 1250.7 326.598C1250.7 327.261 1251.24 327.798 1251.9 327.798Z" fill="#A7BAD3"/>
<path d="M1251.9 667.095C1252.56 667.095 1253.1 666.558 1253.1 665.895C1253.1 665.233 1252.56 664.695 1251.9 664.695C1251.24 664.695 1250.7 665.233 1250.7 665.895C1250.7 666.558 1251.24 667.095 1251.9 667.095Z" fill="#A7BAD3"/>
<path d="M1248 297.798C1248.66 297.798 1249.2 297.261 1249.2 296.598C1249.2 295.936 1248.66 295.398 1248 295.398C1247.34 295.398 1246.8 295.936 1246.8 296.598C1246.8 297.261 1247.34 297.798 1248 297.798Z" fill="#A7BAD3"/>
<path d="M1248 637.095C1248.66 637.095 1249.2 636.558 1249.2 635.895C1249.2 635.233 1248.66 634.695 1248 634.695C1247.34 634.695 1246.8 635.233 1246.8 635.895C1246.8 636.558 1247.34 637.095 1248 637.095Z" fill="#A7BAD3"/>
<path d="M1272.8 282.103C1273.46 282.103 1274 281.566 1274 280.903C1274 280.24 1273.46 279.703 1272.8 279.703C1272.14 279.703 1271.6 280.24 1271.6 280.903C1271.6 281.566 1272.14 282.103 1272.8 282.103Z" fill="#A7BAD3"/>
<path d="M1272.8 621.4C1273.46 621.4 1274 620.863 1274 620.2C1274 619.537 1273.46 619 1272.8 619C1272.14 619 1271.6 619.537 1271.6 620.2C1271.6 620.863 1272.14 621.4 1272.8 621.4Z" fill="#A7BAD3"/>
<path d="M1333.5 180C1334.05 180 1334.5 179.552 1334.5 179C1334.5 178.448 1334.05 178 1333.5 178C1332.95 178 1332.5 178.448 1332.5 179C1332.5 179.552 1332.95 180 1333.5 180Z" fill="#A7BAD3"/>
<path d="M1333.5 519.297C1334.05 519.297 1334.5 518.849 1334.5 518.297C1334.5 517.745 1334.05 517.297 1333.5 517.297C1332.95 517.297 1332.5 517.745 1332.5 518.297C1332.5 518.849 1332.95 519.297 1333.5 519.297Z" fill="#A7BAD3"/>
<path d="M1417.8 60.9999C1418.24 60.9999 1418.6 60.6417 1418.6 60.1999C1418.6 59.7581 1418.24 59.3999 1417.8 59.3999C1417.36 59.3999 1417 59.7581 1417 60.1999C1417 60.6417 1417.36 60.9999 1417.8 60.9999Z" fill="#A7BAD3"/>
<path d="M1414 304.797C1414.55 304.797 1415 304.349 1415 303.797C1415 303.245 1414.55 302.797 1414 302.797C1413.45 302.797 1413 303.245 1413 303.797C1413 304.349 1413.45 304.797 1414 304.797Z" fill="#A7BAD3"/>
<path d="M1414 644.094C1414.55 644.094 1415 643.646 1415 643.094C1415 642.541 1414.55 642.094 1414 642.094C1413.45 642.094 1413 642.541 1413 643.094C1413 643.646 1413.45 644.094 1414 644.094Z" fill="#A7BAD3"/>
<path d="M1397 350.5C1397.55 350.5 1398 350.052 1398 349.5C1398 348.948 1397.55 348.5 1397 348.5C1396.45 348.5 1396 348.948 1396 349.5C1396 350.052 1396.45 350.5 1397 350.5Z" fill="#A7BAD3"/>
<path d="M1397 689.797C1397.55 689.797 1398 689.349 1398 688.797C1398 688.245 1397.55 687.797 1397 687.797C1396.45 687.797 1396 688.245 1396 688.797C1396 689.349 1396.45 689.797 1397 689.797Z" fill="#A7BAD3"/>
<path d="M1368.2 177.703C1368.75 177.703 1369.2 177.255 1369.2 176.703C1369.2 176.151 1368.75 175.703 1368.2 175.703C1367.65 175.703 1367.2 176.151 1367.2 176.703C1367.2 177.255 1367.65 177.703 1368.2 177.703Z" fill="#A7BAD3"/>
<path d="M1368.2 517C1368.75 517 1369.2 516.552 1369.2 516C1369.2 515.448 1368.75 515 1368.2 515C1367.65 515 1367.2 515.448 1367.2 516C1367.2 516.552 1367.65 517 1368.2 517Z" fill="#A7BAD3"/>
<path d="M1364.6 133.703C1365.15 133.703 1365.6 133.255 1365.6 132.703C1365.6 132.151 1365.15 131.703 1364.6 131.703C1364.05 131.703 1363.6 132.151 1363.6 132.703C1363.6 133.255 1364.05 133.703 1364.6 133.703Z" fill="#A7BAD3"/>
<path d="M1364.6 473C1365.15 473 1365.6 472.552 1365.6 472C1365.6 471.448 1365.15 471 1364.6 471C1364.05 471 1363.6 471.448 1363.6 472C1363.6 472.552 1364.05 473 1364.6 473Z" fill="#A7BAD3"/>
<path d="M1251.6 126.203C1252.15 126.203 1252.6 125.755 1252.6 125.203C1252.6 124.651 1252.15 124.203 1251.6 124.203C1251.05 124.203 1250.6 124.651 1250.6 125.203C1250.6 125.755 1251.05 126.203 1251.6 126.203Z" fill="#A7BAD3"/>
<path d="M1251.6 465.5C1252.15 465.5 1252.6 465.052 1252.6 464.5C1252.6 463.948 1252.15 463.5 1251.6 463.5C1251.05 463.5 1250.6 463.948 1250.6 464.5C1250.6 465.052 1251.05 465.5 1251.6 465.5Z" fill="#A7BAD3"/>
<path d="M1290.8 90.2002C1291.35 90.2002 1291.8 89.7525 1291.8 89.2002C1291.8 88.6479 1291.35 88.2002 1290.8 88.2002C1290.25 88.2002 1289.8 88.6479 1289.8 89.2002C1289.8 89.7525 1290.25 90.2002 1290.8 90.2002Z" fill="#A7BAD3"/>
<path d="M1143.2 85C1143.75 85 1144.2 84.5523 1144.2 84C1144.2 83.4477 1143.75 83 1143.2 83C1142.65 83 1142.2 83.4477 1142.2 84C1142.2 84.5523 1142.65 85 1143.2 85Z" fill="#A7BAD3"/>
<path d="M1083.4 294.502C1084.06 294.502 1084.6 293.964 1084.6 293.302C1084.6 292.639 1084.06 292.102 1083.4 292.102C1082.74 292.102 1082.2 292.639 1082.2 293.302C1082.2 293.964 1082.74 294.502 1083.4 294.502Z" fill="#A7BAD3"/>
<path d="M1083.4 633.798C1084.06 633.798 1084.6 633.261 1084.6 632.598C1084.6 631.936 1084.06 631.398 1083.4 631.398C1082.74 631.398 1082.2 631.936 1082.2 632.598C1082.2 633.261 1082.74 633.798 1083.4 633.798Z" fill="#A7BAD3"/>
<path d="M148.5 57.0001C149.163 57.0001 149.7 56.4628 149.7 55.8001C149.7 55.1374 149.163 54.6001 148.5 54.6001C147.837 54.6001 147.3 55.1374 147.3 55.8001C147.3 56.4628 147.837 57.0001 148.5 57.0001Z" fill="#A7BAD3"/>
<path d="M50.1 38.2998C50.9284 38.2998 51.6 37.6282 51.6 36.7998C51.6 35.9714 50.9284 35.2998 50.1 35.2998C49.2715 35.2998 48.6 35.9714 48.6 36.7998C48.6 37.6282 49.2715 38.2998 50.1 38.2998Z" fill="#A7BAD3"/>
<path d="M75.5984 164.697C76.2612 164.697 76.7984 164.16 76.7984 163.497C76.7984 162.834 76.2612 162.297 75.5984 162.297C74.9357 162.297 74.3984 162.834 74.3984 163.497C74.3984 164.16 74.9357 164.697 75.5984 164.697Z" fill="#A7BAD3"/>
<path d="M75.5984 503.994C76.2612 503.994 76.7984 503.456 76.7984 502.794C76.7984 502.131 76.2612 501.594 75.5984 501.594C74.9357 501.594 74.3984 502.131 74.3984 502.794C74.3984 503.456 74.9357 503.994 75.5984 503.994Z" fill="#A7BAD3"/>
<path d="M151.302 172.603C151.964 172.603 152.502 172.066 152.502 171.403C152.502 170.74 151.964 170.203 151.302 170.203C150.639 170.203 150.102 170.74 150.102 171.403C150.102 172.066 150.639 172.603 151.302 172.603Z" fill="#A7BAD3"/>
<path d="M151.302 511.9C151.964 511.9 152.502 511.363 152.502 510.7C152.502 510.037 151.964 509.5 151.302 509.5C150.639 509.5 150.102 510.037 150.102 510.7C150.102 511.363 150.639 511.9 151.302 511.9Z" fill="#A7BAD3"/>
<path d="M238.802 176.502C239.464 176.502 240.002 175.964 240.002 175.302C240.002 174.639 239.464 174.102 238.802 174.102C238.139 174.102 237.602 174.639 237.602 175.302C237.602 175.964 238.139 176.502 238.802 176.502Z" fill="#A7BAD3"/>
<path d="M238.802 515.798C239.464 515.798 240.002 515.261 240.002 514.598C240.002 513.936 239.464 513.398 238.802 513.398C238.139 513.398 237.602 513.936 237.602 514.598C237.602 515.261 238.139 515.798 238.802 515.798Z" fill="#A7BAD3"/>
<path d="M234.899 146.4C235.562 146.4 236.099 145.863 236.099 145.2C236.099 144.537 235.562 144 234.899 144C234.236 144 233.699 144.537 233.699 145.2C233.699 145.863 234.236 146.4 234.899 146.4Z" fill="#A7BAD3"/>
<path d="M234.899 485.697C235.562 485.697 236.099 485.16 236.099 484.497C236.099 483.834 235.562 483.297 234.899 483.297C234.236 483.297 233.699 483.834 233.699 484.497C233.699 485.16 234.236 485.697 234.899 485.697Z" fill="#A7BAD3"/>
<path d="M259.7 130.798C260.363 130.798 260.9 130.261 260.9 129.598C260.9 128.936 260.363 128.398 259.7 128.398C259.037 128.398 258.5 128.936 258.5 129.598C258.5 130.261 259.037 130.798 259.7 130.798Z" fill="#A7BAD3"/>
<path d="M259.7 470.095C260.363 470.095 260.9 469.558 260.9 468.895C260.9 468.233 260.363 467.695 259.7 467.695C259.037 467.695 258.5 468.233 258.5 468.895C258.5 469.558 259.037 470.095 259.7 470.095Z" fill="#A7BAD3"/>
<path d="M320.5 28.7002C321.052 28.7002 321.5 28.2525 321.5 27.7002C321.5 27.1479 321.052 26.7002 320.5 26.7002C319.948 26.7002 319.5 27.1479 319.5 27.7002C319.5 28.2525 319.948 28.7002 320.5 28.7002Z" fill="#A7BAD3"/>
<path d="M428.2 91.2C429.36 91.2 430.3 90.2598 430.3 89.1C430.3 87.9402 429.36 87 428.2 87C427.04 87 426.1 87.9402 426.1 89.1C426.1 90.2598 427.04 91.2 428.2 91.2Z" fill="#A7BAD3"/>
<path d="M434.1 78.1C434.542 78.1 434.9 77.7418 434.9 77.3C434.9 76.8582 434.542 76.5 434.1 76.5C433.658 76.5 433.3 76.8582 433.3 77.3C433.3 77.7418 433.658 78.1 434.1 78.1Z" fill="#A7BAD3"/>
<path d="M473.398 175C473.951 175 474.398 174.552 474.398 174C474.398 173.448 473.951 173 473.398 173C472.846 173 472.398 173.448 472.398 174C472.398 174.552 472.846 175 473.398 175Z" fill="#A7BAD3"/>
<path d="M473.398 514.297C473.951 514.297 474.398 513.849 474.398 513.297C474.398 512.745 473.951 512.297 473.398 512.297C472.846 512.297 472.398 512.745 472.398 513.297C472.398 513.849 472.846 514.297 473.398 514.297Z" fill="#A7BAD3"/>
<path d="M400.898 153.398C401.451 153.398 401.898 152.951 401.898 152.398C401.898 151.846 401.451 151.398 400.898 151.398C400.346 151.398 399.898 151.846 399.898 152.398C399.898 152.951 400.346 153.398 400.898 153.398Z" fill="#A7BAD3"/>
<path d="M400.898 492.695C401.451 492.695 401.898 492.248 401.898 491.695C401.898 491.143 401.451 490.695 400.898 490.695C400.346 490.695 399.898 491.143 399.898 491.695C399.898 492.248 400.346 492.695 400.898 492.695Z" fill="#A7BAD3"/>
<path d="M342.9 455.4C343.784 455.4 344.5 454.684 344.5 453.8C344.5 452.917 343.784 452.2 342.9 452.2C342.016 452.2 341.3 452.917 341.3 453.8C341.3 454.684 342.016 455.4 342.9 455.4Z" fill="#A7BAD3"/>
<path d="M397.7 441.7C398.584 441.7 399.3 440.984 399.3 440.1C399.3 439.216 398.584 438.5 397.7 438.5C396.816 438.5 396.1 439.216 396.1 440.1C396.1 440.984 396.816 441.7 397.7 441.7Z" fill="#A7BAD3"/>
<path d="M337 390.4C337.663 390.4 338.2 389.863 338.2 389.2C338.2 388.537 337.663 388 337 388C336.337 388 335.8 388.537 335.8 389.2C335.8 389.863 336.337 390.4 337 390.4Z" fill="#A7BAD3"/>
<path d="M153.6 398.3C154.208 398.3 154.7 397.808 154.7 397.2C154.7 396.593 154.208 396.1 153.6 396.1C152.992 396.1 152.5 396.593 152.5 397.2C152.5 397.808 152.992 398.3 153.6 398.3Z" fill="#A7BAD3"/>
<path d="M251.6 457.8C252.208 457.8 252.7 457.308 252.7 456.7C252.7 456.093 252.208 455.6 251.6 455.6C250.992 455.6 250.5 456.093 250.5 456.7C250.5 457.308 250.992 457.8 251.6 457.8Z" fill="#A7BAD3"/>
<path d="M381.5 413.8C382.384 413.8 383.1 413.084 383.1 412.2C383.1 411.316 382.384 410.6 381.5 410.6C380.616 410.6 379.9 411.316 379.9 412.2C379.9 413.084 380.616 413.8 381.5 413.8Z" fill="#A7BAD3"/>
<path d="M310.3 389C311.184 389 311.9 388.283 311.9 387.4C311.9 386.516 311.184 385.8 310.3 385.8C309.416 385.8 308.7 386.516 308.7 387.4C308.7 388.283 309.416 389 310.3 389Z" fill="#A7BAD3"/>
<path d="M317.5 407.4C318.108 407.4 318.6 406.908 318.6 406.3C318.6 405.693 318.108 405.2 317.5 405.2C316.893 405.2 316.4 405.693 316.4 406.3C316.4 406.908 316.893 407.4 317.5 407.4Z" fill="#A7BAD3"/>
<path d="M239.9 373.4C240.452 373.4 240.9 372.952 240.9 372.4C240.9 371.848 240.452 371.4 239.9 371.4C239.348 371.4 238.9 371.848 238.9 372.4C238.9 372.952 239.348 373.4 239.9 373.4Z" fill="#A7BAD3"/>
<path d="M167.398 351.898C167.951 351.898 168.398 351.451 168.398 350.898C168.398 350.346 167.951 349.898 167.398 349.898C166.846 349.898 166.398 350.346 166.398 350.898C166.398 351.451 166.846 351.898 167.398 351.898Z" fill="#A7BAD3"/>
<path d="M167.398 691.195C167.951 691.195 168.398 690.748 168.398 690.195C168.398 689.643 167.951 689.195 167.398 689.195C166.846 689.195 166.398 689.643 166.398 690.195C166.398 690.748 166.846 691.195 167.398 691.195Z" fill="#A7BAD3"/>
<path d="M134.6 110.6C135.208 110.6 135.7 110.107 135.7 109.5C135.7 108.892 135.208 108.4 134.6 108.4C133.992 108.4 133.5 108.892 133.5 109.5C133.5 110.107 133.992 110.6 134.6 110.6Z" fill="#A7BAD3"/>
<path d="M202.5 73.2002C203.328 73.2002 204 72.5286 204 71.7002C204 70.8718 203.328 70.2002 202.5 70.2002C201.672 70.2002 201 70.8718 201 71.7002C201 72.5286 201.672 73.2002 202.5 73.2002Z" fill="#A7BAD3"/>
<path d="M203.2 44.7C203.807 44.7 204.3 44.2075 204.3 43.6C204.3 42.9925 203.807 42.5 203.2 42.5C202.592 42.5 202.1 42.9925 202.1 43.6C202.1 44.2075 202.592 44.7 203.2 44.7Z" fill="#A7BAD3"/>
<path d="M277 60.4002C277.608 60.4002 278.1 59.9077 278.1 59.3002C278.1 58.6927 277.608 58.2002 277 58.2002C276.393 58.2002 275.9 58.6927 275.9 59.3002C275.9 59.9077 276.393 60.4002 277 60.4002Z" fill="#A7BAD3"/>
<path d="M724.6 174.903C725.207 174.903 725.7 174.411 725.7 173.803C725.7 173.196 725.207 172.703 724.6 172.703C723.992 172.703 723.5 173.196 723.5 173.803C723.5 174.411 723.992 174.903 724.6 174.903Z" fill="#A7BAD3"/>
<path d="M724.6 514.2C725.207 514.2 725.7 513.708 725.7 513.1C725.7 512.492 725.207 512 724.6 512C723.992 512 723.5 512.492 723.5 513.1C723.5 513.708 723.992 514.2 724.6 514.2Z" fill="#A7BAD3"/>
<path d="M792.5 137.398C793.328 137.398 794 136.727 794 135.898C794 135.07 793.328 134.398 792.5 134.398C791.672 134.398 791 135.07 791 135.898C791 136.727 791.672 137.398 792.5 137.398Z" fill="#A7BAD3"/>
<path d="M792.5 476.695C793.328 476.695 794 476.024 794 475.195C794 474.367 793.328 473.695 792.5 473.695C791.672 473.695 791 474.367 791 475.195C791 476.024 791.672 476.695 792.5 476.695Z" fill="#A7BAD3"/>
<path d="M793.2 108.9C793.808 108.9 794.3 108.408 794.3 107.8C794.3 107.193 793.808 106.7 793.2 106.7C792.592 106.7 792.1 107.193 792.1 107.8C792.1 108.408 792.592 108.9 793.2 108.9Z" fill="#A7BAD3"/>
<path d="M866.998 124.598C867.606 124.598 868.098 124.106 868.098 123.498C868.098 122.891 867.606 122.398 866.998 122.398C866.391 122.398 865.898 122.891 865.898 123.498C865.898 124.106 866.391 124.598 866.998 124.598Z" fill="#A7BAD3"/>
<path d="M866.998 463.895C867.606 463.895 868.098 463.403 868.098 462.795C868.098 462.188 867.606 461.695 866.998 461.695C866.391 461.695 865.898 462.188 865.898 462.795C865.898 463.403 866.391 463.895 866.998 463.895Z" fill="#A7BAD3"/>
<path d="M202.6 283.598C203.484 283.598 204.2 282.882 204.2 281.998C204.2 281.115 203.484 280.398 202.6 280.398C201.716 280.398 201 281.115 201 281.998C201 282.882 201.716 283.598 202.6 283.598Z" fill="#A7BAD3"/>
<path d="M202.6 622.895C203.484 622.895 204.2 622.179 204.2 621.295C204.2 620.412 203.484 619.695 202.6 619.695C201.716 619.695 201 620.412 201 621.295C201 622.179 201.716 622.895 202.6 622.895Z" fill="#A7BAD3"/>
<path d="M355.1 26.3999C355.652 26.3999 356.1 25.9522 356.1 25.3999C356.1 24.8476 355.652 24.3999 355.1 24.3999C354.548 24.3999 354.1 24.8476 354.1 25.3999C354.1 25.9522 354.548 26.3999 355.1 26.3999Z" fill="#A7BAD3"/>
<path d="M70.3016 143.197C70.9643 143.197 71.5016 142.66 71.5016 141.997C71.5016 141.334 70.9643 140.797 70.3016 140.797C69.6388 140.797 69.1016 141.334 69.1016 141.997C69.1016 142.66 69.6388 143.197 70.3016 143.197Z" fill="#A7BAD3"/>
<path d="M70.3016 482.494C70.9643 482.494 71.5016 481.956 71.5016 481.294C71.5016 480.631 70.9643 480.094 70.3016 480.094C69.6388 480.094 69.1016 480.631 69.1016 481.294C69.1016 481.956 69.6388 482.494 70.3016 482.494Z" fill="#A7BAD3"/>
</svg>
