<svg width="186" height="181" viewBox="0 0 186 181" fill="none" xmlns="http://www.w3.org/2000/svg">
<g clip-path="url(#clip0_1_2559)">
<g clip-path="url(#clip1_1_2559)">
<path d="M60.7353 148.876C65.6486 145.273 72.5529 146.334 76.1564 151.248C79.7598 156.161 78.6981 163.066 73.7849 166.669L65.5473 172.71C60.6341 176.313 53.7298 175.252 50.1263 170.34C46.5227 165.426 47.5844 158.521 52.4978 154.918L60.7353 148.876Z" fill="#E619DF"/>
<path fill-rule="evenodd" clip-rule="evenodd" d="M58.2363 150.711C61.5548 155.6 60.4325 162.277 55.6294 165.798L49.8896 170.009C46.5711 165.121 47.6934 158.444 52.4965 154.921L58.2363 150.711Z" fill="#C128C1"/>
<path d="M38.5961 146.489C43.5093 142.885 50.4134 143.947 54.017 148.86C57.6205 153.773 56.5588 160.678 51.6456 164.281L43.4081 170.323C38.4947 173.926 31.5905 172.864 27.987 167.952C24.3834 163.038 25.4452 156.134 30.3584 152.53L38.5961 146.489Z" fill="#E619DF"/>
<path d="M30.0866 110.541L62.5608 33.5486C77.9342 31.5546 96.5831 58.5824 85.6268 90.0897C75.9448 117.933 52.17 123.579 33.1208 117.62C30.1756 116.699 28.8874 113.384 30.0866 110.541Z" fill="url(#paint0_radial_1_2559)"/>
<path d="M116.932 12.7232C111.114 11.8613 87.3138 -8.11426 59.8424 4.59226C49.4195 9.41326 44.4177 18.0895 42.8547 31.0401C41.4698 42.5162 46.1413 54.187 49.76 66.7016C45.2013 81.0918 42.2173 91.1185 47.0589 103.777C55.918 126.939 84.1549 151.071 121.828 137.606C178.497 117.352 162.103 47.1601 157.794 31.6461C153.484 16.1321 143.903 9.06126 135.931 9.70768C127.958 10.3541 122.75 13.585 116.932 12.7232Z" fill="url(#paint1_radial_1_2559)"/>
<path fill-rule="evenodd" clip-rule="evenodd" d="M59.286 123.103C66.61 120.757 74.8817 116.124 83.0483 107.087C84.028 106.003 83.9433 104.33 82.8593 103.35C81.7751 102.371 80.1022 102.455 79.1226 103.539C71.5637 111.904 64.0706 116.024 57.6203 118.08C56.9109 118.307 56.2129 118.508 55.5271 118.688C56.698 120.2 57.9522 121.676 59.286 123.103Z" fill="#1F66FB"/>
<path fill-rule="evenodd" clip-rule="evenodd" d="M156.891 38.415C155.555 28.2001 150.185 24.1228 146.586 24.5934C142.987 25.0639 143.443 29.6164 144.779 39.8313C145.288 43.7265 145.504 45.8261 145.616 47.0833C148.086 48.8554 149.866 51.6116 149.866 54.7816C149.246 54.9737 148.566 55.1374 147.842 55.2744C148.532 56.7905 149.383 58.3216 150.345 59.433C153.029 56.1937 156.308 54.1231 158.612 53.0474C158.579 51.8593 158.465 50.4914 158.259 48.9156L156.891 38.415Z" fill="#C7FFFE"/>
<path fill-rule="evenodd" clip-rule="evenodd" d="M145.616 47.0882C146.797 47.9353 147.82 49.0071 148.566 50.2414L148.734 50.2178C151.488 49.8284 153.404 47.2805 153.015 44.5267L151.291 32.3324C150.925 29.7458 148.655 27.8978 146.098 28.0054C147.11 28.7242 147.771 29.9056 147.771 31.2411C147.771 33.2984 146.204 34.9898 144.199 35.1878C144.358 36.5844 144.557 38.1314 144.779 39.8361C145.289 43.7314 145.505 45.831 145.616 47.0882Z" fill="#3C4DFF"/>
<path fill-rule="evenodd" clip-rule="evenodd" d="M101.407 18.6154C111.277 17.3246 120.362 24.5591 121.698 34.774L123.058 45.1778C123.91 51.6886 121.408 57.8388 116.925 61.7772C110.464 56.9235 100.115 51.0269 87.3009 49.7517L85.9535 39.4481C84.6177 29.2332 91.5364 19.9061 101.407 18.6154Z" fill="#C7FFFE"/>
<path fill-rule="evenodd" clip-rule="evenodd" d="M102.592 34.7119C105.697 34.1836 107.783 31.2836 107.25 28.2349C107.093 27.3332 106.724 26.5193 106.203 25.8341C106.846 25.555 107.536 25.3475 108.261 25.2239C112.957 24.4249 117.403 27.4432 118.192 31.9655L119.717 40.6999C120.506 45.2222 117.34 49.5361 112.644 50.3353C107.948 51.1344 103.502 48.1161 102.713 43.5938L101.188 34.8595C101.183 34.8326 101.179 34.8056 101.174 34.7787C101.638 34.8138 102.113 34.7935 102.592 34.7119Z" fill="#3C4DFF"/>
<path fill-rule="evenodd" clip-rule="evenodd" d="M130.218 57.2163C131.049 57.1349 131.789 57.7428 131.87 58.5737C132.512 65.1375 134.237 69.5446 136.583 71.6026C137.7 72.5829 138.978 73.0523 140.475 72.9812C142.017 72.9081 143.903 72.2543 146.146 70.7586C146.841 70.2955 147.779 70.4832 148.242 71.178C148.705 71.8726 148.518 72.8112 147.823 73.2744C145.297 74.9581 142.884 75.894 140.618 76.0014C138.309 76.1109 136.272 75.352 134.589 73.8754C131.334 71.0198 129.519 65.5997 128.861 58.868C128.779 58.0371 129.387 57.2975 130.218 57.2163Z" fill="#0455FF"/>
<path d="M141.228 68.9277C137.403 68.3051 137.003 65.4137 134.289 55.272H144.431C144.653 56.9623 145.276 62.1666 145.588 64.3906C145.962 67.0692 144.52 69.4634 141.228 68.9277Z" fill="#0455FF"/>
<path fill-rule="evenodd" clip-rule="evenodd" d="M133.709 46.6868C134.313 47.2626 135.242 47.6842 136.539 47.7394C136.676 47.7453 136.811 47.7505 136.944 47.7557C139.443 47.8539 141.31 47.9273 143.055 50.9402C143.85 52.3146 147.354 52.2831 147.928 49.2996C145.907 46.6754 142.596 44.9891 139.429 44.9893C137.269 44.9893 135.31 45.6408 133.709 46.6868Z" fill="#C7FFFE"/>
<path fill-rule="evenodd" clip-rule="evenodd" d="M128.423 54.2145C128.636 53.4072 129.462 52.925 130.27 53.1376C137.419 55.021 144.094 54.2719 148.201 53.4505C149.02 53.2868 149.816 53.8178 149.98 54.6365C150.144 55.4552 149.613 56.2516 148.794 56.4155C144.45 57.2844 137.266 58.1073 129.5 56.0615C128.692 55.8488 128.21 55.0218 128.423 54.2145Z" fill="#0455FF"/>
<path fill-rule="evenodd" clip-rule="evenodd" d="M84.2758 8.06821C83.4381 7.75661 82.6203 7.73067 81.7824 8.24069C81.0692 8.67483 80.1392 8.44863 79.7051 7.73546C79.2709 7.02227 79.4971 6.09218 80.2103 5.65804C82.0315 4.54933 83.8604 4.68781 85.3298 5.23435C86.7489 5.76212 87.9009 6.68746 88.5949 7.30441C89.2189 7.8591 89.2752 8.81466 88.7204 9.43869C88.1658 10.0627 87.2101 10.1189 86.5861 9.56424C85.9797 9.02506 85.164 8.39856 84.2758 8.06821Z" fill="#C7FFFE"/>
<path fill-rule="evenodd" clip-rule="evenodd" d="M134.267 11.0304C134.979 10.5943 135.91 10.818 136.346 11.53C138.232 14.6094 138.783 17.4626 137.842 19.7008C136.868 22.0177 134.559 23.0843 132.093 23.0843C131.258 23.0843 130.581 22.4075 130.581 21.5726C130.581 20.7377 131.258 20.0608 132.093 20.0608C133.747 20.0608 134.692 19.3926 135.055 18.5289C135.451 17.5863 135.424 15.8129 133.768 13.1092C133.331 12.3972 133.555 11.4665 134.267 11.0304Z" fill="#1F66FB"/>
<path fill-rule="evenodd" clip-rule="evenodd" d="M81.6715 5.68066C82.4035 6.08212 82.6715 7.00104 82.2701 7.73312C80.6246 10.7337 81.4403 14.4063 81.9418 15.9108L82.311 17.0186L81.3326 17.6557C81.0435 17.844 80.5163 18.35 79.8732 19.2371C79.2529 20.0929 78.5913 21.2112 78.0016 22.5172C76.8172 25.1402 75.9706 28.4108 76.2341 31.7326C76.9601 40.8805 77.9646 50.0917 79.493 54.9551C79.5624 55.1757 79.6323 55.4022 79.7038 55.6338C80.4746 58.1295 81.4326 61.232 83.8376 64.1242C86.4236 67.2338 90.8077 70.224 98.8184 71.5475C111.77 73.6874 119.188 69.7555 121.07 67.9125C121.667 67.3283 122.624 67.3383 123.208 67.9349C123.792 68.5315 123.782 69.4886 123.186 70.0728C120.444 72.7577 111.964 76.784 98.3257 74.5306C89.717 73.1083 84.6353 69.8122 81.5129 66.0574C78.7029 62.6783 77.582 59.0269 76.8195 56.5435C76.7463 56.3051 76.6764 56.0772 76.6086 55.8615C74.9578 50.6089 73.9392 41.0329 73.2201 31.9718C72.9057 28.01 73.9137 24.2234 75.246 21.2728C75.9147 19.792 76.6772 18.4945 77.4252 17.4626C77.8621 16.8598 78.3207 16.3105 78.7797 15.8626C78.2292 13.7133 77.6932 9.79104 79.619 6.27927C80.0204 5.5472 80.9393 5.2792 81.6715 5.68066Z" fill="#1F66FB"/>
<path fill-rule="evenodd" clip-rule="evenodd" d="M163.253 66.6226C162.902 67.3079 162.229 68.1559 161.27 68.6676C160.275 69.1989 158.814 69.4564 156.727 68.4859C155.97 68.1338 155.071 68.4621 154.719 69.2192C154.367 69.9762 154.695 70.8753 155.452 71.2275C158.337 72.5693 160.801 72.3452 162.694 71.3349C162.914 71.2175 163.124 71.0907 163.324 70.9564C163.326 69.4966 163.301 68.0506 163.253 66.6226Z" fill="#0455FF"/>
<path fill-rule="evenodd" clip-rule="evenodd" d="M91.036 5.54587C90.226 5.3237 89.8379 5.32264 89.7285 5.34369C88.9087 5.50136 88.116 4.96452 87.9584 4.14463C87.8008 3.32472 88.3376 2.53223 89.1574 2.37455C89.9874 2.21495 90.9459 2.38592 91.8357 2.62999C92.7783 2.88852 93.8747 3.29755 95.0785 3.80718C97.488 4.82727 100.485 6.31836 103.818 8.02186C104.904 8.57681 106.028 9.15536 107.182 9.74981C113.156 12.8255 119.955 16.3267 126.626 19.1858C128.767 20.1036 131.119 20.1411 131.782 20.0675C132.612 19.9753 133.359 20.5731 133.452 21.403C133.544 22.2328 132.946 22.9804 132.116 23.0725C131.044 23.1916 128.149 23.1282 125.435 21.9648C118.656 19.0595 111.744 15.4999 105.773 12.425C104.625 11.8341 103.513 11.2611 102.442 10.7141C99.1034 9.00769 96.1962 7.56369 93.8997 6.59149C92.7507 6.10498 91.7934 5.75358 91.036 5.54587Z" fill="#C7FFFE"/>
<g style="mix-blend-mode:overlay">
<path d="M118.017 94.6375L132.459 94.8197C133.233 94.8295 133.752 95.718 133.483 96.5743C132.192 100.689 128.752 103.498 124.936 103.45C121.12 103.401 117.878 100.508 116.873 96.3646C116.663 95.5023 117.243 94.6277 118.017 94.6375Z" fill="#204AFF"/>
</g>
<g style="mix-blend-mode:overlay">
<path d="M142.125 95.0241L154.964 94.6095C155.74 94.5833 156.275 95.4449 156.021 96.3109C154.799 100.472 152.483 103.242 148.658 103.371C144.832 103.5 142.089 100.882 141.008 96.7987C140.783 95.9489 141.348 95.0502 142.125 95.0241Z" fill="#204AFF"/>
</g>
<g style="mix-blend-mode:overlay">
<path d="M130.116 110.521L143.413 110.715C144.188 110.698 144.724 111.566 144.471 112.43C143.257 116.584 141.032 118.985 137.211 119.072C133.391 119.159 130.09 116.386 129.004 112.286C128.778 111.432 129.341 110.538 130.116 110.521Z" fill="#204AFF"/>
</g>
</g>
</g>
<defs>
<radialGradient id="paint0_radial_1_2559" cx="0" cy="0" r="1" gradientUnits="userSpaceOnUse" gradientTransform="translate(133.284 18.9144) rotate(119.366) scale(133.976 179.711)">
<stop stop-color="#26FF55"/>
<stop offset="0.569543" stop-color="#268AFF"/>
<stop offset="0.987801" stop-color="#FC55FF"/>
</radialGradient>
<radialGradient id="paint1_radial_1_2559" cx="0" cy="0" r="1" gradientUnits="userSpaceOnUse" gradientTransform="translate(133.284 18.9142) rotate(119.366) scale(133.976 179.711)">
<stop stop-color="#26FF55"/>
<stop offset="0.569543" stop-color="#268AFF"/>
<stop offset="0.987801" stop-color="#FC55FF"/>
</radialGradient>
<clipPath id="clip0_1_2559">
<rect width="185" height="180" fill="white" transform="translate(0.5 0.375)"/>
</clipPath>
<clipPath id="clip1_1_2559">
<rect width="143.077" height="180" fill="white" transform="translate(21.4615 0.375)"/>
</clipPath>
</defs>
</svg>
